<svg xmlns="http://www.w3.org/2000/svg" xmlns:xlink="http://www.w3.org/1999/xlink" width="19.042" height="21.658" viewBox="0 0 19.042 21.658">
  <defs>
    <clipPath id="clip-path">
      <rect id="Rectángulo_11459" data-name="Rectángulo 11459" width="19.042" height="21.658" fill="#b2b2b2"/>
    </clipPath>
  </defs>
  <g id="Borrar_-_Invisible" data-name="Borrar - Invisible" transform="translate(0 0)">
    <g id="Grupo_4113" data-name="Grupo 4113" transform="translate(0 0)" clip-path="url(#clip-path)">
      <path id="Trazado_6494" data-name="Trazado 6494" d="M2.981,15.841,2.7,15.755a1.912,1.912,0,0,1-1.359-1.794C1.167,11.825,1,9.693.817,7.557Q.6,4.883.369,2.206c-.008-.1-.008-.2-.016-.309H16.526c-.037.472-.073.936-.11,1.4q-.159,1.916-.321,3.833-.183,2.215-.366,4.423c-.069.859-.126,1.717-.22,2.571A1.841,1.841,0,0,1,13.971,15.8a.664.664,0,0,0-.077.037ZM4,8.224v4.394a.594.594,0,0,0,.415.639.632.632,0,0,0,.854-.655V3.85c0-.049,0-.1,0-.146a.579.579,0,0,0-.415-.513A.627.627,0,0,0,4,3.83c0,1.465,0,2.93,0,4.394M7.8,8.2v.4q0,2.008,0,4.016a.594.594,0,0,0,.415.639.629.629,0,0,0,.85-.655V3.85a.881.881,0,0,0,0-.146.58.58,0,0,0-.411-.513.627.627,0,0,0-.85.639Q7.8,6.015,7.8,8.2m5.078.02V3.805a.633.633,0,0,0-1.253-.151,1.228,1.228,0,0,0-.016.273v8.606a1.836,1.836,0,0,0,0,.212.577.577,0,0,0,.431.517.621.621,0,0,0,.834-.639v-4.4" transform="translate(1.083 5.821)" fill="#b2b2b2"/>
      <path id="Trazado_6495" data-name="Trazado 6495" d="M9.542,6.347q-4.291,0-8.585,0A2.828,2.828,0,0,1,.432,6.3.47.47,0,0,1,.017,5.83,11.135,11.135,0,0,1,.046,4.141a1.839,1.839,0,0,1,1.88-1.6c1.176-.008,2.356-.008,3.532,0a.25.25,0,0,0,.3-.208c.1-.346.22-.684.338-1.021A1.882,1.882,0,0,1,7.919,0c1.066,0,2.128,0,3.194,0a1.879,1.879,0,0,1,1.835,1.3c.126.354.244.7.354,1.062.041.142.106.179.252.179,1.156-.008,2.311,0,3.467,0a1.908,1.908,0,0,1,2.018,2.014V5.63a.649.649,0,0,1-.72.716H9.542M12.024,2.53c-.106-.313-.2-.614-.317-.907a.57.57,0,0,0-.557-.35c-1.086,0-2.169,0-3.255,0a.579.579,0,0,0-.57.37c-.114.285-.2.582-.305.887Z" transform="translate(-0.001 0)" fill="#b2b2b2"/>
    </g>
  </g>
</svg>
