<svg xmlns="http://www.w3.org/2000/svg" width="17.068" height="16.25" viewBox="0 0 17.068 16.25">
  <g id="Campana_" data-name="Campana " transform="translate(626.773 -424.19)">
    <path id="Trazado_5141" data-name="Trazado 5141" d="M-575.7,431.36a5.439,5.439,0,0,0-4.172-5.318v-.459a1.44,1.44,0,0,0-1.412-1.392,1.436,1.436,0,0,0-1.407,1.392v.459a5.44,5.44,0,0,0-4.173,5.318v4.471l-1.666,1.653v1.044h14.5v-1.044l-1.667-1.653Z" transform="translate(-36.954 0)" fill="#ff2626"/>
    <path id="Trazado_5142" data-name="Trazado 5142" d="M-465.15,765.953a1.4,1.4,0,0,0,1.393,1.4h.272a1.217,1.217,0,0,0,.984-.83,1.3,1.3,0,0,0,.14-.566v-.12h-2.79Z" transform="translate(-154.484 -326.91)" fill="#ff2626"/>
    <path id="Trazado_5143" data-name="Trazado 5143" d="M-625.249,432a5.179,5.179,0,0,1,2.242-3.99l.121-.081-1.07-1.07-.084.062a6.859,6.859,0,0,0-2.726,5.062l-.008.128h1.516Z" transform="translate(0 -2.583)" fill="#ff2626"/>
    <path id="Trazado_5144" data-name="Trazado 5144" d="M-332.032,432l.008.111h1.516l-.008-.128a6.823,6.823,0,0,0-2.665-5.062l-.083-.062-1.069,1.069.118.082A5.281,5.281,0,0,1-332.032,432Z" transform="translate(-279.197 -2.583)" fill="#ff2626"/>
  </g>
</svg>
