<?xml version="1.0" encoding="utf-8"?>
<!-- Generator: Adobe Illustrator 24.0.2, SVG Export Plug-In . SVG Version: 6.00 Build 0)  -->
<svg version="1.1" xmlns="http://www.w3.org/2000/svg" xmlns:xlink="http://www.w3.org/1999/xlink" x="0px" y="0px"
	 viewBox="0 0 54 35" style="enable-background:new 0 0 54 35;" xml:space="preserve">
<style type="text/css">
	.st0{fill:#D3262B;}
	.st1{fill:#FF7523;}
	.st2{fill:#FFFFFF;}
	.st3{fill:#F4F4F4;}
	.st4{fill:#FFFFFF;stroke:#30CC44;stroke-miterlimit:10;}
	.st5{fill:#30CC44;}
	.st6{fill:#606060;}
	.st7{fill:#0684F2;}
	.st8{fill:#FAFAFA;stroke:#DADADA;stroke-width:0.25;stroke-miterlimit:10;}
	.st9{fill:none;stroke:#4A4A49;stroke-width:0.25;stroke-miterlimit:10;}
	.st10{fill:#E6EEFA;}
	.st11{fill:#FE2725;}
	.st12{fill:#EDEDED;}
	.st13{fill:#00C65A;}
	.st14{fill:#E9E9E6;}
	.st15{opacity:0.75;}
	.st16{fill:#FF8800;}
	.st17{opacity:0.5;fill:none;stroke:#B2B2B2;stroke-miterlimit:10;}
	.st18{fill:none;stroke:#0444BF;stroke-width:0.75;stroke-miterlimit:10;}
	.st19{fill:#F5F9FF;}
	.st20{fill:none;stroke:#B2B2B2;stroke-width:0.25;stroke-miterlimit:10;}
	.st21{fill:none;stroke:#0AAFF1;stroke-miterlimit:10;}
	.st22{fill:#CFFFE6;}
	.st23{fill:none;stroke:#4A4A49;stroke-width:0.5;stroke-miterlimit:10;}
	.st24{fill:#CFFFE6;stroke:#4A4A49;stroke-width:0.5;stroke-linecap:round;stroke-linejoin:round;stroke-miterlimit:10;}
	.st25{fill:#5D5D5D;}
	.st26{fill:none;stroke:#0444BF;stroke-width:0.5;stroke-miterlimit:10;}
	.st27{opacity:0.3;fill:#0684F2;}
	.st28{fill:none;stroke:#0AAFF1;stroke-width:0.75;stroke-miterlimit:10;}
	.st29{fill:none;stroke:#4A4A49;stroke-miterlimit:10;}
	.st30{fill:#C0CFF0;}
	.st31{fill:#D6E8FB;}
	.st32{clip-path:url(#SVGID_10_);}
	.st33{fill:none;stroke:#0684F2;stroke-width:0.5;stroke-linecap:round;stroke-linejoin:round;stroke-miterlimit:10;}
	.st34{fill:none;stroke:#0684F2;stroke-linecap:round;stroke-linejoin:round;stroke-miterlimit:10;}
	.st35{fill:#CFFFE6;stroke:#0684F2;stroke-linecap:round;stroke-linejoin:round;stroke-miterlimit:10;}
	.st36{fill:#E02107;}
	.st37{fill:#FFC715;}
	.st38{fill:#2B9FE0;}
	.st39{fill:#8FC912;}
	.st40{fill:#F2F0E6;}
	.st41{fill:#014B8E;}
	.st42{fill:#F57D31;}
	.st43{fill:#EB001B;}
	.st44{fill:#F79E1B;}
	.st45{fill:#FF5F00;}
	.st46{fill:#306FC5;}
	.st47{fill:#00529E;}
	.st48{fill:#244298;}
	.st49{fill:#FBBA00;}
	.st50{fill:none;stroke:#494949;stroke-width:0.5;stroke-miterlimit:10;}
	.st51{fill:none;stroke:#494949;stroke-width:0.5;stroke-linecap:round;stroke-linejoin:round;stroke-miterlimit:10;}
	.st52{fill:#4A4A49;}
	.st53{clip-path:url(#SVGID_12_);fill:#026847;}
	.st54{clip-path:url(#SVGID_12_);fill:#FFFFFF;}
	.st55{clip-path:url(#SVGID_12_);fill:#E52421;}
	.st56{clip-path:url(#SVGID_14_);fill:#006847;}
	.st57{clip-path:url(#SVGID_14_);fill:#ECE13C;}
	.st58{clip-path:url(#SVGID_14_);fill:#CF2011;}
	.st59{clip-path:url(#SVGID_16_);fill:#F8CD16;}
	.st60{clip-path:url(#SVGID_16_);fill:#00388F;}
	.st61{clip-path:url(#SVGID_16_);fill:#CA1126;}
	.st62{clip-path:url(#SVGID_18_);fill:#E52421;}
	.st63{clip-path:url(#SVGID_18_);fill:#FFFFFF;}
	.st64{fill:#00C356;}
	.st65{fill:#FFA2B0;}
	.st66{fill:none;stroke:#FFFFFF;stroke-linecap:round;stroke-linejoin:round;stroke-miterlimit:10;}
	.st67{fill:#0444BF;}
	.st68{fill:#F2F6FF;}
	.st69{fill:#E7E7E7;}
	.st70{fill:#878787;}
	.st71{fill:#B2B2B2;}
	.st72{fill:#FF4E55;}
	.st73{fill:#FF894B;}
	.st74{fill:#FF7012;}
	.st75{fill:#FFF8F0;}
	.st76{fill:#FFF1E3;}
	.st77{fill:#0669BF;}
	.st78{fill:#F7F4ED;}
	.st79{fill:#F5F1E5;}
	.st80{fill:#F5EEE1;}
	.st81{fill:#F4F4F4;stroke:#4A4A49;stroke-width:0.5;stroke-miterlimit:10;}
	.st82{fill:none;stroke:#FFFFFF;stroke-miterlimit:10;}
	.st83{fill:none;stroke:#B2B2B2;stroke-width:0.5;stroke-miterlimit:10;}
	.st84{opacity:0.5;}
	.st85{fill:none;stroke:#30CC44;stroke-width:3;stroke-miterlimit:10;}
	.st86{opacity:0.5;fill:#005873;}
	.st87{fill:none;stroke:#30CC44;stroke-width:0.75;stroke-miterlimit:10;}
	.st88{fill:none;stroke:#30CC44;stroke-width:2;stroke-linecap:round;stroke-miterlimit:10;}
	.st89{fill:#F4F4F4;stroke:#30CC44;stroke-miterlimit:10;}
	.st90{fill:#30CC44;stroke:#F4F4F4;stroke-miterlimit:10;}
	.st91{fill:none;stroke:#30CC44;stroke-width:2;stroke-miterlimit:10;}
	.st92{fill:none;stroke:#30CC44;stroke-width:2;stroke-linecap:round;stroke-linejoin:round;stroke-miterlimit:10;}
	.st93{fill:none;stroke:#30CC44;stroke-miterlimit:10;}
	.st94{fill:#F1F1EE;}
	.st95{fill:#C1C1BF;}
	.st96{fill:#F0EAE1;}
	.st97{fill:#00AED6;}
	.st98{fill:#E4FF6F;}
	.st99{opacity:0.5;fill:#00AED6;}
	.st100{fill:none;stroke:#00AED6;stroke-width:2.75;stroke-miterlimit:10;}
	.st101{fill:none;stroke:#00AED6;stroke-width:2.75;stroke-linecap:round;stroke-linejoin:round;stroke-miterlimit:10;}
	.st102{opacity:0.5;fill:none;stroke:#00AED6;stroke-width:1.75;stroke-miterlimit:10;}
	.st103{fill:#203F6C;}
	.st104{fill:#F4B300;}
	.st105{fill:#0A1837;}
	.st106{fill-rule:evenodd;clip-rule:evenodd;fill:#0A1837;}
	.st107{fill-rule:evenodd;clip-rule:evenodd;fill:#00AAC8;}
	.st108{fill-rule:evenodd;clip-rule:evenodd;fill:#CC007B;}
	.st109{clip-path:url(#SVGID_20_);}
	.st110{fill:#E52421;}
	.st111{fill:#FFC200;}
	.st112{clip-path:url(#SVGID_22_);}
	.st113{fill:#F9DCA4;}
	.st114{fill:#DEC492;}
	.st115{fill:#677079;}
	.st116{fill:#FFE8BE;}
	.st117{fill:#434955;}
	.st118{fill:#1D1D1D;}
	.st119{fill:#FF8610;}
	.st120{fill:#AFCA13;}
	.st121{fill:none;stroke:#FFFFFF;stroke-width:0.5;stroke-miterlimit:10;}
	.st122{clip-path:url(#SVGID_23_);fill:#FFFFFF;}
	.st123{clip-path:url(#SVGID_23_);fill:#E52421;}
	.st124{clip-path:url(#SVGID_23_);fill:#0035A9;}
	.st125{fill:#2EC8FF;}
	.st126{clip-path:url(#SVGID_25_);}
	.st127{fill:#AFCA0A;}
	.st128{fill:#0454CA;}
	.st129{clip-path:url(#SVGID_27_);}
</style>
<g id="base">
	<path class="st0" d="M50,35H4c-2.21,0-4-1.79-4-4V4c0-2.21,1.79-4,4-4h46c2.21,0,4,1.79,4,4v27C54,33.21,52.21,35,50,35z"/>
	<path class="st2" d="M26.88,12.94c7.8,0,14.29,2.98,15.56,6.9c0.16-0.47,0.25-0.93,0.25-1.43c0-4.6-7.08-8.36-15.84-8.36
		c-8.73,0-15.84,3.73-15.84,8.36c0,0.5,0.09,0.96,0.25,1.43C12.59,15.92,19.08,12.94,26.88,12.94z M26.88,8
		c7.8,0,14.29,2.98,15.56,6.9c0.16-0.47,0.25-0.93,0.25-1.43c0.03-4.63-7.05-8.36-15.81-8.36c-8.73,0-15.84,3.73-15.84,8.36
		c0,0.5,0.09,0.96,0.25,1.43C12.59,10.98,19.08,8,26.88,8z M33.37,27.97l-3.23-4.16h-1.55v6.18h1.49v-4.04l3.2,4.04h1.58v-6.18
		h-1.49V27.97z M9.05,28.72c-0.31,0.22-0.68,0.31-1.09,0.31c-0.56,0-1.06-0.16-1.4-0.5c-0.37-0.34-0.53-0.9-0.53-1.68
		c0-0.75,0.19-1.27,0.56-1.58c0.37-0.34,0.84-0.5,1.43-0.5c0.43,0,0.78,0.09,1.09,0.28c0.28,0.19,0.5,0.43,0.59,0.75l1.58-0.28
		c-0.19-0.5-0.43-0.87-0.81-1.15c-0.59-0.43-1.4-0.65-2.36-0.65C7,23.72,6.13,24,5.45,24.55c-0.75,0.59-1.09,1.37-1.09,2.42
		c0,0.96,0.34,1.74,1.03,2.3c0.68,0.56,1.52,0.84,2.58,0.84c0.84,0,1.55-0.16,2.11-0.5c0.56-0.34,0.93-0.84,1.18-1.52L9.7,27.72
		C9.55,28.19,9.33,28.5,9.05,28.72z M43.37,23.81v1.06h2.36v5.13h1.58v-5.13h2.33v-1.06C49.65,23.81,43.37,23.81,43.37,23.81z
		 M38.15,27.29h3.98v-1.06h-3.98v-1.37h4.26v-1.06h-5.84v6.18h5.99v-1.06h-4.41V27.29z M25.82,27.79c-0.22-0.19-0.5-0.37-0.84-0.53
		c0.68-0.09,1.21-0.28,1.55-0.56c0.34-0.31,0.53-0.68,0.53-1.15c0-0.37-0.12-0.68-0.34-0.96s-0.53-0.5-0.93-0.59
		c-0.37-0.12-0.99-0.16-1.83-0.16H20.6v6.18h1.58v-2.58h0.31c0.37,0,0.62,0.03,0.81,0.06c0.16,0.03,0.34,0.12,0.47,0.25
		c0.16,0.12,0.43,0.43,0.84,0.9l1.15,1.34h1.89l-0.96-1.21C26.35,28.31,26.07,27.97,25.82,27.79z M23.37,26.45h-1.18v-1.58h1.24
		c0.65,0,1.03,0,1.15,0.03c0.25,0.03,0.47,0.12,0.59,0.25c0.16,0.12,0.22,0.31,0.22,0.5c0,0.19-0.06,0.34-0.16,0.47
		c-0.09,0.12-0.25,0.22-0.43,0.25C24.61,26.42,24.14,26.45,23.37,26.45z M14.89,23.81l-3.08,6.18h1.71l0.65-1.4h3.17l0.68,1.4h1.74
		l-3.17-6.18H14.89z M14.64,27.54l1.06-2.3l1.09,2.3H14.64z"/>
</g>
<g id="guías">
</g>
</svg>
