<svg id="Grupo_3947" data-name="Grupo 3947" xmlns="http://www.w3.org/2000/svg" xmlns:xlink="http://www.w3.org/1999/xlink" width="47" height="47" viewBox="0 0 47 47">
  <defs>
    <clipPath id="clip-path">
      <rect id="Rect치ngulo_11356" data-name="Rect치ngulo 11356" width="22.604" height="22.879" fill="#f8893f"/>
    </clipPath>
  </defs>
  <g id="Grupo_3941" data-name="Grupo 3941">
    <rect id="Rect치ngulo_11359" data-name="Rect치ngulo 11359" width="47" height="47" rx="9" fill="rgba(248,137,63,0.2)"/>
    <g id="Grupo_3922" data-name="Grupo 3922" transform="translate(14.689 11.623)">
      <g id="Grupo_3915" data-name="Grupo 3915" clip-path="url(#clip-path)">
        <path id="Trazado_6411" data-name="Trazado 6411" d="M0,0H12.689q0,1.856,0,3.711c0,.5.123.622.615.622h3.417c.079,0,.158.006.251.011V4.61c0,1.416,0,2.832,0,4.247a.571.571,0,0,1-.181.449q-1.977,1.972-3.94,3.961a1.155,1.155,0,0,0-.251.408c-.17.468-.33.939-.47,1.416a.319.319,0,0,1-.369.271q-4.355-.012-8.711,0a1.988,1.988,0,0,0-.333.021.4.4,0,0,0-.334.412.408.408,0,0,0,.377.4c.088.009.179.006.267.006h8.7c-.017.45-.461.829-.09,1.3H3.031a1.506,1.506,0,0,0-.331.031.39.39,0,0,0-.295.493c.053.222.207.319.515.32h8.912c.774,0,1.549,0,2.323,0a.422.422,0,0,0,.453-.4.431.431,0,0,0-.4-.431,1.433,1.433,0,0,0-.222-.012H12.4c-.051,0-.1-.011-.209-.023.106-.039.154-.058.2-.074.979-.326,1.958-.648,2.934-.982a1.029,1.029,0,0,0,.371-.229c.374-.363.735-.74,1.1-1.111.043-.043.092-.079.154-.131v7.935H.007V.312C.007.208,0,.1,0,0M8.466,20.481H14a1.5,1.5,0,0,0,.223-.007.435.435,0,0,0,.382-.4.418.418,0,0,0-.338-.412,1.245,1.245,0,0,0-.286-.027q-5.493,0-10.986,0a1.25,1.25,0,0,0-.329.04.375.375,0,0,0-.281.385.37.37,0,0,0,.257.38,1.079,1.079,0,0,0,.328.042q2.746,0,5.493,0M5.841,13.224H2.982c-.4,0-.591.131-.6.41s.194.426.6.426H8.664a1.737,1.737,0,0,0,.245-.014.391.391,0,0,0,.345-.4c0-.265-.17-.421-.487-.422-.975,0-1.951,0-2.926,0" transform="translate(0 0)" fill="#f8893f"/>
        <path id="Trazado_6414" data-name="Trazado 6414" d="M35.724,19.047,30.334,24.41l-1.626-1.622,5.362-5.4,1.654,1.657" transform="translate(-14.995 -9.084)" fill="#f8893f"/>
        <path id="Trazado_6415" data-name="Trazado 6415" d="M42.6,13.445l1.608,1.612L42.955,16.3l-1.6-1.6,1.24-1.255" transform="translate(-21.604 -7.023)" fill="#f8893f"/>
        <path id="Trazado_6416" data-name="Trazado 6416" d="M28.377,1.41,31.113,4.2H28.377Z" transform="translate(-14.823 -0.737)" fill="#f8893f"/>
        <path id="Trazado_6417" data-name="Trazado 6417" d="M28.271,31.67l-1.957.656.652-1.96,1.3,1.3" transform="translate(-13.745 -15.862)" fill="#f8893f"/>
      </g>
    </g>
  </g>
</svg>
