<svg xmlns="http://www.w3.org/2000/svg" xmlns:xlink="http://www.w3.org/1999/xlink" width="47" height="47" viewBox="0 0 47 47">
  <defs>
    <clipPath id="clip-path">
      <rect id="Rect치ngulo_11378" data-name="Rect치ngulo 11378" width="31.215" height="31.167" fill="#ff2626"/>
    </clipPath>
  </defs>
  <g id="Grupo_4115" data-name="Grupo 4115" transform="translate(-729 -244)">
    <g id="Grupo_3945" data-name="Grupo 3945" transform="translate(-121 -319)">
      <rect id="Rect치ngulo_11358" data-name="Rect치ngulo 11358" width="47" height="47" rx="9" transform="translate(850 563)" fill="rgba(255,38,38,0.2)"/>
      <g id="Grupo_3954" data-name="Grupo 3954" transform="translate(859 567.4)">
        <g id="Grupo_3954-2" data-name="Grupo 3954" transform="translate(0 0)" clip-path="url(#clip-path)">
          <path id="Trazado_6418" data-name="Trazado 6418" d="M8.794,19.426A10.608,10.608,0,0,0,.3,27.319c-.123.529-.2,1.069-.3,1.6v1.826c.1.524.179,1.052.3,1.571a10.061,10.061,0,0,0,2.179,4.287.379.379,0,0,1,.043.506,4.545,4.545,0,0,1-2.1,1.957A2.561,2.561,0,0,0,0,39.39v.365a2.716,2.716,0,0,0,1.391.542l.255.066h1.28c.263-.062.528-.117.789-.188a5.556,5.556,0,0,0,1.762-.854.409.409,0,0,1,.34-.059,10.8,10.8,0,0,0,3.708,1.052.377.377,0,0,1,.108.048h1.829c.466-.083.936-.149,1.4-.25A10.544,10.544,0,0,0,8.794,19.426M9.179,29H7.326v.836H8.961v1.083H7.326v.923H9.179v1.141H5.9V27.856H9.179Zm5.452,3.984H13.207l-1.9-2.864v2.864H9.885V27.856h1.425l1.9,2.9v-2.9h1.425Z" transform="translate(0 -9.196)" fill="#ff2626"/>
          <path id="Trazado_6419" data-name="Trazado 6419" d="M40.492,11.925c.022-.159.051-.317.077-.475V9.684a2.185,2.185,0,0,1-.058-.26,10.1,10.1,0,0,0-.921-3.316A10.547,10.547,0,0,0,28.625.092a10.328,10.328,0,0,0-6.6,3.551,10.379,10.379,0,0,0-2.4,4.972.476.476,0,0,0,.349.561.455.455,0,0,0,.541-.327,3.076,3.076,0,0,0,.074-.325,9.636,9.636,0,1,1,16.522,8.52.559.559,0,0,0-.116.716c.278.48.55.967.867,1.42a12.009,12.009,0,0,0,.823.969h-.012a4.411,4.411,0,0,1-3.316-1.1.494.494,0,0,0-.606-.124,10.516,10.516,0,0,1-2.987,1.082.454.454,0,0,0-.384.531.481.481,0,0,0,.6.361,9.879,9.879,0,0,0,2.671-.89.4.4,0,0,1,.482.046,5.241,5.241,0,0,0,4.939.715,2.388,2.388,0,0,0,.5-.318v-.365a3.094,3.094,0,0,0-.436-.307A4.528,4.528,0,0,1,38.025,17.8a.323.323,0,0,1,.036-.429,10.506,10.506,0,0,0,2.431-5.442" transform="translate(-9.354 0)" fill="#ff2626"/>
          <path id="Trazado_6420" data-name="Trazado 6420" d="M36.025,19.813a.473.473,0,0,0-.457-.467.491.491,0,0,0-.468.464.474.474,0,0,0,.465.459.447.447,0,0,0,.459-.456" transform="translate(-16.741 -9.226)" fill="#ff2626"/>
          <path id="Trazado_6421" data-name="Trazado 6421" d="M39.523,19.8a.475.475,0,0,0-.473-.451.492.492,0,0,0-.451.479.473.473,0,0,0,.48.443.447.447,0,0,0,.445-.471" transform="translate(-18.409 -9.227)" fill="#ff2626"/>
          <path id="Trazado_6422" data-name="Trazado 6422" d="M42.567,20.27a.446.446,0,0,0,.452-.463.473.473,0,0,0-.464-.459.49.49,0,0,0-.46.472.474.474,0,0,0,.472.451" transform="translate(-20.076 -9.227)" fill="#ff2626"/>
        </g>
      </g>
    </g>
  </g>
</svg>
