<?xml version="1.0" encoding="utf-8"?>
<!-- Generator: Adobe Illustrator 26.2.1, SVG Export Plug-In . SVG Version: 6.00 Build 0)  -->
<svg version="1.1" id="Layer_1" xmlns="http://www.w3.org/2000/svg" xmlns:xlink="http://www.w3.org/1999/xlink" x="0px" y="0px"
	 viewBox="0 0 19 19" style="enable-background:new 0 0 19 19;" xml:space="preserve">
<style type="text/css">
	.st0{fill:#FFFFFF;}
	.st1{fill:#E70012;}
	.st2{fill:none;}
	.st3{fill:#053AA2;}
</style>
<g>
	<g>
		<path class="st0" d="M19,9.5H0c0-0.02,0-0.04,0-0.06c0.03-4.6,3.33-8.43,7.7-9.26C8.28,0.06,8.88,0,9.5,0C14.75,0,19,4.25,19,9.5z
			"/>
		<path class="st1" d="M9.5,19C4.25,19,0,14.75,0,9.5h19C19,14.75,14.75,19,9.5,19z"/>
		<path class="st2" d="M19,9.5c0,5.25-4.25,9.5-9.5,9.5C4.25,19,0,14.75,0,9.5c0-0.02,0-0.04,0-0.06c0.03-4.6,3.33-8.43,7.7-9.26
			C8.28,0.06,8.88,0,9.5,0C14.75,0,19,4.25,19,9.5z"/>
	</g>
	<path class="st3" d="M7.7,0.17v9.26H0C0.03,4.83,3.33,1.01,7.7,0.17z"/>
	<polygon class="st0" points="6.48,5.5 4.95,5.26 4.28,3.86 3.58,5.24 2.05,5.45 3.15,6.54 2.87,8.06 4.25,7.36 5.61,8.09 
		5.36,6.56 	"/>
</g>
</svg>
