<?xml version="1.0" encoding="UTF-8"?>
<svg id="Capa_1" data-name="Capa 1" xmlns="http://www.w3.org/2000/svg" version="1.1" viewBox="0 0 15 15">
  <defs>
    <style>
      .cls-1 {
        fill: #fff;
      }

      .cls-1, .cls-2 {
        stroke-width: 0px;
      }

      .cls-2 {
        fill: #ff0019;
      }
    </style>
  </defs>
  <path class="cls-2" d="M15,7.5c0,4.1-3.4,7.5-7.5,7.5S0,11.6,0,7.5,3.4,0,7.5,0s7.5,3.4,7.5,7.5Z"/>
  <path class="cls-1" d="M8.2,7.5l2.8-2.8c.2-.2.2-.5,0-.7-.2-.2-.5-.2-.7,0l-2.8,2.8-2.8-2.8c-.2-.2-.5-.2-.7,0-.2.2-.2.5,0,.7l2.8,2.8-2.8,2.8c-.2.2-.2.5,0,.7,0,.1.2.1.3.1s.3,0,.3-.1l2.8-2.8,2.8,2.8c.1.1.2.1.4.1s.3,0,.4-.1c.2-.2.2-.5,0-.7l-2.8-2.8Z"/>
</svg>