<svg xmlns="http://www.w3.org/2000/svg" xmlns:xlink="http://www.w3.org/1999/xlink" width="47" height="47" viewBox="0 0 47 47">
  <defs>
    <clipPath id="clip-path">
      <rect id="Rect치ngulo_11355" data-name="Rect치ngulo 11355" width="28.628" height="25.173" fill="#4A4A49"/>
    </clipPath>
  </defs>
  <g id="Grupo_4112" data-name="Grupo 4112" transform="translate(-729 -244)">
    <g id="Grupo_3945" data-name="Grupo 3945" transform="translate(-121 -319)">
      <rect id="Rect치ngulo_11358" data-name="Rect치ngulo 11358" width="47" height="47" rx="9" transform="translate(850 563)" fill="white"/>
      <g id="Grupo_3919" data-name="Grupo 3919" transform="translate(859.475 574.328)">
        <g id="Grupo_3913" data-name="Grupo 3913" transform="translate(0 0)" clip-path="url(#clip-path)">
          <path id="Trazado_6408" data-name="Trazado 6408" d="M0,7.316a1.279,1.279,0,0,1,.687-.651Q7.259,3.4,13.822.128a1.02,1.02,0,0,1,.983,0q6.625,3.3,13.254,6.6a.87.87,0,0,1,.569.817.859.859,0,0,1-.577.811c-.329.152-.659.3-.977.476a.363.363,0,0,0-.171.259c-.01,1.985,0,3.97-.014,5.954,0,.191.1.225.23.286A2.516,2.516,0,1,1,23.662,18.4a2.49,2.49,0,0,1,1.305-3.049.376.376,0,0,0,.256-.412c-.009-1.621,0-3.243,0-4.864V9.753c-.135.065-.241.113-.345.165Q19.9,12.4,14.932,14.9a1.249,1.249,0,0,1-1.236,0Q7.149,11.614.588,8.365A1.213,1.213,0,0,1,0,7.763Z" transform="translate(0 0)" fill="#4A4A49"/>
          <path id="Trazado_6409" data-name="Trazado 6409" d="M27.114,21.994c-.26,1.07-.507,2.087-.757,3.1-.119.487-.252.971-.361,1.46a1.057,1.057,0,0,1-.44.652A11.792,11.792,0,0,1,20.135,29.4a11.95,11.95,0,0,1-8.769-2.159,1.163,1.163,0,0,1-.491-.712c-.353-1.471-.721-2.938-1.083-4.407a.572.572,0,0,1,0-.1c.1.043.18.077.259.117q3.925,1.96,7.846,3.927a1.106,1.106,0,0,0,1.083,0q3.947-1.985,7.9-3.953l.23-.114" transform="translate(-4.127 -9.271)" fill="#4A4A49"/>
          <path id="Trazado_6410" data-name="Trazado 6410" d="M40.813,36.37a4.157,4.157,0,0,0,4.774,0,2.408,2.408,0,0,1-.021,1.651,4.82,4.82,0,0,1-1.913,2.332.736.736,0,0,1-.869.018,4.468,4.468,0,0,1-2.07-2.822,2.073,2.073,0,0,1,.1-1.177" transform="translate(-17.143 -15.329)" fill="#4A4A49"/>
        </g>
      </g>
    </g>
  </g>
</svg>
