<svg id="Grupo_4113" data-name="Grupo 4113" xmlns="http://www.w3.org/2000/svg" xmlns:xlink="http://www.w3.org/1999/xlink" width="47" height="47" viewBox="0 0 47 47">
  <defs>
    <clipPath id="clip-path">
      <rect id="Rect치ngulo_11354" data-name="Rect치ngulo 11354" width="24.772" height="21.83" fill="#0684F2"/>
    </clipPath>
  </defs>
  <g id="Grupo_3948" data-name="Grupo 3948">
    <rect id="Rect치ngulo_11360" data-name="Rect치ngulo 11360" width="47" height="47" rx="9" fill="white"/>
    <g id="Grupo_3923" data-name="Grupo 3923" transform="translate(11.328 12.377)">
      <g id="Grupo_3911" data-name="Grupo 3911" transform="translate(0 0)" clip-path="url(#clip-path)">
        <path id="Trazado_6407" data-name="Trazado 6407" d="M18.3,21.829H17.9L15.935,20.6l-2.016,1.226h-.361a.805.805,0,0,1-.5-.84c.018-1.009.006-2.017.006-3.026v-.233h-.329q-5.908,0-11.814.005A.907.907,0,0,1,0,17.269V.474A.832.832,0,0,1,.862,0Q11.6.012,22.342.005c.547,0,.795.235.795.754q0,8.1.007,16.192a.746.746,0,0,1-.832.785c-1.091-.015-2.183-.005-3.275-.005h-.246c0,1.1-.009,2.166,0,3.231a.832.832,0,0,1-.5.868m.466-7.484a2.853,2.853,0,0,0-5.7-.006,2.773,2.773,0,0,0,2.838,2.684,2.754,2.754,0,0,0,2.858-2.677m-7.2-8.962h6.167c.143,0,.287,0,.429,0a.627.627,0,0,0,.6-.544.615.615,0,0,0-.472-.685,1.8,1.8,0,0,0-.382-.023q-6.338,0-12.675,0a2.751,2.751,0,0,0-.293.01.614.614,0,0,0-.562.549c-.036.42.25.7.732.7q3.23,0,6.461,0M9.4,8.23q-2.169,0-4.337,0a.644.644,0,0,0-.691.568.618.618,0,0,0,.6.69,4.177,4.177,0,0,0,.5.013q4.043,0,8.086-.005a1.314,1.314,0,0,0,.578-.131.558.558,0,0,0,.247-.689.651.651,0,0,0-.666-.445q-2.158,0-4.315,0M7.2,13.6c.707,0,1.413,0,2.12,0a.668.668,0,0,0,.738-.618.656.656,0,0,0-.71-.649q-2.143-.013-4.285,0a.633.633,0,0,0-.7.653.651.651,0,0,0,.734.614q1.049,0,2.1,0" transform="translate(0 0)" fill="#0684F2"/>
      </g>
    </g>
  </g>
</svg>
