<svg xmlns="http://www.w3.org/2000/svg" width="21" height="21.658" viewBox="0 0 21 21.658">
  <g id="Editar_-_Invisible" data-name="Editar - Invisible" transform="translate(-766.625 -537.141)">
    <path id="Trazado_6156" data-name="Trazado 6156" d="M784.251,555.653a.772.772,0,0,1-.771.772H769.77a.772.772,0,0,1-.771-.772V541.944a.772.772,0,0,1,.771-.771H777.6V538.8H769.77a3.149,3.149,0,0,0-3.145,3.112h0v13.742a3.149,3.149,0,0,0,3.106,3.146H783.48a3.149,3.149,0,0,0,3.145-3.123V547.82h-2.374Z" fill="#b2b2b2"/>
    <g id="Grupo_4115" data-name="Grupo 4115" transform="translate(773.021 537.141)">
      <g id="Grupo_3028" data-name="Grupo 3028" transform="translate(0 2.236)">
        <g id="Grupo_3027" data-name="Grupo 3027">
          <path id="Trazado_6118" data-name="Trazado 6118" d="M714.664,447.682h-3.131V444.55l9.237-9.237,3.131,3.131Z" transform="translate(-711.532 -435.313)" fill="#b2b2b2"/>
        </g>
      </g>
      <g id="Grupo_3030" data-name="Grupo 3030" transform="translate(10.333 0)">
        <g id="Grupo_3029" data-name="Grupo 3029">
          <path id="Trazado_6119" data-name="Trazado 6119" d="M726.3,432.775l-.616.616,3.131,3.132.616-.616a1.785,1.785,0,0,0,0-2.525l-.606-.607A1.785,1.785,0,0,0,726.3,432.775Z" transform="translate(-725.684 -432.252)" fill="#b2b2b2"/>
        </g>
      </g>
    </g>
  </g>
</svg>
