<?xml version="1.0" encoding="utf-8"?>
<!-- Generator: Adobe Illustrator 26.2.1, SVG Export Plug-In . SVG Version: 6.00 Build 0)  -->
<svg version="1.1" id="Capa_1" xmlns="http://www.w3.org/2000/svg" xmlns:xlink="http://www.w3.org/1999/xlink" x="0px" y="0px"
	 viewBox="0 0 17.5 20" style="enable-background:new 0 0 17.5 20;" xml:space="preserve">
<style type="text/css">
	.st0{fill:#0684F2;}
	.st1{fill:#3D3A3B;}
	.st2{fill:#FFFFFF;}
	.st3{fill:#4A4A49;}
	.st4{fill:#FF67FE;}
	.st5{fill:#30FF88;}
	.st6{fill:#878787;}
	.st7{fill:#EEBEA8;}
	.st8{fill:none;stroke:#FFFFFF;stroke-width:1.25;stroke-linecap:round;stroke-miterlimit:10;}
	.st9{fill:none;stroke:#FFFFFF;stroke-linecap:round;stroke-miterlimit:10;}
	.st10{fill:none;stroke:#4A4A49;stroke-linecap:round;stroke-miterlimit:10;}
	.st11{fill:#D3E7FF;}
	.st12{fill:none;stroke:#EEBEA8;stroke-width:2;stroke-linecap:round;stroke-linejoin:round;stroke-miterlimit:10;}
	.st13{fill:#4A4A49;stroke:#EEBEA8;stroke-miterlimit:10;}
	.st14{fill:#6300D3;}
	.st15{fill:#0068E6;}
	.st16{fill:#FF7012;}
	.st17{fill:none;stroke:#FF8720;stroke-miterlimit:10;}
	.st18{fill-rule:evenodd;clip-rule:evenodd;fill:#FF7012;}
	.st19{fill-rule:evenodd;clip-rule:evenodd;fill:#FFFFFF;}
	.st20{fill:none;stroke:#4A4A49;stroke-width:1.25;stroke-linecap:round;stroke-miterlimit:10;}
	.st21{fill:none;stroke:#69C6FF;stroke-width:1.25;stroke-miterlimit:10;}
	.st22{fill:none;stroke:#EEBEA8;stroke-width:1.5;stroke-linecap:round;stroke-miterlimit:10;}
	.st23{fill:none;stroke:#8759FF;stroke-width:0.25;stroke-miterlimit:10;}
	.st24{fill:none;stroke:#EEBEA8;stroke-width:1.25;stroke-miterlimit:10;}
	.st25{fill:#4A4A49;stroke:#EEBEA8;stroke-width:1.25;stroke-miterlimit:10;}
	.st26{fill:none;stroke:#4A4A49;stroke-width:1.25;stroke-miterlimit:10;}
	.st27{fill:none;stroke:#FFFFFF;stroke-width:1.25;stroke-linecap:round;stroke-linejoin:round;stroke-miterlimit:10;}
	.st28{fill:none;}
	.st29{fill-rule:evenodd;clip-rule:evenodd;}
	.st30{fill:none;stroke:#000000;stroke-width:2.800000e-04;stroke-miterlimit:22.9256;}
	.st31{fill:#FF0000;}
	.st32{fill:none;stroke:#FF0000;stroke-width:2.800000e-04;stroke-miterlimit:22.9256;}
	.st33{fill:none;stroke:#FFFFFF;stroke-width:2.800000e-04;stroke-miterlimit:22.9256;}
	.st34{fill:#00C356;}
	.st35{fill:none;stroke:#FFFFFF;stroke-width:2;stroke-linecap:round;stroke-linejoin:round;}
	.st36{fill:#FFCF00;}
	.st37{fill:none;stroke:#FF67FE;stroke-width:2;stroke-miterlimit:22.9256;}
	.st38{fill:none;stroke:#FFCF00;stroke-width:2;stroke-miterlimit:22.9256;}
	.st39{fill-rule:evenodd;clip-rule:evenodd;fill:#00C356;}
	.st40{fill-rule:evenodd;clip-rule:evenodd;fill:#878787;}
	.st41{fill:#FF0303;}
	.st42{fill:#AAACFF;}
	.st43{fill:none;stroke:#FFF11B;stroke-width:1.25;stroke-miterlimit:10;}
	.st44{fill:#5D56FF;}
	.st45{fill:none;stroke:#FFF11B;stroke-width:2;stroke-miterlimit:10;}
	.st46{fill:none;stroke:#FFFFFF;stroke-linecap:round;stroke-linejoin:round;stroke-miterlimit:10;}
	.st47{fill:#CFA73E;}
	.st48{fill:#FFC336;}
	.st49{fill:#FF9A3E;}
	.st50{fill:none;stroke:#FFD6B5;stroke-width:1.25;stroke-linecap:round;stroke-miterlimit:10;}
	.st51{fill:none;stroke:#606060;stroke-width:1.25;stroke-linecap:round;stroke-miterlimit:10;}
	.st52{fill:#606060;}
	.st53{fill:none;stroke:#606060;stroke-width:1.25;stroke-miterlimit:10;}
</style>
<g>
	<path class="st3" d="M5.66,3.28V0L0,5.66h3.29C4.59,5.66,5.66,4.59,5.66,3.28z"/>
	<path class="st3" d="M14.5,0H6.91v3.28c0,2-1.63,3.62-3.62,3.62H0V17c0,1.66,1.34,3,3,3h11.5c1.66,0,3-1.34,3-3V3
		C17.5,1.34,16.16,0,14.5,0z"/>
	<g>
		<path class="st2" d="M15.86,8.46c-0.24,0.3-0.47,0.6-0.68,0.88c-0.09,0.12-0.18,0.24-0.27,0.36c-0.07,0.1-0.15,0.2-0.22,0.3
			c-0.09,0.12-0.18,0.24-0.27,0.36l-0.19,0.27h0l-0.54,0.76l-0.35,0.52c-0.04,0.06-0.08,0.12-0.12,0.17
			c-0.08,0.11-0.15,0.23-0.22,0.35l-0.41,0.66c-0.08,0.13-0.16,0.26-0.23,0.4c-0.05,0.08-0.09,0.17-0.14,0.25
			c-0.15,0.27-0.31,0.55-0.45,0.83l-0.28,0.55c-0.03,0.06-0.06,0.12-0.09,0.18c-0.06,0.12-0.12,0.25-0.18,0.37l-0.19,0.42
			l-0.75,1.68c-0.03,0.06-0.09,0.1-0.15,0.11c0,0-0.01,0-0.01,0c-0.06,0-0.12-0.03-0.15-0.09l-0.58-0.91
			c-0.11-0.17-0.24-0.37-0.36-0.56l-0.02-0.04c-0.05-0.08-0.11-0.16-0.17-0.24c-0.04-0.06-0.09-0.12-0.13-0.17l-0.28-0.35
			c-0.04-0.05-0.09-0.1-0.14-0.15c-0.03-0.03-0.06-0.06-0.08-0.09L8,15.06c-0.05-0.05-0.11-0.1-0.16-0.15
			c-0.02-0.02-0.05-0.04-0.07-0.07l-0.24-0.21c-0.02-0.02-0.05-0.04-0.07-0.05c-0.03-0.02-0.06-0.05-0.09-0.07
			c-0.03-0.02-0.06-0.05-0.09-0.07c-0.01-0.01-0.01-0.01-0.02-0.02c-0.02-0.02-0.05-0.03-0.07-0.05c-0.05-0.04-0.11-0.08-0.16-0.12
			l-0.29-0.2c-0.08-0.05-0.16-0.11-0.24-0.15c-0.04-0.02-0.07-0.04-0.11-0.07c-0.06-0.04-0.11-0.07-0.17-0.11
			c-0.06-0.04-0.13-0.08-0.19-0.12l-0.1-0.06c-0.03-0.02-0.06-0.04-0.09-0.06c-0.03-0.02-0.05-0.03-0.08-0.05
			c-0.04-0.03-0.07-0.07-0.08-0.13c-0.01-0.05,0.01-0.1,0.04-0.15l1.34-1.61c0.03-0.04,0.08-0.06,0.13-0.07
			c0.05,0,0.1,0.01,0.14,0.05c0.03,0.02,0.05,0.05,0.08,0.07c0.03,0.02,0.05,0.05,0.08,0.07l0.08,0.08
			c0.06,0.05,0.12,0.11,0.18,0.17c0.19,0.18,0.37,0.36,0.54,0.56l0.26,0.29c0.06,0.07,0.11,0.13,0.16,0.2l0.08,0.1
			c0.03,0.04,0.05,0.07,0.08,0.1c0.05,0.07,0.1,0.13,0.15,0.2l0.21,0.31c0.03,0.04,0.05,0.08,0.08,0.12
			c0.04,0.06,0.09,0.13,0.13,0.19l0.26,0.42c0.04,0.07,0.09,0.14,0.13,0.21l0.12,0.21h0l0.05,0.09c0.04-0.08,0.08-0.16,0.11-0.24
			c0.03-0.06,0.06-0.12,0.08-0.17l0.27-0.58c0.07-0.15,0.15-0.31,0.23-0.46l0.35-0.69c0.06-0.12,0.12-0.24,0.19-0.36
			c0.04-0.07,0.07-0.14,0.11-0.21l0.3-0.57l0.61-1.12l0.61-1.11c0.07-0.13,0.14-0.26,0.21-0.39c0.13-0.24,0.26-0.48,0.38-0.72
			c0.16-0.31,0.33-0.65,0.5-0.99c0.02-0.05,0.06-0.08,0.11-0.1c0.05-0.01,0.1-0.01,0.14,0.02c0,0,0,0,0,0l1.03,0.59l0.59,0.34
			c0.05,0.03,0.08,0.07,0.09,0.12C15.91,8.36,15.9,8.42,15.86,8.46z"/>
		<path class="st2" d="M8.27,3.9h6.11C14.72,3.9,15,4.18,15,4.53s-0.28,0.62-0.62,0.62H8.27c-0.34,0-0.62-0.28-0.62-0.62
			S7.92,3.9,8.27,3.9z"/>
		<path class="st2" d="M3.38,9.38h5.06h3.3l-0.38,0.69l-0.3,0.56H8.44H7.7H6.63H3.38c-0.34,0-0.62-0.28-0.62-0.62
			S3.03,9.38,3.38,9.38z"/>
		<path class="st2" d="M3.38,16.1c-0.34,0-0.62-0.28-0.62-0.62s0.28-0.62,0.62-0.62h2.74c0.01,0.01,0.02,0.01,0.03,0.02l0.3,0.2
			c0.03,0.02,0.07,0.05,0.12,0.09l0.1,0.08l0.09,0.07c0.04,0.03,0.08,0.06,0.11,0.09l0.24,0.2l0.06,0.05
			c0.04,0.04,0.07,0.06,0.1,0.09l0.24,0.25l0.08,0.08c0.01,0.01,0.02,0.02,0.02,0.02H3.38z"/>
		<path class="st2" d="M14.38,16.1h-2.22l0.01-0.02c0.05-0.12,0.11-0.23,0.16-0.33l0.1-0.19l0.27-0.54
			c0.03-0.06,0.06-0.11,0.09-0.17h1.6c0.34,0,0.62,0.28,0.62,0.62S14.72,16.1,14.38,16.1z"/>
	</g>
</g>
</svg>
