<?xml version="1.0" encoding="utf-8"?>
<!-- Generator: Adobe Illustrator 26.2.1, SVG Export Plug-In . SVG Version: 6.00 Build 0)  -->
<svg version="1.1" id="Capa_1" xmlns="http://www.w3.org/2000/svg" xmlns:xlink="http://www.w3.org/1999/xlink" x="0px" y="0px"
	 viewBox="0 0 20 19.7" style="enable-background:new 0 0 20 19.7;" xml:space="preserve">
<style type="text/css">
	.st0{fill:#0684F2;}
	.st1{fill:#3D3A3B;}
	.st2{fill:#4A4A49;}
	.st3{fill:#FF67FE;}
	.st4{fill:#30FF88;}
	.st5{fill:#878787;}
	.st6{fill:#EEBEA8;}
	.st7{fill:none;stroke:#FFFFFF;stroke-width:1.25;stroke-linecap:round;stroke-miterlimit:10;}
	.st8{fill:#FFFFFF;}
	.st9{fill:none;stroke:#FFFFFF;stroke-linecap:round;stroke-miterlimit:10;}
	.st10{fill:none;stroke:#4A4A49;stroke-linecap:round;stroke-miterlimit:10;}
	.st11{fill:#D3E7FF;}
	.st12{fill:none;stroke:#EEBEA8;stroke-width:2;stroke-linecap:round;stroke-linejoin:round;stroke-miterlimit:10;}
	.st13{fill:#4A4A49;stroke:#EEBEA8;stroke-miterlimit:10;}
	.st14{fill:#6300D3;}
	.st15{fill:#0068E6;}
	.st16{fill:#FF7012;}
	.st17{fill:none;stroke:#FF8720;stroke-miterlimit:10;}
	.st18{fill-rule:evenodd;clip-rule:evenodd;fill:#FF7012;}
	.st19{fill-rule:evenodd;clip-rule:evenodd;fill:#FFFFFF;}
	.st20{fill:none;stroke:#4A4A49;stroke-width:1.25;stroke-linecap:round;stroke-miterlimit:10;}
	.st21{fill:none;stroke:#69C6FF;stroke-width:1.25;stroke-miterlimit:10;}
	.st22{fill:none;stroke:#EEBEA8;stroke-width:1.5;stroke-linecap:round;stroke-miterlimit:10;}
	.st23{fill:none;stroke:#8759FF;stroke-width:0.25;stroke-miterlimit:10;}
	.st24{fill:none;stroke:#EEBEA8;stroke-width:1.25;stroke-miterlimit:10;}
	.st25{fill:#4A4A49;stroke:#EEBEA8;stroke-width:1.25;stroke-miterlimit:10;}
	.st26{fill:none;stroke:#4A4A49;stroke-width:1.25;stroke-miterlimit:10;}
	.st27{fill:none;stroke:#FFFFFF;stroke-width:1.25;stroke-linecap:round;stroke-linejoin:round;stroke-miterlimit:10;}
	.st28{fill:none;}
	.st29{fill-rule:evenodd;clip-rule:evenodd;}
	.st30{fill:none;stroke:#000000;stroke-width:2.800000e-04;stroke-miterlimit:22.9256;}
	.st31{fill:#FF0000;}
	.st32{fill:none;stroke:#FF0000;stroke-width:2.800000e-04;stroke-miterlimit:22.9256;}
	.st33{fill:none;stroke:#FFFFFF;stroke-width:2.800000e-04;stroke-miterlimit:22.9256;}
	.st34{fill:#00C356;}
	.st35{fill:none;stroke:#FFFFFF;stroke-width:2;stroke-linecap:round;stroke-linejoin:round;}
	.st36{fill:#FFCF00;}
	.st37{fill:none;stroke:#FF67FE;stroke-width:2;stroke-miterlimit:22.9256;}
	.st38{fill:none;stroke:#FFCF00;stroke-width:2;stroke-miterlimit:22.9256;}
	.st39{fill-rule:evenodd;clip-rule:evenodd;fill:#00C356;}
	.st40{fill-rule:evenodd;clip-rule:evenodd;fill:#878787;}
	.st41{fill:#FF0303;}
	.st42{fill:#AAACFF;}
	.st43{fill:none;stroke:#FFF11B;stroke-width:1.25;stroke-miterlimit:10;}
	.st44{fill:#5D56FF;}
	.st45{fill:none;stroke:#FFF11B;stroke-width:2;stroke-miterlimit:10;}
	.st46{fill:none;stroke:#FFFFFF;stroke-linecap:round;stroke-linejoin:round;stroke-miterlimit:10;}
	.st47{fill:#CFA73E;}
	.st48{fill:#FFC336;}
	.st49{fill:#FF9A3E;}
	.st50{fill:none;stroke:#FFD6B5;stroke-width:1.25;stroke-linecap:round;stroke-miterlimit:10;}
	.st51{fill:none;stroke:#606060;stroke-width:1.25;stroke-linecap:round;stroke-miterlimit:10;}
	.st52{fill:#606060;}
	.st53{fill:none;stroke:#606060;stroke-width:1.25;stroke-miterlimit:10;}
</style>
<g id="Grupo_2836" transform="translate(834.67 471)">
	<path id="Trazado_6074" class="st39" d="M-821.1-456.83l-0.63,0.62c3.03,0.19,5.18,0.7,5.18,1.57c0,1.14-3.64,2.06-8.13,2.06
		s-8.13-0.92-8.13-2.06c0-0.89,2.24-1.4,5.37-1.58l-0.64-0.63c-3.85,0.4-6.6,1.45-6.6,2.69c0,1.58,4.48,2.86,10,2.86
		s10-1.28,10-2.86C-814.67-455.38-817.34-456.42-821.1-456.83z"/>
	<path id="Trazado_6075" class="st39" d="M-824.61-454.91c0,0,2.82-3.27,4.19-4.99c1.24-1.32,2-3.03,2.15-4.84
		c-0.04-3.5-2.92-6.31-6.42-6.26c-3.44,0.04-6.22,2.82-6.26,6.26c0.03,1.79,0.7,3.5,1.89,4.84
		C-827.84-458.35-824.61-454.91-824.61-454.91z M-824.61-467.72c1.72,0,3.11,1.39,3.11,3.11c0,1.72-1.39,3.11-3.11,3.11
		s-3.11-1.39-3.11-3.11v0C-827.73-466.32-826.33-467.72-824.61-467.72C-824.61-467.72-824.61-467.72-824.61-467.72L-824.61-467.72z"
		/>
</g>
</svg>
