<?xml version="1.0" encoding="utf-8"?>
<!-- Generator: Adobe Illustrator 26.2.1, SVG Export Plug-In . SVG Version: 6.00 Build 0)  -->
<svg version="1.1" id="Capa_1" xmlns="http://www.w3.org/2000/svg" xmlns:xlink="http://www.w3.org/1999/xlink" x="0px" y="0px"
	 viewBox="0 0 20 20" style="enable-background:new 0 0 20 20;" xml:space="preserve">
<style type="text/css">
	.st0{fill:#0684F2;}
	.st1{fill:#4A4A49;}
	.st2{fill:#FFFFFF;}
	.st3{fill-rule:evenodd;clip-rule:evenodd;fill:#4A4A49;}
	.st4{fill:#71CF81;}
	.st5{fill-rule:evenodd;clip-rule:evenodd;fill:#FFFFFF;}
	.st6{fill:#00C356;}
	.st7{fill:#FF0303;}
	.st8{fill:#5A5A60;}
	.st9{fill:#FF7012;}
	.st10{fill-rule:evenodd;clip-rule:evenodd;fill:#FF7012;}
	.st11{fill:#FF9A3E;}
	.st12{fill:none;stroke:#606060;stroke-width:1.25;stroke-linecap:round;stroke-miterlimit:10;}
	.st13{fill:#606060;}
	.st14{fill:none;stroke:#FFFFFF;stroke-width:1.25;stroke-linecap:round;stroke-miterlimit:10;}
	.st15{fill:#8CC63E;}
	.st16{fill:none;stroke:#FFFFFF;stroke-width:2;stroke-linecap:round;stroke-miterlimit:10;}
	.st17{fill:none;}
	.st18{fill:none;stroke:#FFFFFF;stroke-width:3;stroke-linecap:round;stroke-linejoin:round;}
	.st19{fill:#0684F2;stroke:#FFFFFF;stroke-width:1.3;stroke-linecap:round;stroke-miterlimit:10;}
	.st20{fill:#EEBEA8;}
	.st21{fill:none;stroke:#FF67FE;stroke-width:2;stroke-miterlimit:22.9256;}
	.st22{fill:none;stroke:#FFCF00;stroke-width:2;stroke-linecap:round;stroke-linejoin:round;stroke-miterlimit:22.9256;}
	.st23{fill:none;stroke:#FFCF00;stroke-width:2;stroke-miterlimit:22.9256;}
	.st24{fill:#FF67FE;}
	.st25{fill-rule:evenodd;clip-rule:evenodd;fill:#454FFF;}
</style>
<g>
	<path class="st9" d="M3.48,17.79C3.55,19.03,4.57,20,5.81,20h8.38c1.24,0,2.27-0.97,2.34-2.21l0.71-12.26H2.77L3.48,17.79z
		 M12.61,17.1l0.51-8.76c0.02-0.43,0.39-0.76,0.83-0.74c0.43,0.02,0.76,0.39,0.74,0.83l-0.51,8.75c-0.02,0.41-0.37,0.74-0.78,0.74
		h-0.05C12.91,17.9,12.58,17.53,12.61,17.1C12.61,17.1,12.61,17.1,12.61,17.1z M9.22,8.39c0-0.43,0.35-0.78,0.78-0.78
		c0.43,0,0.78,0.35,0.78,0.78v8.76c0,0.43-0.35,0.78-0.78,0.78s-0.78-0.35-0.78-0.78V8.39z M6.06,7.61c0.43-0.02,0.8,0.3,0.83,0.74
		l0.51,8.76c0.03,0.43-0.3,0.8-0.73,0.83c0,0,0,0,0,0h0H6.61c-0.41,0-0.76-0.32-0.78-0.74L5.33,8.43C5.3,8,5.63,7.63,6.06,7.61z"/>
	<path class="st9" d="M16.72,2.35h-4.19c-0.09-1.12-0.9-2.09-2.06-2.3C9.09-0.21,7.76,0.7,7.5,2.08C7.48,2.17,7.48,2.26,7.47,2.35
		H3.28c-0.76,0-1.37,0.61-1.37,1.37V4.6h16.17V3.72C18.08,2.96,17.47,2.35,16.72,2.35z M10,1.04c0.62,0,1.16,0.55,1.37,1.31H8.64
		C8.84,1.6,9.38,1.04,10,1.04z"/>
</g>
</svg>
