<?xml version="1.0" encoding="utf-8"?>
<!-- Generator: Adobe Illustrator 26.2.1, SVG Export Plug-In . SVG Version: 6.00 Build 0)  -->
<svg version="1.1" id="Capa_1" xmlns="http://www.w3.org/2000/svg" xmlns:xlink="http://www.w3.org/1999/xlink" x="0px" y="0px"
	 viewBox="0 0 20 20" style="enable-background:new 0 0 20 20;" xml:space="preserve">
<style type="text/css">
	.st0{fill:#0684F2;}
	.st1{fill:#4A4A49;}
	.st2{fill:#FFFFFF;}
	.st3{fill-rule:evenodd;clip-rule:evenodd;fill:#4A4A49;}
	.st4{fill:#71CF81;}
	.st5{fill-rule:evenodd;clip-rule:evenodd;fill:#FFFFFF;}
	.st6{fill:#00C356;}
	.st7{fill:#FF0303;}
	.st8{fill:#5A5A60;}
	.st9{fill:#FF7012;}
	.st10{fill-rule:evenodd;clip-rule:evenodd;fill:#FF7012;}
	.st11{fill:#FF9A3E;}
	.st12{fill:none;stroke:#606060;stroke-width:1.25;stroke-linecap:round;stroke-miterlimit:10;}
	.st13{fill:#606060;}
	.st14{fill:none;stroke:#FFFFFF;stroke-width:1.25;stroke-linecap:round;stroke-miterlimit:10;}
	.st15{fill:#8CC63E;}
	.st16{fill:none;stroke:#FFFFFF;stroke-width:2;stroke-linecap:round;stroke-miterlimit:10;}
	.st17{fill:none;}
	.st18{fill:none;stroke:#FFFFFF;stroke-width:3;stroke-linecap:round;stroke-linejoin:round;}
	.st19{fill:#0684F2;stroke:#FFFFFF;stroke-width:1.3;stroke-linecap:round;stroke-miterlimit:10;}
	.st20{fill:#EEBEA8;}
	.st21{fill:none;stroke:#FF67FE;stroke-width:2;stroke-miterlimit:22.9256;}
	.st22{fill:none;stroke:#FFCF00;stroke-width:2;stroke-linecap:round;stroke-linejoin:round;stroke-miterlimit:22.9256;}
	.st23{fill:none;stroke:#FFCF00;stroke-width:2;stroke-miterlimit:22.9256;}
	.st24{fill:#FF67FE;}
	.st25{fill-rule:evenodd;clip-rule:evenodd;fill:#454FFF;}
</style>
<g>
	<path id="Trazado_5748_00000062915125563305720660000011359510300192302478_" class="st1" d="M2.95,20h14.11
		c1.63,0,2.95-1.32,2.95-2.95l0,0v-1.16c-0.13-0.28-0.28-0.55-0.46-0.8c-1.24-1.76-3.39-2.63-5.53-3.1l-2.68,5.93l-0.32-3.69
		c0-0.01,0.23-1.24,0.25-1.54c0-0.12-0.1-0.22-0.21-0.22c0,0-0.01,0-0.01,0c-0.35,0.02-0.69,0.03-1.04,0.03
		c-0.35,0-0.69-0.01-1.04-0.03c-0.12-0.01-0.22,0.08-0.23,0.2c0,0,0,0.01,0,0.01c0.03,0.3,0.25,1.52,0.25,1.54l-0.32,3.69L5.99,12
		c-2.14,0.47-4.29,1.34-5.53,3.1c-0.18,0.25-0.33,0.52-0.46,0.8v1.16C0,18.68,1.32,20,2.95,20z"/>
	<path id="Trazado_5749_00000046320048024091811910000000460703955598477736_" class="st1" d="M14.61,3.39
		C14.32,1.08,12.27-0.03,10,0C7.73-0.03,5.68,1.08,5.39,3.39c-0.16,1.23,0.01,4.17,0.57,5.3c0.67,1.15,1.76,1.99,3.05,2.33
		c0.65,0.13,1.33,0.13,1.98,0c1.29-0.34,2.38-1.18,3.05-2.33C14.61,7.56,14.77,4.62,14.61,3.39z"/>
</g>
</svg>
