<svg xmlns="http://www.w3.org/2000/svg" width="27.833" height="15.88" viewBox="0 0 27.833 15.88">
  <g id="Grupo_4228" data-name="Grupo 4228" transform="translate(-1479.74 -737)">
    <path id="Trazado_5605" data-name="Trazado 5605" d="M688.745,379.94c-3.719,4.643-8.51,7.44-13.738,7.44s-10.018-2.8-13.737-7.439a.8.8,0,0,1,0-1.008c7.923-9.911,19.6-9.911,27.477,0a.8.8,0,0,1,0,1.006Zm-13.737-6.446a5.946,5.946,0,1,1-5.946,5.946,5.946,5.946,0,0,1,5.946-5.946Z" transform="translate(818.649 365.5)" fill="#00c32e" fill-rule="evenodd"/>
    <path id="Trazado_5606" data-name="Trazado 5606" d="M680.614,377.459a4.167,4.167,0,0,1,.878.093,1.716,1.716,0,1,0,2.661,1.884,4.155,4.155,0,1,1-3.539-1.977Z" transform="translate(813.043 363.327)" fill="#00c32e" fill-rule="evenodd"/>
  </g>
</svg>
