<?xml version="1.0" encoding="utf-8"?>
<!-- Generator: Adobe Illustrator 26.2.1, SVG Export Plug-In . SVG Version: 6.00 Build 0)  -->
<svg version="1.1" id="Capa_1" xmlns="http://www.w3.org/2000/svg" xmlns:xlink="http://www.w3.org/1999/xlink" x="0px" y="0px"
	 viewBox="0 0 20 20" style="enable-background:new 0 0 20 20;" xml:space="preserve">
<style type="text/css">
	.st0{fill:#0684F2;}
	.st1{fill:#4A4A49;}
	.st2{fill:#FFFFFF;}
	.st3{fill-rule:evenodd;clip-rule:evenodd;fill:#4A4A49;}
	.st4{fill:#71CF81;}
	.st5{fill-rule:evenodd;clip-rule:evenodd;fill:#FFFFFF;}
	.st6{fill:#00C356;}
	.st7{fill:#FF0303;}
	.st8{fill:#5A5A60;}
	.st9{fill:#FF7012;}
	.st10{fill-rule:evenodd;clip-rule:evenodd;fill:#FF7012;}
	.st11{fill:#FF9A3E;}
	.st12{fill:none;stroke:#606060;stroke-width:1.25;stroke-linecap:round;stroke-miterlimit:10;}
	.st13{fill:#606060;}
	.st14{fill:none;stroke:#FFFFFF;stroke-width:1.25;stroke-linecap:round;stroke-miterlimit:10;}
	.st15{fill:#8CC63E;}
	.st16{fill:none;stroke:#FFFFFF;stroke-width:2;stroke-linecap:round;stroke-miterlimit:10;}
	.st17{fill:none;}
	.st18{fill:none;stroke:#FFFFFF;stroke-width:3;stroke-linecap:round;stroke-linejoin:round;}
	.st19{fill:#0684F2;stroke:#FFFFFF;stroke-width:1.3;stroke-linecap:round;stroke-miterlimit:10;}
	.st20{fill:#EEBEA8;}
	.st21{fill:none;stroke:#FF67FE;stroke-width:2;stroke-miterlimit:22.9256;}
	.st22{fill:none;stroke:#FFCF00;stroke-width:2;stroke-linecap:round;stroke-linejoin:round;stroke-miterlimit:22.9256;}
	.st23{fill:none;stroke:#FFCF00;stroke-width:2;stroke-miterlimit:22.9256;}
	.st24{fill:#FF67FE;}
	.st25{fill-rule:evenodd;clip-rule:evenodd;fill:#454FFF;}
</style>
<path id="Trazado_6029_00000067934354038472654660000002963285379855168396_" class="st1" d="M14.42,8.61l-2.04,2.04
	c-0.49,0.49-1.28,0.49-1.77,0c-0.23-0.23-0.37-0.55-0.37-0.88V4.03H1.62C0.73,4.03,0,4.75,0,5.65v11.27c0,0.9,0.73,1.62,1.62,1.62
	h14.59c0.89,0,1.61-0.71,1.62-1.6l0,0V8.61H14.42z"/>
<g id="Grupo_2739_00000154394795270721527380000005140374953216803202_">
	<path id="Trazado_6030_00000098935187207777483340000004991639266104514476_" class="st2" d="M2.77,13.66l-0.73,2.83l0,0h2.98
		l6.31-0.01l-0.73-2.83c-0.18-0.79-0.85-1.38-1.66-1.47H6.79c-0.03,0.01-0.07,0.01-0.1,0.01H4.44C3.63,12.28,2.96,12.87,2.77,13.66
		L2.77,13.66z"/>
	<path id="Trazado_6031_00000170256122986376741890000001227740434954507408_" class="st2" d="M8.75,8.85
		c0-1.13-0.92-2.05-2.06-2.05c-1.13,0-2.05,0.92-2.05,2.05c0,1.13,0.92,2.05,2.05,2.05C7.83,10.9,8.75,9.99,8.75,8.85z"/>
</g>
<path id="Trazado_6032_00000008131045361355361990000010583355951277432235_" class="st1" d="M18.41,1.46h-5.32
	c-0.88,0-1.59,0.71-1.59,1.59c0,0,0,0,0,0v6.71l2.4-2.4h4.51c0.88,0,1.59-0.71,1.59-1.59c0,0,0,0,0,0V3.05
	C20,2.18,19.29,1.46,18.41,1.46L18.41,1.46z"/>
<g>
	<circle id="Elipse_145_00000084517280213091166470000014301132195025361308_" class="st2" cx="13.3" cy="4.41" r="0.72"/>
	<circle id="Elipse_146_00000119804129646842313500000004361756512957994155_" class="st2" cx="15.75" cy="4.41" r="0.72"/>
	<circle id="Elipse_147_00000050663120580393976130000004656611012012765602_" class="st2" cx="18.2" cy="4.41" r="0.72"/>
</g>
</svg>
