<?xml version="1.0" encoding="utf-8"?>
<!-- Generator: Adobe Illustrator 26.2.1, SVG Export Plug-In . SVG Version: 6.00 Build 0)  -->
<svg version="1.1" id="Capa_1" xmlns="http://www.w3.org/2000/svg" xmlns:xlink="http://www.w3.org/1999/xlink" x="0px" y="0px"
	 viewBox="0 0 20 20" style="enable-background:new 0 0 20 20;" xml:space="preserve">
<style type="text/css">
	.st0{fill:#0684F2;}
	.st1{fill:#3D3A3B;}
	.st2{fill:#FFFFFF;}
	.st3{fill:#4A4A49;}
	.st4{fill:#FF67FE;}
	.st5{fill:#30FF88;}
	.st6{fill:#878787;}
	.st7{fill:#EEBEA8;}
	.st8{fill:none;stroke:#FFFFFF;stroke-width:1.25;stroke-linecap:round;stroke-miterlimit:10;}
	.st9{fill:none;stroke:#FFFFFF;stroke-linecap:round;stroke-miterlimit:10;}
	.st10{fill:none;stroke:#4A4A49;stroke-linecap:round;stroke-miterlimit:10;}
	.st11{fill:#D3E7FF;}
	.st12{fill:none;stroke:#EEBEA8;stroke-width:2;stroke-linecap:round;stroke-linejoin:round;stroke-miterlimit:10;}
	.st13{fill:#4A4A49;stroke:#EEBEA8;stroke-miterlimit:10;}
	.st14{fill:#6300D3;}
	.st15{fill:#0068E6;}
	.st16{fill:#FF7012;}
	.st17{fill:none;stroke:#FF8720;stroke-miterlimit:10;}
	.st18{fill-rule:evenodd;clip-rule:evenodd;fill:#FF7012;}
	.st19{fill-rule:evenodd;clip-rule:evenodd;fill:#FFFFFF;}
	.st20{fill:none;stroke:#4A4A49;stroke-width:1.25;stroke-linecap:round;stroke-miterlimit:10;}
	.st21{fill:none;stroke:#69C6FF;stroke-width:1.25;stroke-miterlimit:10;}
	.st22{fill:none;stroke:#EEBEA8;stroke-width:1.5;stroke-linecap:round;stroke-miterlimit:10;}
	.st23{fill:none;stroke:#8759FF;stroke-width:0.25;stroke-miterlimit:10;}
	.st24{fill:none;stroke:#EEBEA8;stroke-width:1.25;stroke-miterlimit:10;}
	.st25{fill:#4A4A49;stroke:#EEBEA8;stroke-width:1.25;stroke-miterlimit:10;}
	.st26{fill:none;stroke:#4A4A49;stroke-width:1.25;stroke-miterlimit:10;}
	.st27{fill:none;stroke:#FFFFFF;stroke-width:1.25;stroke-linecap:round;stroke-linejoin:round;stroke-miterlimit:10;}
	.st28{fill:none;}
	.st29{fill-rule:evenodd;clip-rule:evenodd;}
	.st30{fill:none;stroke:#000000;stroke-width:2.800000e-04;stroke-miterlimit:22.9256;}
	.st31{fill:#FF0000;}
	.st32{fill:none;stroke:#FF0000;stroke-width:2.800000e-04;stroke-miterlimit:22.9256;}
	.st33{fill:none;stroke:#FFFFFF;stroke-width:2.800000e-04;stroke-miterlimit:22.9256;}
	.st34{fill:#00C356;}
	.st35{fill:none;stroke:#FFFFFF;stroke-width:2;stroke-linecap:round;stroke-linejoin:round;}
	.st36{fill:#FFCF00;}
	.st37{fill:none;stroke:#FF67FE;stroke-width:2;stroke-miterlimit:22.9256;}
	.st38{fill:none;stroke:#FFCF00;stroke-width:2;stroke-miterlimit:22.9256;}
	.st39{fill-rule:evenodd;clip-rule:evenodd;fill:#00C356;}
	.st40{fill-rule:evenodd;clip-rule:evenodd;fill:#878787;}
	.st41{fill:#FF0303;}
	.st42{fill:#AAACFF;}
	.st43{fill:none;stroke:#FFF11B;stroke-width:1.25;stroke-miterlimit:10;}
	.st44{fill:#5D56FF;}
	.st45{fill:none;stroke:#FFF11B;stroke-width:2;stroke-miterlimit:10;}
	.st46{fill:none;stroke:#FFFFFF;stroke-linecap:round;stroke-linejoin:round;stroke-miterlimit:10;}
	.st47{fill:#CFA73E;}
	.st48{fill:#FFC336;}
	.st49{fill:#FF9A3E;}
	.st50{fill:none;stroke:#FFD6B5;stroke-width:1.25;stroke-linecap:round;stroke-miterlimit:10;}
	.st51{fill:none;stroke:#606060;stroke-width:1.25;stroke-linecap:round;stroke-miterlimit:10;}
	.st52{fill:#606060;}
	.st53{fill:none;stroke:#606060;stroke-width:1.25;stroke-miterlimit:10;}
</style>
<g>
	<g>
		<path class="st0" d="M4.41,20H1c-0.55,0-1-0.45-1-1L0,1.23c0-0.55,0.45-1,1-1h3.41c0.55,0,1,0.45,1,1V19
			C5.41,19.55,4.96,20,4.41,20z"/>
		<g>
			<path class="st2" d="M4.13,7.56H1.28c-0.28,0-0.5-0.22-0.5-0.5s0.22-0.5,0.5-0.5h2.85c0.28,0,0.5,0.22,0.5,0.5
				S4.41,7.56,4.13,7.56z"/>
			<path class="st2" d="M4.13,4.95H1.28c-0.28,0-0.5-0.22-0.5-0.5s0.22-0.5,0.5-0.5h2.85c0.28,0,0.5,0.22,0.5,0.5
				S4.41,4.95,4.13,4.95z"/>
		</g>
	</g>
	<g>
		<path class="st0" d="M10.94,20H7.53c-0.55,0-1-0.45-1-1V1.23c0-0.55,0.45-1,1-1h3.41c0.55,0,1,0.45,1,1V19
			C11.94,19.55,11.49,20,10.94,20z"/>
		<g>
			<path class="st2" d="M10.66,7.56H7.81c-0.28,0-0.5-0.22-0.5-0.5s0.22-0.5,0.5-0.5h2.85c0.28,0,0.5,0.22,0.5,0.5
				S10.93,7.56,10.66,7.56z"/>
			<path class="st2" d="M10.66,4.95H7.81c-0.28,0-0.5-0.22-0.5-0.5s0.22-0.5,0.5-0.5h2.85c0.28,0,0.5,0.22,0.5,0.5
				S10.93,4.95,10.66,4.95z"/>
		</g>
	</g>
	<g>
		<path class="st0" d="M19.09,19.7l-3.4,0.3c-0.55,0.05-1.04-0.36-1.08-0.91l-1.55-17.7c-0.05-0.55,0.36-1.04,0.91-1.08l3.4-0.3
			c0.55-0.05,1.04,0.36,1.08,0.91L20,18.61C20.04,19.16,19.64,19.65,19.09,19.7z"/>
		<g>
			<path class="st2" d="M14.84,7.58c-0.26,0-0.47-0.2-0.5-0.46c-0.02-0.27,0.18-0.52,0.45-0.54l2.84-0.25
				c0.29-0.03,0.52,0.18,0.54,0.45C18.2,7.06,18,7.3,17.72,7.33l-2.84,0.25C14.87,7.58,14.85,7.58,14.84,7.58z"/>
			<path class="st2" d="M14.61,4.98c-0.26,0-0.47-0.2-0.5-0.46C14.09,4.25,14.29,4,14.57,3.98l2.84-0.25
				c0.29-0.03,0.52,0.18,0.54,0.45c0.02,0.27-0.18,0.52-0.45,0.54l-2.84,0.25C14.64,4.98,14.63,4.98,14.61,4.98z"/>
		</g>
	</g>
</g>
</svg>
