<?xml version="1.0" encoding="utf-8"?>
<!-- Generator: Adobe Illustrator 26.2.1, SVG Export Plug-In . SVG Version: 6.00 Build 0)  -->
<svg version="1.1" id="Capa_1" xmlns="http://www.w3.org/2000/svg" xmlns:xlink="http://www.w3.org/1999/xlink" x="0px" y="0px"
	 viewBox="0 0 20 13.47" style="enable-background:new 0 0 20 13.47;" xml:space="preserve">
<style type="text/css">
	.st0{fill:#0684F2;}
	.st1{fill:#4A4A49;}
	.st2{fill:#FFFFFF;}
	.st3{fill-rule:evenodd;clip-rule:evenodd;fill:#4A4A49;}
	.st4{fill:#71CF81;}
	.st5{fill-rule:evenodd;clip-rule:evenodd;fill:#FFFFFF;}
	.st6{fill:#00C356;}
	.st7{fill:#FF0303;}
	.st8{fill:#5A5A60;}
	.st9{fill:#FF7012;}
	.st10{fill-rule:evenodd;clip-rule:evenodd;fill:#FF7012;}
	.st11{fill:#FF9A3E;}
	.st12{fill:none;stroke:#606060;stroke-width:1.25;stroke-linecap:round;stroke-miterlimit:10;}
	.st13{fill:#606060;}
	.st14{fill:none;stroke:#FFFFFF;stroke-width:1.25;stroke-linecap:round;stroke-miterlimit:10;}
	.st15{fill:#8CC63E;}
	.st16{fill:none;stroke:#FFFFFF;stroke-width:2;stroke-linecap:round;stroke-miterlimit:10;}
	.st17{fill:none;}
	.st18{fill:none;stroke:#FFFFFF;stroke-width:3;stroke-linecap:round;stroke-linejoin:round;}
	.st19{fill:#0684F2;stroke:#FFFFFF;stroke-width:1.3;stroke-linecap:round;stroke-miterlimit:10;}
	.st20{fill:#EEBEA8;}
	.st21{fill:none;stroke:#FF67FE;stroke-width:2;stroke-miterlimit:22.9256;}
	.st22{fill:none;stroke:#FFCF00;stroke-width:2;stroke-linecap:round;stroke-linejoin:round;stroke-miterlimit:22.9256;}
	.st23{fill:none;stroke:#FFCF00;stroke-width:2;stroke-miterlimit:22.9256;}
	.st24{fill:#FF67FE;}
	.st25{fill-rule:evenodd;clip-rule:evenodd;fill:#454FFF;}
</style>
<g>
	<path class="st10" d="M13.85,8.5L12.2,7.35L8.68,4.87L7.03,3.71L4.94,2.25L1.74,0L0.86,1.25l2.53,1.77l0.17,0.12
		c-1.21,0.83-2.37,1.9-3.43,3.23c-0.17,0.21-0.17,0.51,0,0.72c2.67,3.34,6.11,5.34,9.87,5.34c1.76,0,3.44-0.44,5.01-1.25l0.05,0.03
		l3.2,2.25l0.88-1.25l-2.53-1.77L13.85,8.5z M10,11.01c-2.36,0-4.27-1.91-4.27-4.27c0-0.64,0.15-1.24,0.4-1.78L7.21,5.7
		C7.09,6.03,7.01,6.37,7.01,6.73c0,1.65,1.34,2.99,2.99,2.99c0.73,0,1.4-0.27,1.92-0.71l1.08,0.76C12.22,10.53,11.17,11.01,10,11.01
		z"/>
	<path class="st10" d="M19.87,6.37c-3.75-4.72-8.7-6.31-13.26-4.77l1.72,1.2C8.84,2.58,9.41,2.46,10,2.46
		c2.36,0,4.27,1.91,4.27,4.27c0,0.07-0.01,0.14-0.01,0.2l3.45,2.41c0.76-0.66,1.48-1.42,2.16-2.25h0
		C20.04,6.88,20.04,6.58,19.87,6.37z"/>
</g>
</svg>
