<?xml version="1.0" encoding="utf-8"?>
<!-- Generator: Adobe Illustrator 26.2.1, SVG Export Plug-In . SVG Version: 6.00 Build 0)  -->
<svg version="1.1" id="Capa_1" xmlns="http://www.w3.org/2000/svg" xmlns:xlink="http://www.w3.org/1999/xlink" x="0px" y="0px"
	 viewBox="0 0 20 15.08" style="enable-background:new 0 0 20 15.08;" xml:space="preserve">
<style type="text/css">
	.st0{fill:#0684F2;}
	.st1{fill:#3D3A3B;}
	.st2{fill:#4A4A49;}
	.st3{fill:#FF67FE;}
	.st4{fill:#30FF88;}
	.st5{fill:#878787;}
	.st6{fill:#EEBEA8;}
	.st7{fill:none;stroke:#FFFFFF;stroke-width:1.25;stroke-linecap:round;stroke-miterlimit:10;}
	.st8{fill:#FFFFFF;}
	.st9{fill:none;stroke:#FFFFFF;stroke-linecap:round;stroke-miterlimit:10;}
	.st10{fill:none;stroke:#4A4A49;stroke-linecap:round;stroke-miterlimit:10;}
	.st11{fill:#D3E7FF;}
	.st12{fill:none;stroke:#EEBEA8;stroke-width:2;stroke-linecap:round;stroke-linejoin:round;stroke-miterlimit:10;}
	.st13{fill:#4A4A49;stroke:#EEBEA8;stroke-miterlimit:10;}
	.st14{fill:#6300D3;}
	.st15{fill:#0068E6;}
	.st16{fill:#FF7012;}
	.st17{fill:none;stroke:#FF8720;stroke-miterlimit:10;}
	.st18{fill-rule:evenodd;clip-rule:evenodd;fill:#FF7012;}
	.st19{fill-rule:evenodd;clip-rule:evenodd;fill:#FFFFFF;}
	.st20{fill:none;stroke:#4A4A49;stroke-width:1.25;stroke-linecap:round;stroke-miterlimit:10;}
	.st21{fill:none;stroke:#69C6FF;stroke-width:1.25;stroke-miterlimit:10;}
	.st22{fill:none;stroke:#EEBEA8;stroke-width:1.5;stroke-linecap:round;stroke-miterlimit:10;}
	.st23{fill:none;stroke:#8759FF;stroke-width:0.25;stroke-miterlimit:10;}
	.st24{fill:none;stroke:#EEBEA8;stroke-width:1.25;stroke-miterlimit:10;}
	.st25{fill:#4A4A49;stroke:#EEBEA8;stroke-width:1.25;stroke-miterlimit:10;}
	.st26{fill:none;stroke:#4A4A49;stroke-width:1.25;stroke-miterlimit:10;}
	.st27{fill:none;stroke:#FFFFFF;stroke-width:1.25;stroke-linecap:round;stroke-linejoin:round;stroke-miterlimit:10;}
	.st28{fill:none;}
	.st29{fill-rule:evenodd;clip-rule:evenodd;}
	.st30{fill:none;stroke:#000000;stroke-width:2.800000e-04;stroke-miterlimit:22.9256;}
	.st31{fill:#FF0000;}
	.st32{fill:none;stroke:#FF0000;stroke-width:2.800000e-04;stroke-miterlimit:22.9256;}
	.st33{fill:none;stroke:#FFFFFF;stroke-width:2.800000e-04;stroke-miterlimit:22.9256;}
	.st34{fill:#00C356;}
	.st35{fill:none;stroke:#FFFFFF;stroke-width:2;stroke-linecap:round;stroke-linejoin:round;}
	.st36{fill:#FFCF00;}
	.st37{fill:none;stroke:#FF67FE;stroke-width:2;stroke-miterlimit:22.9256;}
	.st38{fill:none;stroke:#FFCF00;stroke-width:2;stroke-miterlimit:22.9256;}
	.st39{fill-rule:evenodd;clip-rule:evenodd;fill:#00C356;}
	.st40{fill-rule:evenodd;clip-rule:evenodd;fill:#878787;}
	.st41{fill:#FF0303;}
	.st42{fill:#AAACFF;}
	.st43{fill:none;stroke:#FFF11B;stroke-width:1.25;stroke-miterlimit:10;}
	.st44{fill:#5D56FF;}
	.st45{fill:none;stroke:#FFF11B;stroke-width:2;stroke-miterlimit:10;}
	.st46{fill:none;stroke:#FFFFFF;stroke-linecap:round;stroke-linejoin:round;stroke-miterlimit:10;}
	.st47{fill:#CFA73E;}
	.st48{fill:#FFC336;}
	.st49{fill:#FF9A3E;}
	.st50{fill:none;stroke:#FFD6B5;stroke-width:1.25;stroke-linecap:round;stroke-miterlimit:10;}
	.st51{fill:none;stroke:#606060;stroke-width:1.25;stroke-linecap:round;stroke-miterlimit:10;}
	.st52{fill:#606060;}
	.st53{fill:none;stroke:#606060;stroke-width:1.25;stroke-miterlimit:10;}
</style>
<path id="Trazado_5818" class="st39" d="M16.31,8.95c-0.33-0.31-0.78-0.49-1.23-0.49c-0.29,0-0.59,0.07-0.85,0.21
	c-0.36-0.39-0.84-0.63-1.36-0.68c-0.04-0.43-0.07-0.86-0.09-1.29c-0.04-0.3,0.05-0.61,0.26-0.83c0.16-0.15,0.32-0.29,0.5-0.41
	c0.22-0.16,0.45-0.3,0.69-0.43c0.48-0.26,1.02-0.4,1.57-0.4c-0.75,0.26-1.46,0.64-2.09,1.11c0.61,0.62,1.82,0.81,2.59-0.54
	c0.17-0.33,0.41-0.62,0.69-0.86c-0.46-0.16-0.91-0.51-1.51-0.6c-1.5-0.23-2.23,0.36-2.16,1.25c0.01,0.07,0.02,0.14,0.04,0.2
	c-0.22,0.15-0.43,0.32-0.62,0.5c-0.01-0.51,0.01-1.03,0.05-1.55c0.04-0.36,0.06-0.73,0.05-1.09c-0.01-0.13-0.02-0.26-0.04-0.39
	c0.05-0.03,0.1-0.06,0.14-0.09c0.57-0.46,0.51-1.24-0.49-2C12.06,0.25,11.6,0.18,11.24,0c0.02,0.31-0.02,0.61-0.12,0.9
	c-0.36,1.24,0.44,1.84,1.16,1.86c-0.08-0.65-0.26-1.29-0.53-1.88c0.31,0.33,0.53,0.73,0.66,1.17c0.06,0.22,0.1,0.43,0.14,0.66
	c0.01,0.1,0.03,0.2,0.03,0.3c0.05,0.76-0.24,2.21-0.24,3.21c-0.2-0.19-0.41-0.36-0.63-0.52c0.02-0.07,0.03-0.13,0.04-0.2
	c0.08-0.89-0.66-1.48-2.16-1.25c-0.59,0.09-1.05,0.44-1.51,0.6C8.37,5.08,8.6,5.37,8.77,5.7c0.78,1.35,1.98,1.16,2.6,0.54
	c-0.64-0.47-1.34-0.85-2.09-1.12c0.55,0,1.08,0.14,1.56,0.4c0.24,0.13,0.47,0.27,0.7,0.43c0.16,0.11,0.31,0.24,0.45,0.37
	c0.34,0.31,0.35,0.42,0.36,0.85c0.01,0.26,0.02,0.53,0.04,0.81c-0.33,0.04-0.65,0.16-0.93,0.34c-0.22-0.13-0.46-0.2-0.71-0.19
	c-0.47,0-0.9,0.23-1.16,0.61c0.81,0.35,1.65,0.61,2.52,0.79c0.69,0.15,1.38,0.26,2.07,0.4c0.17,0.03,0.34,0.09,0.51,0.17l0.19-0.1
	c0.1-0.05,0.19-0.1,0.28-0.16C15.56,9.58,15.95,9.28,16.31,8.95L16.31,8.95z M12.01,9.9c-0.99-0.2-1.96-0.52-2.88-0.95
	c-2.12-1-4.26-0.9-5.94,0.54c-0.39,0.37-0.84,0.67-1.33,0.88l-1.71,0.75c-0.3,0.13-0.15,1.12,0.33,2.21
	c0.48,1.09,1.11,1.86,1.41,1.73l2.76-1.22c0.76-0.32,1.61-0.36,2.4-0.11l3.05,0.87c0.94,0.27,2,0.4,2.87-0.06l3.21-1.72
	c1.04-0.55,1.36-0.6,1.99-1.49l1.64-2.28c0.46-0.64-0.02-1.29-0.64-1.07C18.85,7.69,18.49,7.73,18.08,8
	c-1.17,0.75-1.96,1.78-3.06,2.34c0.12,0.1,0.21,0.23,0.26,0.37c0.39,1.04-1.01,1.71-1.86,1.57l-2.78-0.47
	c-0.67-0.13-1.36-0.07-1.99,0.18c-0.23,0.1-0.33-0.26-0.1-0.36c0.69-0.26,1.43-0.32,2.15-0.18l1.3,0.22l1.48,0.25
	c0.59,0.1,1.72-0.36,1.45-1.07c-0.09-0.24-0.41-0.46-0.85-0.54C13.45,10.17,12.75,10.06,12.01,9.9L12.01,9.9z"/>
</svg>
