<?xml version="1.0" encoding="utf-8"?>
<!-- Generator: Adobe Illustrator 26.2.1, SVG Export Plug-In . SVG Version: 6.00 Build 0)  -->
<svg version="1.1" id="Capa_1" xmlns="http://www.w3.org/2000/svg" xmlns:xlink="http://www.w3.org/1999/xlink" x="0px" y="0px"
	 viewBox="0 0 16.83 20" style="enable-background:new 0 0 16.83 20;" xml:space="preserve">
<style type="text/css">
	.st0{fill:#0684F2;}
	.st1{fill:#3D3A3B;}
	.st2{fill:#4A4A49;}
	.st3{fill:#FF67FE;}
	.st4{fill:#30FF88;}
	.st5{fill:#878787;}
	.st6{fill:#EEBEA8;}
	.st7{fill:none;stroke:#FFFFFF;stroke-width:1.25;stroke-linecap:round;stroke-miterlimit:10;}
	.st8{fill:#FFFFFF;}
	.st9{fill:none;stroke:#FFFFFF;stroke-linecap:round;stroke-miterlimit:10;}
	.st10{fill:none;stroke:#4A4A49;stroke-linecap:round;stroke-miterlimit:10;}
	.st11{fill:#D3E7FF;}
	.st12{fill:none;stroke:#EEBEA8;stroke-width:2;stroke-linecap:round;stroke-linejoin:round;stroke-miterlimit:10;}
	.st13{fill:#4A4A49;stroke:#EEBEA8;stroke-miterlimit:10;}
	.st14{fill:#6300D3;}
	.st15{fill:#0068E6;}
	.st16{fill:#FF7012;}
	.st17{fill:none;stroke:#FF8720;stroke-miterlimit:10;}
	.st18{fill-rule:evenodd;clip-rule:evenodd;fill:#FF7012;}
	.st19{fill-rule:evenodd;clip-rule:evenodd;fill:#FFFFFF;}
	.st20{fill:none;stroke:#4A4A49;stroke-width:1.25;stroke-linecap:round;stroke-miterlimit:10;}
	.st21{fill:none;stroke:#69C6FF;stroke-width:1.25;stroke-miterlimit:10;}
	.st22{fill:none;stroke:#EEBEA8;stroke-width:1.5;stroke-linecap:round;stroke-miterlimit:10;}
	.st23{fill:none;stroke:#8759FF;stroke-width:0.25;stroke-miterlimit:10;}
	.st24{fill:none;stroke:#EEBEA8;stroke-width:1.25;stroke-miterlimit:10;}
	.st25{fill:#4A4A49;stroke:#EEBEA8;stroke-width:1.25;stroke-miterlimit:10;}
	.st26{fill:none;stroke:#4A4A49;stroke-width:1.25;stroke-miterlimit:10;}
	.st27{fill:none;stroke:#FFFFFF;stroke-width:1.25;stroke-linecap:round;stroke-linejoin:round;stroke-miterlimit:10;}
	.st28{fill:none;}
	.st29{fill-rule:evenodd;clip-rule:evenodd;}
	.st30{fill:none;stroke:#000000;stroke-width:2.800000e-04;stroke-miterlimit:22.9256;}
	.st31{fill:#FF0000;}
	.st32{fill:none;stroke:#FF0000;stroke-width:2.800000e-04;stroke-miterlimit:22.9256;}
	.st33{fill:none;stroke:#FFFFFF;stroke-width:2.800000e-04;stroke-miterlimit:22.9256;}
	.st34{fill:#00C356;}
	.st35{fill:none;stroke:#FFFFFF;stroke-width:2;stroke-linecap:round;stroke-linejoin:round;}
	.st36{fill:#FFCF00;}
	.st37{fill:none;stroke:#FF67FE;stroke-width:2;stroke-miterlimit:22.9256;}
	.st38{fill:none;stroke:#FFCF00;stroke-width:2;stroke-miterlimit:22.9256;}
	.st39{fill-rule:evenodd;clip-rule:evenodd;fill:#00C356;}
	.st40{fill-rule:evenodd;clip-rule:evenodd;fill:#878787;}
	.st41{fill:#FF0303;}
	.st42{fill:#AAACFF;}
	.st43{fill:none;stroke:#FFF11B;stroke-width:1.25;stroke-miterlimit:10;}
	.st44{fill:#5D56FF;}
	.st45{fill:none;stroke:#FFF11B;stroke-width:2;stroke-miterlimit:10;}
	.st46{fill:none;stroke:#FFFFFF;stroke-linecap:round;stroke-linejoin:round;stroke-miterlimit:10;}
	.st47{fill:#CFA73E;}
	.st48{fill:#FFC336;}
	.st49{fill:#FF9A3E;}
	.st50{fill:none;stroke:#FFD6B5;stroke-width:1.25;stroke-linecap:round;stroke-miterlimit:10;}
	.st51{fill:none;stroke:#606060;stroke-width:1.25;stroke-linecap:round;stroke-miterlimit:10;}
	.st52{fill:#606060;}
	.st53{fill:none;stroke:#606060;stroke-width:1.25;stroke-miterlimit:10;}
</style>
<g>
	<path class="st16" d="M9.37,3.29c1.92,0.23,3.64,1.1,4.94,2.4c1.52,1.52,2.46,3.61,2.46,5.93c0,2.32-0.94,4.41-2.46,5.93
		C12.8,19.06,10.7,20,8.39,20s-4.41-0.94-5.93-2.46C0.94,16.03,0,13.93,0,11.61C0,9.3,0.94,7.2,2.46,5.68
		c1.3-1.3,3.02-2.17,4.94-2.4l0-0.9H6.02c-0.27,0-0.49-0.22-0.49-0.49v-1.4C5.53,0.22,5.75,0,6.02,0h4.72
		c0.27,0,0.49,0.22,0.49,0.49v1.4c0,0.27-0.22,0.49-0.49,0.49H9.37L9.37,3.29L9.37,3.29z M15.06,2.85l1.66,1.6
		c0.17,0.16,0.12,0.4,0.01,0.61l-0.52,1c-0.11,0.21-0.46,0.19-0.61,0.01c-0.58-0.7-1.22-1.4-2.12-2.05
		c-0.19-0.14-0.22-0.49-0.01-0.61l0.99-0.55C14.66,2.74,14.89,2.68,15.06,2.85L15.06,2.85z M8.39,11.61V6.14
		c3.02,0,5.47,2.45,5.47,5.47c0,1-0.27,1.98-0.79,2.83L8.39,11.61L8.39,11.61z M12.84,7.16c-1.14-1.14-2.71-1.84-4.45-1.84
		c-1.74,0-3.31,0.7-4.45,1.84C2.8,8.3,2.09,9.88,2.09,11.61c0,1.74,0.7,3.31,1.84,4.45s2.71,1.84,4.45,1.84
		c1.74,0,3.31-0.7,4.45-1.84s1.84-2.71,1.84-4.45C14.68,9.88,13.98,8.3,12.84,7.16L12.84,7.16z"/>
	<path class="st16" d="M2.67,11.79v-0.26c0-0.18,0.15-0.33,0.33-0.33h0.81c0.18,0,0.33,0.15,0.33,0.33v0.26
		c0,0.18-0.15,0.33-0.33,0.33H3C2.82,12.12,2.67,11.97,2.67,11.79L2.67,11.79z"/>
	<path class="st16" d="M8.56,17.33H8.3c-0.18,0-0.33-0.15-0.33-0.33v-0.81c0-0.18,0.15-0.33,0.33-0.33h0.26
		c0.18,0,0.33,0.15,0.33,0.33V17C8.9,17.18,8.75,17.33,8.56,17.33L8.56,17.33z"/>
</g>
</svg>
