<?xml version="1.0" encoding="utf-8"?>
<!-- Generator: Adobe Illustrator 26.2.1, SVG Export Plug-In . SVG Version: 6.00 Build 0)  -->
<svg version="1.1" id="Capa_1" xmlns="http://www.w3.org/2000/svg" xmlns:xlink="http://www.w3.org/1999/xlink" x="0px" y="0px"
	 viewBox="0 0 20 17" style="enable-background:new 0 0 20 17;" xml:space="preserve">
<style type="text/css">
	.st0{fill:#0684F2;}
	.st1{fill:#3D3A3B;}
	.st2{fill:#4A4A49;}
	.st3{fill:#FF67FE;}
	.st4{fill:#30FF88;}
	.st5{fill:#878787;}
	.st6{fill:#EEBEA8;}
	.st7{fill:none;stroke:#FFFFFF;stroke-width:1.25;stroke-linecap:round;stroke-miterlimit:10;}
	.st8{fill:#FFFFFF;}
	.st9{fill:none;stroke:#FFFFFF;stroke-linecap:round;stroke-miterlimit:10;}
	.st10{fill:none;stroke:#4A4A49;stroke-linecap:round;stroke-miterlimit:10;}
	.st11{fill:#D3E7FF;}
	.st12{fill:none;stroke:#EEBEA8;stroke-width:2;stroke-linecap:round;stroke-linejoin:round;stroke-miterlimit:10;}
	.st13{fill:#4A4A49;stroke:#EEBEA8;stroke-miterlimit:10;}
	.st14{fill:#6300D3;}
	.st15{fill:#0068E6;}
	.st16{fill:#FF7012;}
	.st17{fill:none;stroke:#FF8720;stroke-miterlimit:10;}
	.st18{fill-rule:evenodd;clip-rule:evenodd;fill:#FF7012;}
	.st19{fill-rule:evenodd;clip-rule:evenodd;fill:#FFFFFF;}
	.st20{fill:none;stroke:#4A4A49;stroke-width:1.25;stroke-linecap:round;stroke-miterlimit:10;}
	.st21{fill:none;stroke:#69C6FF;stroke-width:1.25;stroke-miterlimit:10;}
	.st22{fill:none;stroke:#EEBEA8;stroke-width:1.5;stroke-linecap:round;stroke-miterlimit:10;}
	.st23{fill:none;stroke:#8759FF;stroke-width:0.25;stroke-miterlimit:10;}
	.st24{fill:none;stroke:#EEBEA8;stroke-width:1.25;stroke-miterlimit:10;}
	.st25{fill:#4A4A49;stroke:#EEBEA8;stroke-width:1.25;stroke-miterlimit:10;}
	.st26{fill:none;stroke:#4A4A49;stroke-width:1.25;stroke-miterlimit:10;}
	.st27{fill:none;stroke:#FFFFFF;stroke-width:1.25;stroke-linecap:round;stroke-linejoin:round;stroke-miterlimit:10;}
	.st28{fill:none;}
	.st29{fill-rule:evenodd;clip-rule:evenodd;}
	.st30{fill:none;stroke:#000000;stroke-width:2.800000e-04;stroke-miterlimit:22.9256;}
	.st31{fill:#FF0000;}
	.st32{fill:none;stroke:#FF0000;stroke-width:2.800000e-04;stroke-miterlimit:22.9256;}
	.st33{fill:none;stroke:#FFFFFF;stroke-width:2.800000e-04;stroke-miterlimit:22.9256;}
	.st34{fill:#00C356;}
	.st35{fill:none;stroke:#FFFFFF;stroke-width:2;stroke-linecap:round;stroke-linejoin:round;}
	.st36{fill:#FFCF00;}
	.st37{fill:none;stroke:#FF67FE;stroke-width:2;stroke-miterlimit:22.9256;}
	.st38{fill:none;stroke:#FFCF00;stroke-width:2;stroke-miterlimit:22.9256;}
	.st39{fill-rule:evenodd;clip-rule:evenodd;fill:#00C356;}
	.st40{fill-rule:evenodd;clip-rule:evenodd;fill:#878787;}
	.st41{fill:#FF0303;}
	.st42{fill:#AAACFF;}
	.st43{fill:none;stroke:#FFF11B;stroke-width:1.25;stroke-miterlimit:10;}
	.st44{fill:#5D56FF;}
	.st45{fill:none;stroke:#FFF11B;stroke-width:2;stroke-miterlimit:10;}
	.st46{fill:none;stroke:#FFFFFF;stroke-linecap:round;stroke-linejoin:round;stroke-miterlimit:10;}
	.st47{fill:#CFA73E;}
	.st48{fill:#FFC336;}
	.st49{fill:#FF9A3E;}
	.st50{fill:none;stroke:#FFD6B5;stroke-width:1.25;stroke-linecap:round;stroke-miterlimit:10;}
	.st51{fill:none;stroke:#606060;stroke-width:1.25;stroke-linecap:round;stroke-miterlimit:10;}
	.st52{fill:#606060;}
	.st53{fill:none;stroke:#606060;stroke-width:1.25;stroke-miterlimit:10;}
</style>
<path class="st0" d="M20,8.87L16.4,0H3.6L0,8.87V14c0,1.66,1.34,3,3,3h14c1.66,0,3-1.34,3-3V8.87z"/>
<path class="st8" d="M11.5,12.02h-3c-0.34,0-0.62-0.28-0.62-0.62s0.28-0.62,0.62-0.62h3c0.34,0,0.62,0.28,0.62,0.62
	S11.84,12.02,11.5,12.02z"/>
<path class="st8" d="M17.31,7.83H17h-5.33H6.92L6.19,7.11C6.05,6.96,5.86,6.88,5.66,6.88H2.5c0,0,0,0,0,0
	c-0.27,0-0.49,0.22-0.49,0.49v1.32l9.67,0v0h6.32V8.51C17.99,8.14,17.69,7.83,17.31,7.83z"/>
<path class="st8" d="M16.3,4.81l-8.35,0L7.22,4.08C7.08,3.94,6.89,3.86,6.68,3.86H3.52c0,0,0,0,0,0c-0.27,0-0.49,0.22-0.49,0.49
	v1.32l13.95,0V5.49C16.98,5.11,16.68,4.81,16.3,4.81z"/>
<path class="st8" d="M15.29,1.79H8.98L8.25,1.06C8.11,0.92,7.92,0.84,7.72,0.84H4.55c0,0,0,0,0,0c-0.27,0-0.49,0.22-0.49,0.49v1.32
	l11.9,0V2.47C15.97,2.09,15.66,1.79,15.29,1.79z"/>
</svg>
