<?xml version="1.0" encoding="utf-8"?>
<!-- Generator: Adobe Illustrator 26.2.1, SVG Export Plug-In . SVG Version: 6.00 Build 0)  -->
<svg version="1.1" id="Capa_1" xmlns="http://www.w3.org/2000/svg" xmlns:xlink="http://www.w3.org/1999/xlink" x="0px" y="0px"
	 viewBox="0 0 20 20" style="enable-background:new 0 0 20 20;" xml:space="preserve">
<style type="text/css">
	.st0{fill:#0684F2;}
	.st1{fill:#4A4A49;}
	.st2{fill:#FFFFFF;}
	.st3{fill-rule:evenodd;clip-rule:evenodd;fill:#4A4A49;}
	.st4{fill:#71CF81;}
	.st5{fill-rule:evenodd;clip-rule:evenodd;fill:#FFFFFF;}
	.st6{fill:#00C356;}
	.st7{fill:#FF0303;}
	.st8{fill:#5A5A60;}
	.st9{fill:#FF7012;}
	.st10{fill-rule:evenodd;clip-rule:evenodd;fill:#FF7012;}
	.st11{fill:#FF9A3E;}
	.st12{fill:none;stroke:#606060;stroke-width:1.25;stroke-linecap:round;stroke-miterlimit:10;}
	.st13{fill:#606060;}
	.st14{fill:none;stroke:#FFFFFF;stroke-width:1.25;stroke-linecap:round;stroke-miterlimit:10;}
	.st15{fill:#8CC63E;}
	.st16{fill:none;stroke:#FFFFFF;stroke-width:2;stroke-linecap:round;stroke-miterlimit:10;}
	.st17{fill:none;}
	.st18{fill:none;stroke:#FFFFFF;stroke-width:3;stroke-linecap:round;stroke-linejoin:round;}
	.st19{fill:#0684F2;stroke:#FFFFFF;stroke-width:1.3;stroke-linecap:round;stroke-miterlimit:10;}
	.st20{fill:#EEBEA8;}
	.st21{fill:none;stroke:#FF67FE;stroke-width:2;stroke-miterlimit:22.9256;}
	.st22{fill:none;stroke:#FFCF00;stroke-width:2;stroke-linecap:round;stroke-linejoin:round;stroke-miterlimit:22.9256;}
	.st23{fill:none;stroke:#FFCF00;stroke-width:2;stroke-miterlimit:22.9256;}
	.st24{fill:#FF67FE;}
	.st25{fill-rule:evenodd;clip-rule:evenodd;fill:#454FFF;}
</style>
<path class="st9" d="M16.93,9.01v7.09c0,1.16-0.94,2.1-2.1,2.1H3.9c-1.16,0-2.1-0.94-2.1-2.1V5.17c0-1.16,0.94-2.1,2.1-2.1h7.09
	l1.8-1.8H3.9C1.75,1.27,0,3.02,0,5.17V16.1C0,18.25,1.75,20,3.9,20h10.93c2.15,0,3.9-1.75,3.9-3.9V7.21L16.93,9.01z"/>
<g id="Grupo_3086_00000025420159160081589950000005317820531480655246_" transform="translate(-711.532 -432.252)">
	<g id="Grupo_3083_00000105406218969297354550000017034326447706549182_">
		<g id="Grupo_3082_00000170998045088574588520000010068026799397565594_">
			<path id="Trazado_6125_00000165205779027011789240000004352230416077946546_" class="st9" d="M719.97,446.97h-3.16v-3.16
				l9.31-9.31l3.16,3.16L719.97,446.97z"/>
		</g>
	</g>
	<g id="Grupo_3085_00000010997249115497347330000004375205120626714023_">
		<g id="Grupo_3084_00000106857341291975092580000015952458043322309275_">
			<path id="Trazado_6126_00000013887400974959331390000008258716952606486432_" class="st9" d="M727.85,432.78l-0.62,0.62
				l3.16,3.16l0.62-0.62c0.7-0.7,0.7-1.84,0-2.54c0,0,0,0,0,0l-0.61-0.61C729.69,432.08,728.55,432.08,727.85,432.78
				C727.85,432.78,727.85,432.78,727.85,432.78z"/>
		</g>
	</g>
</g>
</svg>
