<?xml version="1.0" encoding="utf-8"?>
<!-- Generator: Adobe Illustrator 26.2.1, SVG Export Plug-In . SVG Version: 6.00 Build 0)  -->
<svg version="1.1" id="Capa_1" xmlns="http://www.w3.org/2000/svg" xmlns:xlink="http://www.w3.org/1999/xlink" x="0px" y="0px"
	 viewBox="0 0 22.3 20" style="enable-background:new 0 0 22.3 20;" xml:space="preserve">
<style type="text/css">
	.st0{fill:#0684F2;}
	.st1{fill:#4A4A49;}
	.st2{fill:#FFFFFF;}
	.st3{fill-rule:evenodd;clip-rule:evenodd;fill:#4A4A49;}
	.st4{fill:#71CF81;}
	.st5{fill-rule:evenodd;clip-rule:evenodd;fill:#FFFFFF;}
	.st6{fill:#00C356;}
	.st7{fill:#FF0303;}
	.st8{fill:#5A5A60;}
	.st9{fill:#FF7012;}
	.st10{fill-rule:evenodd;clip-rule:evenodd;fill:#FF7012;}
	.st11{fill:#FF9A3E;}
	.st12{fill:none;stroke:#606060;stroke-width:1.25;stroke-linecap:round;stroke-miterlimit:10;}
	.st13{fill:#606060;}
	.st14{fill:none;stroke:#FFFFFF;stroke-width:1.25;stroke-linecap:round;stroke-miterlimit:10;}
	.st15{fill:#8CC63E;}
	.st16{fill:none;stroke:#FFFFFF;stroke-width:2;stroke-linecap:round;stroke-miterlimit:10;}
	.st17{fill:none;}
	.st18{fill:none;stroke:#FFFFFF;stroke-width:3;stroke-linecap:round;stroke-linejoin:round;}
	.st19{fill:#0684F2;stroke:#FFFFFF;stroke-width:1.3;stroke-linecap:round;stroke-miterlimit:10;}
	.st20{fill:#EEBEA8;}
	.st21{fill:none;stroke:#FF67FE;stroke-width:2;stroke-miterlimit:22.9256;}
	.st22{fill:none;stroke:#FFCF00;stroke-width:2;stroke-linecap:round;stroke-linejoin:round;stroke-miterlimit:22.9256;}
	.st23{fill:none;stroke:#FFCF00;stroke-width:2;stroke-miterlimit:22.9256;}
	.st24{fill:#FF67FE;}
	.st25{fill-rule:evenodd;clip-rule:evenodd;fill:#454FFF;}
</style>
<g id="Grupo_3284" transform="translate(-669.118 -371.5)">
	<path id="Trazado_6152" class="st3" d="M676.09,371.5c1.07,0,2.03,0.69,2.35,1.72h12.19c0.42,0,0.75,0.34,0.75,0.75
		c0,0.42-0.34,0.75-0.75,0.75h-12.19c-0.42,1.3-1.81,2.02-3.11,1.6c-0.76-0.24-1.36-0.84-1.6-1.6h-3.8c-0.42,0-0.75-0.34-0.75-0.75
		c0-0.42,0.34-0.75,0.75-0.75h3.81C674.06,372.19,675.02,371.5,676.09,371.5L676.09,371.5z"/>
	<path id="Trazado_6153" class="st3" d="M684.47,379.03c-1.07,0-2.03,0.69-2.35,1.72h-12.19c-0.42-0.01-0.76,0.31-0.78,0.73
		c-0.01,0.42,0.31,0.76,0.73,0.78c0.02,0,0.04,0,0.05,0h12.19c0.42,1.3,1.81,2.02,3.11,1.6c0.76-0.24,1.36-0.84,1.6-1.6h3.81
		c0.42-0.01,0.74-0.36,0.73-0.78c-0.01-0.39-0.33-0.71-0.73-0.73h-3.81C686.5,379.72,685.55,379.03,684.47,379.03L684.47,379.03z"/>
	<path id="Trazado_6154" class="st3" d="M676.09,386.56c1.07,0,2.03,0.69,2.35,1.72h12.19c0.42,0.01,0.74,0.36,0.73,0.78
		c-0.01,0.39-0.33,0.71-0.73,0.73h-12.19c-0.42,1.3-1.81,2.02-3.11,1.6c-0.76-0.24-1.36-0.84-1.6-1.6h-3.8
		c-0.42,0.01-0.76-0.31-0.78-0.73c-0.01-0.42,0.31-0.76,0.73-0.78c0.02,0,0.04,0,0.05,0h3.81
		C674.06,387.25,675.02,386.56,676.09,386.56L676.09,386.56z"/>
</g>
</svg>
