<?xml version="1.0" encoding="utf-8"?>
<!-- Generator: Adobe Illustrator 26.2.1, SVG Export Plug-In . SVG Version: 6.00 Build 0)  -->
<svg version="1.1" id="Capa_1" xmlns="http://www.w3.org/2000/svg" xmlns:xlink="http://www.w3.org/1999/xlink" x="0px" y="0px"
	 viewBox="0 0 20 20" style="enable-background:new 0 0 20 20;" xml:space="preserve">
<style type="text/css">
	.st0{fill:#0684F2;}
	.st1{fill:#4A4A49;}
	.st2{fill:#FFFFFF;}
	.st3{fill-rule:evenodd;clip-rule:evenodd;fill:#4A4A49;}
	.st4{fill:#71CF81;}
	.st5{fill-rule:evenodd;clip-rule:evenodd;fill:#FFFFFF;}
	.st6{fill:#00C356;}
	.st7{fill:#FF0303;}
	.st8{fill:#5A5A60;}
	.st9{fill:#FF7012;}
	.st10{fill-rule:evenodd;clip-rule:evenodd;fill:#FF7012;}
	.st11{fill:#FF9A3E;}
	.st12{fill:none;stroke:#606060;stroke-width:1.25;stroke-linecap:round;stroke-miterlimit:10;}
	.st13{fill:#606060;}
	.st14{fill:none;stroke:#FFFFFF;stroke-width:1.25;stroke-linecap:round;stroke-miterlimit:10;}
	.st15{fill:#8CC63E;}
	.st16{fill:none;stroke:#FFFFFF;stroke-width:2;stroke-linecap:round;stroke-miterlimit:10;}
	.st17{fill:none;}
	.st18{fill:none;stroke:#FFFFFF;stroke-width:3;stroke-linecap:round;stroke-linejoin:round;}
	.st19{fill:#0684F2;stroke:#FFFFFF;stroke-width:1.3;stroke-linecap:round;stroke-miterlimit:10;}
	.st20{fill:#EEBEA8;}
	.st21{fill:none;stroke:#FF67FE;stroke-width:2;stroke-miterlimit:22.9256;}
	.st22{fill:none;stroke:#FFCF00;stroke-width:2;stroke-linecap:round;stroke-linejoin:round;stroke-miterlimit:22.9256;}
	.st23{fill:none;stroke:#FFCF00;stroke-width:2;stroke-miterlimit:22.9256;}
	.st24{fill:#FF67FE;}
	.st25{fill-rule:evenodd;clip-rule:evenodd;fill:#454FFF;}
</style>
<g>
	<path class="st0" d="M6.81,11.4v-0.37c0-0.9,0.73-1.63,1.63-1.63h3.13c0.9,0,1.63,0.73,1.63,1.63v0.37h3.59L20,5.88V5.61
		c0-0.83-0.67-1.51-1.51-1.51h-3.82V2.38c0-1.28-1.04-2.32-2.32-2.32h-4.7c-1.28,0-2.32,1.04-2.32,2.32V4.1H1.5
		C0.67,4.1,0,4.78,0,5.6v0.27l3.22,5.52H6.81z M6.57,2.38c0-0.59,0.48-1.07,1.07-1.07h4.7c0.59,0,1.07,0.48,1.07,1.07V4.1H6.57V2.38
		z"/>
	<path class="st0" d="M17.5,12.65h-4.31v0.37c0,0.9-0.73,1.63-1.63,1.63H8.43c-0.9,0-1.63-0.73-1.63-1.63v-0.37H2.5L0,8.36v8.98
		c0,1.44,1.17,2.6,2.6,2.6H17.4c1.44,0,2.6-1.17,2.6-2.6V8.36L17.5,12.65z"/>
	<path class="st0" d="M8.06,13.02c0,0.21,0.17,0.38,0.38,0.38h3.13c0.21,0,0.38-0.17,0.38-0.38v-1.99c0-0.21-0.17-0.38-0.38-0.38
		H8.43c-0.21,0-0.38,0.17-0.38,0.38V13.02z"/>
</g>
</svg>
