<?xml version="1.0" encoding="utf-8"?>
<!-- Generator: Adobe Illustrator 26.2.1, SVG Export Plug-In . SVG Version: 6.00 Build 0)  -->
<svg version="1.1" id="Capa_1" xmlns="http://www.w3.org/2000/svg" xmlns:xlink="http://www.w3.org/1999/xlink" x="0px" y="0px"
	 viewBox="0 0 20 20" style="enable-background:new 0 0 20 20;" xml:space="preserve">
<style type="text/css">
	.st0{fill:#0684F2;}
	.st1{fill:#4A4A49;}
	.st2{fill:#FFFFFF;}
	.st3{fill-rule:evenodd;clip-rule:evenodd;fill:#4A4A49;}
	.st4{fill:#71CF81;}
	.st5{fill-rule:evenodd;clip-rule:evenodd;fill:#FFFFFF;}
	.st6{fill:#00C356;}
	.st7{fill:#FF0303;}
	.st8{fill:#5A5A60;}
	.st9{fill:#FF7012;}
	.st10{fill-rule:evenodd;clip-rule:evenodd;fill:#FF7012;}
	.st11{fill:#FF9A3E;}
	.st12{fill:none;stroke:#606060;stroke-width:1.25;stroke-linecap:round;stroke-miterlimit:10;}
	.st13{fill:#606060;}
	.st14{fill:none;stroke:#FFFFFF;stroke-width:1.25;stroke-linecap:round;stroke-miterlimit:10;}
	.st15{fill:#8CC63E;}
	.st16{fill:none;stroke:#FFFFFF;stroke-width:2;stroke-linecap:round;stroke-miterlimit:10;}
	.st17{fill:none;}
	.st18{fill:none;stroke:#FFFFFF;stroke-width:3;stroke-linecap:round;stroke-linejoin:round;}
	.st19{fill:#0684F2;stroke:#FFFFFF;stroke-width:1.3;stroke-linecap:round;stroke-miterlimit:10;}
	.st20{fill:#EEBEA8;}
	.st21{fill:none;stroke:#FF67FE;stroke-width:2;stroke-miterlimit:22.9256;}
	.st22{fill:none;stroke:#FFCF00;stroke-width:2;stroke-linecap:round;stroke-linejoin:round;stroke-miterlimit:22.9256;}
	.st23{fill:none;stroke:#FFCF00;stroke-width:2;stroke-miterlimit:22.9256;}
	.st24{fill:#FF67FE;}
	.st25{fill-rule:evenodd;clip-rule:evenodd;fill:#454FFF;}
</style>
<g>
	<path class="st9" d="M16.41,1.51h-2.67v2h2.67c0.87,0,1.58,0.71,1.58,1.58v11.32c0,0.87-0.71,1.58-1.58,1.58H3.59
		c-0.87,0-1.58-0.71-1.58-1.58V5.09c0-0.87,0.71-1.58,1.58-1.58h2.67v-2H3.59c-1.98,0-3.58,1.61-3.58,3.58v11.32
		c0,1.98,1.61,3.58,3.58,3.58h12.81c1.98,0,3.58-1.61,3.58-3.58V5.09C19.99,3.12,18.38,1.51,16.41,1.51z"/>
	<polygon class="st9" points="5.46,7.95 4.05,9.36 10,15.31 15.95,9.36 14.54,7.95 11,11.49 11,0 9,0 9,11.49 	"/>
</g>
</svg>
