<?xml version="1.0" encoding="utf-8"?>
<!-- Generator: Adobe Illustrator 26.2.1, SVG Export Plug-In . SVG Version: 6.00 Build 0)  -->
<svg version="1.1" id="Capa_1" xmlns="http://www.w3.org/2000/svg" xmlns:xlink="http://www.w3.org/1999/xlink" x="0px" y="0px"
	 viewBox="0 0 20 8.65" style="enable-background:new 0 0 20 8.65;" xml:space="preserve">
<style type="text/css">
	.st0{fill:#0684F2;}
	.st1{fill:#3D3A3B;}
	.st2{fill:#4A4A49;}
	.st3{fill:#FF67FE;}
	.st4{fill:#30FF88;}
	.st5{fill:#878787;}
	.st6{fill:#EEBEA8;}
	.st7{fill:none;stroke:#FFFFFF;stroke-width:1.25;stroke-linecap:round;stroke-miterlimit:10;}
	.st8{fill:#FFFFFF;}
	.st9{fill:none;stroke:#FFFFFF;stroke-linecap:round;stroke-miterlimit:10;}
	.st10{fill:none;stroke:#4A4A49;stroke-linecap:round;stroke-miterlimit:10;}
	.st11{fill:#D3E7FF;}
	.st12{fill:none;stroke:#EEBEA8;stroke-width:2;stroke-linecap:round;stroke-linejoin:round;stroke-miterlimit:10;}
	.st13{fill:#4A4A49;stroke:#EEBEA8;stroke-miterlimit:10;}
	.st14{fill:#6300D3;}
	.st15{fill:#0068E6;}
	.st16{fill:#FF7012;}
	.st17{fill:none;stroke:#FF8720;stroke-miterlimit:10;}
	.st18{fill-rule:evenodd;clip-rule:evenodd;fill:#FF7012;}
	.st19{fill-rule:evenodd;clip-rule:evenodd;fill:#FFFFFF;}
	.st20{fill:none;stroke:#4A4A49;stroke-width:1.25;stroke-linecap:round;stroke-miterlimit:10;}
	.st21{fill:none;stroke:#69C6FF;stroke-width:1.25;stroke-miterlimit:10;}
	.st22{fill:none;stroke:#EEBEA8;stroke-width:1.5;stroke-linecap:round;stroke-miterlimit:10;}
	.st23{fill:none;stroke:#8759FF;stroke-width:0.25;stroke-miterlimit:10;}
	.st24{fill:none;stroke:#EEBEA8;stroke-width:1.25;stroke-miterlimit:10;}
	.st25{fill:#4A4A49;stroke:#EEBEA8;stroke-width:1.25;stroke-miterlimit:10;}
	.st26{fill:none;stroke:#4A4A49;stroke-width:1.25;stroke-miterlimit:10;}
	.st27{fill:none;stroke:#FFFFFF;stroke-width:1.25;stroke-linecap:round;stroke-linejoin:round;stroke-miterlimit:10;}
	.st28{fill:none;}
	.st29{fill-rule:evenodd;clip-rule:evenodd;}
	.st30{fill:none;stroke:#000000;stroke-width:2.800000e-04;stroke-miterlimit:22.9256;}
	.st31{fill:#FF0000;}
	.st32{fill:none;stroke:#FF0000;stroke-width:2.800000e-04;stroke-miterlimit:22.9256;}
	.st33{fill:none;stroke:#FFFFFF;stroke-width:2.800000e-04;stroke-miterlimit:22.9256;}
	.st34{fill:#00C356;}
	.st35{fill:none;stroke:#FFFFFF;stroke-width:2;stroke-linecap:round;stroke-linejoin:round;}
	.st36{fill:#FFCF00;}
	.st37{fill:none;stroke:#FF67FE;stroke-width:2;stroke-miterlimit:22.9256;}
	.st38{fill:none;stroke:#FFCF00;stroke-width:2;stroke-miterlimit:22.9256;}
	.st39{fill-rule:evenodd;clip-rule:evenodd;fill:#00C356;}
	.st40{fill-rule:evenodd;clip-rule:evenodd;fill:#878787;}
	.st41{fill:#FF0303;}
	.st42{fill:#AAACFF;}
	.st43{fill:none;stroke:#FFF11B;stroke-width:1.25;stroke-miterlimit:10;}
	.st44{fill:#5D56FF;}
	.st45{fill:none;stroke:#FFF11B;stroke-width:2;stroke-miterlimit:10;}
	.st46{fill:none;stroke:#FFFFFF;stroke-linecap:round;stroke-linejoin:round;stroke-miterlimit:10;}
	.st47{fill:#CFA73E;}
	.st48{fill:#FFC336;}
	.st49{fill:#FF9A3E;}
	.st50{fill:none;stroke:#FFD6B5;stroke-width:1.25;stroke-linecap:round;stroke-miterlimit:10;}
	.st51{fill:none;stroke:#606060;stroke-width:1.25;stroke-linecap:round;stroke-miterlimit:10;}
	.st52{fill:#606060;}
	.st53{fill:none;stroke:#606060;stroke-width:1.25;stroke-miterlimit:10;}
</style>
<g id="Grupo_2374" transform="translate(65)">
	
		<ellipse id="Elipse_94" transform="matrix(0.7312 -0.6822 0.6822 0.7312 -17.9584 -30.8899)" class="st5" cx="-48.17" cy="7.34" rx="1.4" ry="1.22"/>
	
		<ellipse id="Elipse_95" transform="matrix(0.7313 -0.6821 0.6821 0.7313 -20.6567 -37.7464)" class="st5" cx="-58.23" cy="7.34" rx="1.4" ry="1.22"/>
	<path id="Trazado_5817" class="st5" d="M-45.3,6.57c-0.02,0-0.03-0.02-0.03-0.04c0,0,0,0,0,0l0.25-1.76
		C-45.02,4.45-45.2,4.13-45.5,4l-1.77-0.7c-0.11-0.04-0.2-0.13-0.25-0.23c-0.21-0.45-0.77-1.68-0.96-2.07c-0.27-0.62-0.91-1-1.83-1
		h-9.96c-0.2,0.01-0.37,0.15-0.4,0.35c-0.03,0.16,0.08,0.32,0.24,0.35c0.02,0,0.04,0.01,0.06,0h2.58c0.16-0.01,0.3,0.12,0.31,0.29
		c0,0.02,0,0.04,0,0.06c-0.03,0.2-0.2,0.34-0.4,0.35h-4.47c-0.2,0.01-0.37,0.15-0.4,0.35c-0.03,0.16,0.08,0.32,0.24,0.35
		c0.02,0,0.04,0.01,0.06,0h7.12c0.16,0,0.3,0.12,0.31,0.29c0,0.02,0,0.04,0,0.06c-0.03,0.2-0.2,0.34-0.4,0.35h-9.17
		c-0.2,0.01-0.37,0.15-0.4,0.35c-0.03,0.16,0.08,0.32,0.24,0.35c0.02,0,0.04,0.01,0.06,0h7.85c0.16,0,0.3,0.12,0.31,0.29
		c0,0.02,0,0.04,0,0.06c-0.03,0.2-0.2,0.34-0.4,0.35h-6.74c-0.2,0.01-0.37,0.15-0.4,0.35C-64.11,4.72-64,4.87-63.84,4.9
		c0.02,0,0.04,0.01,0.06,0h3.59c0.16,0,0.3,0.12,0.31,0.29c0,0.02,0,0.04,0,0.06c-0.03,0.2-0.2,0.34-0.4,0.35h-1.79
		c-0.2,0.01-0.37,0.15-0.4,0.35c-0.03,0.16,0.08,0.32,0.24,0.35c0.02,0,0.04,0.01,0.06,0h0.65c0.02,0,0.03,0.01,0.03,0.03
		c0,0,0,0,0,0.01l-0.07,0.51c-0.04,0.23,0.11,0.45,0.34,0.5c0.03,0.01,0.06,0.01,0.09,0.01h0.88c0-0.03,0-0.07,0-0.1
		c0.16-1.09,1.09-1.91,2.2-1.93c1-0.02,1.83,0.77,1.85,1.77c0,0.08,0,0.17-0.01,0.25h6.02c0-0.03,0-0.07,0-0.1
		c0.16-1.09,1.09-1.91,2.2-1.93c1-0.02,1.83,0.77,1.85,1.78c0,0.08,0,0.17-0.01,0.25h0.67c0.23-0.01,0.43-0.18,0.47-0.41
		c0.04-0.17-0.07-0.34-0.23-0.38C-45.26,6.57-45.28,6.57-45.3,6.57z M-48.25,3.2h-2.89c-0.11,0-0.21-0.09-0.21-0.2
		c0-0.01,0-0.03,0-0.04l0.19-1.38c0.02-0.13,0.14-0.23,0.27-0.24h1.82c0.14,0,0.26,0.07,0.32,0.2l0.64,1.41
		c0.05,0.08,0.02,0.18-0.06,0.23C-48.2,3.19-48.23,3.2-48.25,3.2L-48.25,3.2z"/>
</g>
</svg>
