<?xml version="1.0" encoding="utf-8"?>
<!-- Generator: Adobe Illustrator 26.2.1, SVG Export Plug-In . SVG Version: 6.00 Build 0)  -->
<svg version="1.1" id="Capa_1" xmlns="http://www.w3.org/2000/svg" xmlns:xlink="http://www.w3.org/1999/xlink" x="0px" y="0px"
	 viewBox="0 0 20 20" style="enable-background:new 0 0 20 20;" xml:space="preserve">
<style type="text/css">
	.st0{fill:#0684F2;}
	.st1{fill:#4A4A49;}
	.st2{fill:#FFFFFF;}
	.st3{fill-rule:evenodd;clip-rule:evenodd;fill:#4A4A49;}
	.st4{fill:#71CF81;}
	.st5{fill-rule:evenodd;clip-rule:evenodd;fill:#FFFFFF;}
	.st6{fill:#00C356;}
	.st7{fill:#FF0303;}
	.st8{fill:#5A5A60;}
	.st9{fill:#FF7012;}
	.st10{fill-rule:evenodd;clip-rule:evenodd;fill:#FF7012;}
	.st11{fill:#FF9A3E;}
	.st12{fill:none;stroke:#606060;stroke-width:1.25;stroke-linecap:round;stroke-miterlimit:10;}
	.st13{fill:#606060;}
	.st14{fill:none;stroke:#FFFFFF;stroke-width:1.25;stroke-linecap:round;stroke-miterlimit:10;}
	.st15{fill:#8CC63E;}
	.st16{fill:none;stroke:#FFFFFF;stroke-width:2;stroke-linecap:round;stroke-miterlimit:10;}
	.st17{fill:none;}
	.st18{fill:none;stroke:#FFFFFF;stroke-width:3;stroke-linecap:round;stroke-linejoin:round;}
	.st19{fill:#0684F2;stroke:#FFFFFF;stroke-width:1.3;stroke-linecap:round;stroke-miterlimit:10;}
	.st20{fill:#EEBEA8;}
	.st21{fill:none;stroke:#FF67FE;stroke-width:2;stroke-miterlimit:22.9256;}
	.st22{fill:none;stroke:#FFCF00;stroke-width:2;stroke-linecap:round;stroke-linejoin:round;stroke-miterlimit:22.9256;}
	.st23{fill:none;stroke:#FFCF00;stroke-width:2;stroke-miterlimit:22.9256;}
	.st24{fill:#FF67FE;}
	.st25{fill-rule:evenodd;clip-rule:evenodd;fill:#454FFF;}
</style>
<path class="st1" d="M17.1,1.68c-0.32-0.14-0.68-0.21-1.05-0.21h0h-0.57v0.96c0,1.03-0.84,1.87-1.87,1.87
	c-1.03,0-1.87-0.84-1.87-1.87V1.47H7v0.96C7,3.46,6.17,4.3,5.13,4.3S3.26,3.46,3.26,2.43V1.47H2.7C1.21,1.47,0,2.67,0,4.17v11.88
	c0,1.49,1.21,2.7,2.7,2.7h7.11c-0.25-0.36-0.46-0.76-0.63-1.17H2.7c-0.84,0-1.53-0.69-1.53-1.53V7.28h16.41v1.89
	c0.41,0.18,0.81,0.38,1.17,0.63V4.17C18.75,3.05,18.07,2.09,17.1,1.68z"/>
<circle class="st1" cx="15.07" cy="15.07" r="4.93"/>
<path class="st1" d="M8.32,10.03h2.11c0.32,0,0.59-0.26,0.59-0.59s-0.26-0.59-0.59-0.59H8.32C8,8.86,7.73,9.12,7.73,9.45
	S8,10.03,8.32,10.03z"/>
<path class="st1" d="M5.13,3.36c0.26,0,0.49-0.1,0.66-0.27C5.62,3.26,5.39,3.36,5.13,3.36L5.13,3.36z"/>
<path class="st0" d="M13.61,3.36c0.26,0,0.49-0.1,0.66-0.27C14.1,3.26,13.87,3.36,13.61,3.36L13.61,3.36z"/>
<path class="st1" d="M12.67,2.43c0,0.26,0.1,0.49,0.27,0.66c0.17,0.17,0.4,0.27,0.66,0.27c0.26,0,0.49-0.1,0.66-0.27
	c0.17-0.17,0.27-0.4,0.27-0.66V0.93c0-0.26-0.1-0.49-0.27-0.66C14.1,0.1,13.87,0,13.61,0c-0.26,0-0.49,0.1-0.66,0.27
	c-0.17,0.17-0.27,0.4-0.27,0.66V2.43z"/>
<path class="st1" d="M4.2,2.43c0,0.26,0.1,0.49,0.27,0.66c0.17,0.17,0.4,0.27,0.66,0.27c0.26,0,0.49-0.1,0.66-0.27
	c0.17-0.17,0.27-0.4,0.27-0.66V0.93c0-0.26-0.1-0.49-0.27-0.66C5.62,0.1,5.39,0,5.13,0C4.88,0,4.64,0.1,4.47,0.27
	C4.3,0.44,4.2,0.68,4.2,0.93V2.43z"/>
<path class="st1" d="M3.6,10.04h2.11c0.32,0,0.59-0.26,0.59-0.59c0-0.32-0.26-0.59-0.59-0.59H3.6c-0.32,0-0.59,0.26-0.59,0.59
	C3.01,9.78,3.27,10.04,3.6,10.04z"/>
<path class="st1" d="M3.6,13.03h2.11c0.32,0,0.59-0.26,0.59-0.59c0-0.32-0.26-0.59-0.59-0.59H3.6c-0.32,0-0.59,0.26-0.59,0.59
	C3.01,12.76,3.27,13.03,3.6,13.03z"/>
<path class="st1" d="M3.6,16.01h2.11c0.32,0,0.59-0.26,0.59-0.59c0-0.32-0.26-0.59-0.59-0.59H3.6c-0.32,0-0.59,0.26-0.59,0.59
	C3.01,15.75,3.27,16.01,3.6,16.01z"/>
<path class="st2" d="M18.02,15.72h-3.6V12.3c0-0.36,0.29-0.65,0.65-0.65s0.65,0.29,0.65,0.65v2.12h2.3c0.36,0,0.65,0.29,0.65,0.65
	S18.38,15.72,18.02,15.72z"/>
</svg>
