<?xml version="1.0" encoding="utf-8"?>
<!-- Generator: Adobe Illustrator 26.2.1, SVG Export Plug-In . SVG Version: 6.00 Build 0)  -->
<svg version="1.1" id="Capa_1" xmlns="http://www.w3.org/2000/svg" xmlns:xlink="http://www.w3.org/1999/xlink" x="0px" y="0px"
	 viewBox="0 0 20 20" style="enable-background:new 0 0 20 20;" xml:space="preserve">
<style type="text/css">
	.st0{fill:#0684F2;}
	.st1{fill:#3D3A3B;}
	.st2{fill:#4A4A49;}
	.st3{fill:#FF67FE;}
	.st4{fill:#30FF88;}
	.st5{fill:#878787;}
	.st6{fill:#EEBEA8;}
	.st7{fill:none;stroke:#FFFFFF;stroke-width:1.25;stroke-linecap:round;stroke-miterlimit:10;}
	.st8{fill:#FFFFFF;}
	.st9{fill:none;stroke:#FFFFFF;stroke-linecap:round;stroke-miterlimit:10;}
	.st10{fill:none;stroke:#4A4A49;stroke-linecap:round;stroke-miterlimit:10;}
	.st11{fill:#D3E7FF;}
	.st12{fill:none;stroke:#EEBEA8;stroke-width:2;stroke-linecap:round;stroke-linejoin:round;stroke-miterlimit:10;}
	.st13{fill:#4A4A49;stroke:#EEBEA8;stroke-miterlimit:10;}
	.st14{fill:#6300D3;}
	.st15{fill:#0068E6;}
	.st16{fill:#FF7012;}
	.st17{fill:none;stroke:#FF8720;stroke-miterlimit:10;}
	.st18{fill-rule:evenodd;clip-rule:evenodd;fill:#FF7012;}
	.st19{fill-rule:evenodd;clip-rule:evenodd;fill:#FFFFFF;}
	.st20{fill:none;stroke:#4A4A49;stroke-width:1.25;stroke-linecap:round;stroke-miterlimit:10;}
	.st21{fill:none;stroke:#69C6FF;stroke-width:1.25;stroke-miterlimit:10;}
	.st22{fill:none;stroke:#EEBEA8;stroke-width:1.5;stroke-linecap:round;stroke-miterlimit:10;}
	.st23{fill:none;stroke:#8759FF;stroke-width:0.25;stroke-miterlimit:10;}
	.st24{fill:none;stroke:#EEBEA8;stroke-width:1.25;stroke-miterlimit:10;}
	.st25{fill:#4A4A49;stroke:#EEBEA8;stroke-width:1.25;stroke-miterlimit:10;}
	.st26{fill:none;stroke:#4A4A49;stroke-width:1.25;stroke-miterlimit:10;}
	.st27{fill:none;stroke:#FFFFFF;stroke-width:1.25;stroke-linecap:round;stroke-linejoin:round;stroke-miterlimit:10;}
	.st28{fill:none;}
	.st29{fill-rule:evenodd;clip-rule:evenodd;}
	.st30{fill:none;stroke:#000000;stroke-width:2.800000e-04;stroke-miterlimit:22.9256;}
	.st31{fill:#FF0000;}
	.st32{fill:none;stroke:#FF0000;stroke-width:2.800000e-04;stroke-miterlimit:22.9256;}
	.st33{fill:none;stroke:#FFFFFF;stroke-width:2.800000e-04;stroke-miterlimit:22.9256;}
	.st34{fill:#00C356;}
	.st35{fill:none;stroke:#FFFFFF;stroke-width:2;stroke-linecap:round;stroke-linejoin:round;}
	.st36{fill:#FFCF00;}
	.st37{fill:none;stroke:#FF67FE;stroke-width:2;stroke-miterlimit:22.9256;}
	.st38{fill:none;stroke:#FFCF00;stroke-width:2;stroke-miterlimit:22.9256;}
	.st39{fill-rule:evenodd;clip-rule:evenodd;fill:#00C356;}
	.st40{fill-rule:evenodd;clip-rule:evenodd;fill:#878787;}
	.st41{fill:#FF0303;}
	.st42{fill:#AAACFF;}
	.st43{fill:none;stroke:#FFF11B;stroke-width:1.25;stroke-miterlimit:10;}
	.st44{fill:#5D56FF;}
	.st45{fill:none;stroke:#FFF11B;stroke-width:2;stroke-miterlimit:10;}
	.st46{fill:none;stroke:#FFFFFF;stroke-linecap:round;stroke-linejoin:round;stroke-miterlimit:10;}
	.st47{fill:#CFA73E;}
	.st48{fill:#FFC336;}
	.st49{fill:#FF9A3E;}
	.st50{fill:none;stroke:#FFD6B5;stroke-width:1.25;stroke-linecap:round;stroke-miterlimit:10;}
	.st51{fill:none;stroke:#606060;stroke-width:1.25;stroke-linecap:round;stroke-miterlimit:10;}
	.st52{fill:#606060;}
	.st53{fill:none;stroke:#606060;stroke-width:1.25;stroke-miterlimit:10;}
</style>
<g>
	<path class="st2" d="M17.12,1.56h-0.61v1.03c0,1.1-0.9,2-2,2c-1.1,0-2-0.9-2-2V1.56H7.47v1.03c0,1.1-0.9,2-2,2c-1.1,0-2-0.9-2-2
		V1.56h-0.6C1.29,1.56,0,2.85,0,4.44v1.43v11.25C0,18.71,1.29,20,2.88,20h14.24h0c0.4,0,0.78-0.08,1.12-0.23
		c1.03-0.44,1.76-1.46,1.76-2.65V5.87V4.44C20,2.85,18.71,1.56,17.12,1.56z"/>
	<path class="st8" d="M1.25,17.12c0,0.9,0.73,1.63,1.63,1.63h14.24c0.9,0,1.63-0.73,1.63-1.63V7.79H1.25V17.12z"/>
	<path id="Rectángulo_10281_00000127033541616316169240000008234201019284050833_" class="st2" d="M14.52,0L14.52,0
		c0.55,0,1,0.45,1,1v1.59c0,0.55-0.45,1-1,1l0,0c-0.55,0-1-0.45-1-1V1C13.52,0.45,13.97,0,14.52,0z"/>
	<path id="Rectángulo_10282_00000092416632402465814170000001287377872869013386_" class="st2" d="M5.48,0L5.48,0
		c0.55,0,1,0.45,1,1v1.59c0,0.55-0.45,1-1,1l0,0c-0.55,0-1-0.45-1-1V1C4.48,0.45,4.93,0,5.48,0z"/>
	<g>
		<g>
			<path class="st2" d="M6.08,10.73H3.83c-0.34,0-0.62-0.28-0.62-0.62s0.28-0.62,0.62-0.62h2.25c0.34,0,0.62,0.28,0.62,0.62
				S6.42,10.73,6.08,10.73z"/>
			<path class="st2" d="M11.13,10.73H8.88c-0.34,0-0.62-0.28-0.62-0.62s0.28-0.62,0.62-0.62h2.25c0.34,0,0.62,0.28,0.62,0.62
				S11.47,10.73,11.13,10.73z"/>
			<path class="st2" d="M16.17,10.73h-2.25c-0.34,0-0.62-0.28-0.62-0.62s0.28-0.62,0.62-0.62h2.25c0.34,0,0.62,0.28,0.62,0.62
				S16.51,10.73,16.17,10.73z"/>
		</g>
		<g>
			<path class="st2" d="M6.08,13.91H3.83c-0.34,0-0.62-0.28-0.62-0.62s0.28-0.62,0.62-0.62h2.25c0.34,0,0.62,0.28,0.62,0.62
				S6.42,13.91,6.08,13.91z"/>
			<path class="st2" d="M11.13,13.91H8.88c-0.34,0-0.62-0.28-0.62-0.62s0.28-0.62,0.62-0.62h2.25c0.34,0,0.62,0.28,0.62,0.62
				S11.47,13.91,11.13,13.91z"/>
			<path class="st2" d="M16.17,13.91h-2.25c-0.34,0-0.62-0.28-0.62-0.62s0.28-0.62,0.62-0.62h2.25c0.34,0,0.62,0.28,0.62,0.62
				S16.51,13.91,16.17,13.91z"/>
		</g>
		<path class="st2" d="M6.08,17.1H3.83c-0.34,0-0.62-0.28-0.62-0.62s0.28-0.62,0.62-0.62h2.25c0.34,0,0.62,0.28,0.62,0.62
			S6.42,17.1,6.08,17.1z"/>
		<path class="st2" d="M11.13,17.1H8.88c-0.34,0-0.62-0.28-0.62-0.62s0.28-0.62,0.62-0.62h2.25c0.34,0,0.62,0.28,0.62,0.62
			S11.47,17.1,11.13,17.1z"/>
	</g>
</g>
</svg>
