<?xml version="1.0" encoding="utf-8"?>
<!-- Generator: Adobe Illustrator 26.2.1, SVG Export Plug-In . SVG Version: 6.00 Build 0)  -->
<svg version="1.1" id="Capa_1" xmlns="http://www.w3.org/2000/svg" xmlns:xlink="http://www.w3.org/1999/xlink" x="0px" y="0px"
	 viewBox="0 0 20 18.44" style="enable-background:new 0 0 20 18.44;" xml:space="preserve">
<style type="text/css">
	.st0{fill:#0684F2;}
	.st1{fill:#3D3A3B;}
	.st2{fill:#FFFFFF;}
	.st3{fill:#4A4A49;}
	.st4{fill:#FF67FE;}
	.st5{fill:#30FF88;}
	.st6{fill:#878787;}
	.st7{fill:#EEBEA8;}
	.st8{fill:none;stroke:#FFFFFF;stroke-width:1.25;stroke-linecap:round;stroke-miterlimit:10;}
	.st9{fill:none;stroke:#FFFFFF;stroke-linecap:round;stroke-miterlimit:10;}
	.st10{fill:none;stroke:#4A4A49;stroke-linecap:round;stroke-miterlimit:10;}
	.st11{fill:#D3E7FF;}
	.st12{fill:none;stroke:#EEBEA8;stroke-width:2;stroke-linecap:round;stroke-linejoin:round;stroke-miterlimit:10;}
	.st13{fill:#4A4A49;stroke:#EEBEA8;stroke-miterlimit:10;}
	.st14{fill:#6300D3;}
	.st15{fill:#0068E6;}
	.st16{fill:#FF7012;}
	.st17{fill:none;stroke:#FF8720;stroke-miterlimit:10;}
	.st18{fill-rule:evenodd;clip-rule:evenodd;fill:#FF7012;}
	.st19{fill-rule:evenodd;clip-rule:evenodd;fill:#FFFFFF;}
	.st20{fill:none;stroke:#4A4A49;stroke-width:1.25;stroke-linecap:round;stroke-miterlimit:10;}
	.st21{fill:none;stroke:#69C6FF;stroke-width:1.25;stroke-miterlimit:10;}
	.st22{fill:none;stroke:#EEBEA8;stroke-width:1.5;stroke-linecap:round;stroke-miterlimit:10;}
	.st23{fill:none;stroke:#8759FF;stroke-width:0.25;stroke-miterlimit:10;}
	.st24{fill:none;stroke:#EEBEA8;stroke-width:1.25;stroke-miterlimit:10;}
	.st25{fill:#4A4A49;stroke:#EEBEA8;stroke-width:1.25;stroke-miterlimit:10;}
	.st26{fill:none;stroke:#4A4A49;stroke-width:1.25;stroke-miterlimit:10;}
	.st27{fill:none;stroke:#FFFFFF;stroke-width:1.25;stroke-linecap:round;stroke-linejoin:round;stroke-miterlimit:10;}
	.st28{fill:none;}
	.st29{fill-rule:evenodd;clip-rule:evenodd;}
	.st30{fill:none;stroke:#000000;stroke-width:2.800000e-04;stroke-miterlimit:22.9256;}
	.st31{fill:#FF0000;}
	.st32{fill:none;stroke:#FF0000;stroke-width:2.800000e-04;stroke-miterlimit:22.9256;}
	.st33{fill:none;stroke:#FFFFFF;stroke-width:2.800000e-04;stroke-miterlimit:22.9256;}
	.st34{fill:#00C356;}
	.st35{fill:none;stroke:#FFFFFF;stroke-width:2;stroke-linecap:round;stroke-linejoin:round;}
	.st36{fill:#FFCF00;}
	.st37{fill:none;stroke:#FF67FE;stroke-width:2;stroke-miterlimit:22.9256;}
	.st38{fill:none;stroke:#FFCF00;stroke-width:2;stroke-miterlimit:22.9256;}
	.st39{fill-rule:evenodd;clip-rule:evenodd;fill:#00C356;}
	.st40{fill-rule:evenodd;clip-rule:evenodd;fill:#878787;}
	.st41{fill:#FF0303;}
	.st42{fill:#AAACFF;}
	.st43{fill:none;stroke:#FFF11B;stroke-width:1.25;stroke-miterlimit:10;}
	.st44{fill:#5D56FF;}
	.st45{fill:none;stroke:#FFF11B;stroke-width:2;stroke-miterlimit:10;}
	.st46{fill:none;stroke:#FFFFFF;stroke-linecap:round;stroke-linejoin:round;stroke-miterlimit:10;}
	.st47{fill:#CFA73E;}
	.st48{fill:#FFC336;}
	.st49{fill:#FF9A3E;}
	.st50{fill:none;stroke:#FFD6B5;stroke-width:1.25;stroke-linecap:round;stroke-miterlimit:10;}
	.st51{fill:none;stroke:#606060;stroke-width:1.25;stroke-linecap:round;stroke-miterlimit:10;}
	.st52{fill:#606060;}
	.st53{fill:none;stroke:#606060;stroke-width:1.25;stroke-miterlimit:10;}
</style>
<path class="st3" d="M5.48,2.02c0.28,0,0.52-0.11,0.7-0.29C6,1.91,5.75,2.02,5.48,2.02L5.48,2.02z"/>
<path class="st3" d="M14.52,2.02c0.28,0,0.52-0.11,0.7-0.29C15.04,1.91,14.79,2.02,14.52,2.02L14.52,2.02z"/>
<path class="st2" d="M1.25,6.21v9.35c0,0.9,0.73,1.63,1.63,1.63h14.24c0.9,0,1.63-0.73,1.63-1.63V6.21H1.25z"/>
<path class="st3" d="M3.84,9.15h2.25c0.34,0,0.62-0.28,0.62-0.62S6.43,7.9,6.09,7.9H3.84c-0.34,0-0.62,0.28-0.62,0.62
	S3.49,9.15,3.84,9.15z"/>
<path class="st3" d="M3.84,12.33h2.25c0.34,0,0.62-0.28,0.62-0.62s-0.28-0.62-0.62-0.62H3.84c-0.34,0-0.62,0.28-0.62,0.62
	S3.49,12.33,3.84,12.33z"/>
<path class="st3" d="M3.84,15.51h2.25c0.34,0,0.62-0.28,0.62-0.62s-0.28-0.62-0.62-0.62H3.84c-0.34,0-0.62,0.28-0.62,0.62
	S3.49,15.51,3.84,15.51z"/>
<path class="st3" d="M8.88,9.15h2.25c0.34,0,0.62-0.28,0.62-0.62S11.47,7.9,11.13,7.9H8.88c-0.34,0-0.62,0.28-0.62,0.62
	S8.53,9.15,8.88,9.15z"/>
<path class="st3" d="M13.91,9.15h2.25c0.34,0,0.62-0.28,0.62-0.62S16.51,7.9,16.16,7.9h-2.25c-0.34,0-0.62,0.28-0.62,0.62
	S13.57,9.15,13.91,9.15z"/>
<path class="st3" d="M13.52,1.02c0,0.28,0.11,0.52,0.29,0.71c0.18,0.18,0.43,0.29,0.7,0.29c0.28,0,0.52-0.11,0.7-0.29
	c0.18-0.18,0.29-0.43,0.29-0.71v-1.59c0-0.28-0.11-0.52-0.29-0.7c-0.18-0.18-0.43-0.29-0.7-0.29c-0.28,0-0.52,0.11-0.7,0.29
	c-0.18,0.18-0.29,0.43-0.29,0.7V1.02z"/>
<path class="st3" d="M4.48,1.02c0,0.28,0.11,0.52,0.29,0.71c0.18,0.18,0.43,0.29,0.7,0.29c0.28,0,0.52-0.11,0.7-0.29
	C6.36,1.55,6.47,1.3,6.47,1.02v-1.59c0-0.28-0.11-0.52-0.29-0.7C6-1.45,5.75-1.56,5.48-1.56c-0.28,0-0.52,0.11-0.7,0.29
	c-0.18,0.18-0.29,0.43-0.29,0.7V1.02z"/>
<path class="st3" d="M18.24,0.23C17.9,0.08,17.52,0,17.12,0h0h-0.61v1.02c0,1.1-0.9,2-2,2c-1.1,0-2-0.9-2-2V0H7.47v1.02
	c0,1.1-0.9,2-2,2c-1.1,0-2-0.9-2-2V0h-0.6C1.29,0,0,1.29,0,2.88v12.68c0,1.59,1.29,2.88,2.88,2.88h14.24h0
	c0.4,0,0.78-0.08,1.12-0.23c1.03-0.44,1.76-1.46,1.76-2.65V2.88C20,1.69,19.27,0.66,18.24,0.23z M18.75,15.56
	c0,0.9-0.73,1.63-1.63,1.63H2.88c-0.9,0-1.63-0.73-1.63-1.63V6.21h17.5V15.56z"/>
<path class="st3" d="M10.18,11.92c-0.24-0.24-0.64-0.24-0.88,0c-0.24,0.24-0.24,0.64,0,0.88l2.69,2.69l4.17-4.17
	c0.24-0.24,0.24-0.64,0-0.88c-0.24-0.24-0.64-0.24-0.88,0l-3.28,3.28L10.18,11.92z"/>
</svg>
