<?xml version="1.0" encoding="utf-8"?>
<!-- Generator: Adobe Illustrator 26.2.1, SVG Export Plug-In . SVG Version: 6.00 Build 0)  -->
<svg version="1.1" id="Capa_1" xmlns="http://www.w3.org/2000/svg" xmlns:xlink="http://www.w3.org/1999/xlink" x="0px" y="0px"
	 viewBox="0 0 20 20" style="enable-background:new 0 0 20 20;" xml:space="preserve">
<style type="text/css">
	.st0{fill:#0684F2;}
	.st1{fill:#4A4A49;}
	.st2{fill:#FFFFFF;}
	.st3{fill-rule:evenodd;clip-rule:evenodd;fill:#4A4A49;}
	.st4{fill:#71CF81;}
	.st5{fill-rule:evenodd;clip-rule:evenodd;fill:#FFFFFF;}
	.st6{fill:#00C356;}
	.st7{fill:#FF0303;}
	.st8{fill:#5A5A60;}
	.st9{fill:#FF7012;}
	.st10{fill-rule:evenodd;clip-rule:evenodd;fill:#FF7012;}
	.st11{fill:#FF9A3E;}
	.st12{fill:none;stroke:#606060;stroke-width:1.25;stroke-linecap:round;stroke-miterlimit:10;}
	.st13{fill:#606060;}
	.st14{fill:none;stroke:#FFFFFF;stroke-width:1.25;stroke-linecap:round;stroke-miterlimit:10;}
	.st15{fill:#8CC63E;}
	.st16{fill:none;stroke:#FFFFFF;stroke-width:2;stroke-linecap:round;stroke-miterlimit:10;}
	.st17{fill:none;}
	.st18{fill:none;stroke:#FFFFFF;stroke-width:3;stroke-linecap:round;stroke-linejoin:round;}
	.st19{fill:#0684F2;stroke:#FFFFFF;stroke-width:1.3;stroke-linecap:round;stroke-miterlimit:10;}
	.st20{fill:#EEBEA8;}
	.st21{fill:none;stroke:#FF67FE;stroke-width:2;stroke-miterlimit:22.9256;}
	.st22{fill:none;stroke:#FFCF00;stroke-width:2;stroke-linecap:round;stroke-linejoin:round;stroke-miterlimit:22.9256;}
	.st23{fill:none;stroke:#FFCF00;stroke-width:2;stroke-miterlimit:22.9256;}
	.st24{fill:#FF67FE;}
	.st25{fill-rule:evenodd;clip-rule:evenodd;fill:#454FFF;}
</style>
<path class="st0" d="M5.48,3.58c0.28,0,0.52-0.11,0.7-0.29C6,3.47,5.75,3.58,5.48,3.58L5.48,3.58z"/>
<path class="st0" d="M14.52,3.58c0.28,0,0.52-0.11,0.7-0.29C15.04,3.47,14.79,3.58,14.52,3.58L14.52,3.58z"/>
<path class="st0" d="M13.52,2.59c0,0.28,0.11,0.52,0.29,0.71c0.18,0.18,0.43,0.29,0.7,0.29c0.28,0,0.52-0.11,0.7-0.29
	c0.18-0.18,0.29-0.43,0.29-0.71V1c0-0.28-0.11-0.52-0.29-0.7C15.04,0.11,14.79,0,14.52,0c-0.28,0-0.52,0.11-0.7,0.29
	c-0.18,0.18-0.29,0.43-0.29,0.7V2.59z"/>
<path class="st0" d="M4.48,2.59c0,0.28,0.11,0.52,0.29,0.71c0.18,0.18,0.43,0.29,0.7,0.29c0.28,0,0.52-0.11,0.7-0.29
	c0.18-0.18,0.29-0.43,0.29-0.71V1c0-0.28-0.11-0.52-0.29-0.7C6,0.11,5.75,0,5.48,0C5.2,0,4.95,0.11,4.77,0.29
	C4.59,0.47,4.48,0.72,4.48,1V2.59z"/>
<path class="st0" d="M18.24,1.79c-0.34-0.15-0.72-0.23-1.12-0.23h0h-0.61v1.02c0,1.1-0.9,2-2,2c-1.1,0-2-0.9-2-2V1.56H7.47v1.02
	c0,1.1-0.9,2-2,2c-1.1,0-2-0.9-2-2V1.56h-0.6C1.29,1.56,0,2.85,0,4.44v12.68C0,18.71,1.29,20,2.88,20h14.24h0
	c0.4,0,0.78-0.08,1.12-0.23c1.03-0.44,1.76-1.46,1.76-2.65V4.44C20,3.25,19.27,2.23,18.24,1.79z"/>
<path class="st2" d="M18.75,17.12c0,0.9-0.73,1.63-1.63,1.63H2.88c-0.9,0-1.63-0.73-1.63-1.63V7.77h17.5V17.12z"/>
<path class="st0" d="M3.84,10.71h2.25c0.34,0,0.62-0.28,0.62-0.62S6.43,9.46,6.09,9.46H3.84c-0.34,0-0.62,0.28-0.62,0.62
	S3.49,10.71,3.84,10.71z"/>
<path class="st0" d="M3.84,13.89h2.25c0.34,0,0.62-0.28,0.62-0.62s-0.28-0.62-0.62-0.62H3.84c-0.34,0-0.62,0.28-0.62,0.62
	S3.49,13.89,3.84,13.89z"/>
<path class="st0" d="M3.84,17.08h2.25c0.34,0,0.62-0.28,0.62-0.62s-0.28-0.62-0.62-0.62H3.84c-0.34,0-0.62,0.28-0.62,0.62
	S3.49,17.08,3.84,17.08z"/>
<path class="st0" d="M8.88,10.71h2.25c0.34,0,0.62-0.28,0.62-0.62s-0.28-0.62-0.62-0.62H8.88c-0.34,0-0.62,0.28-0.62,0.62
	S8.53,10.71,8.88,10.71z"/>
<path class="st0" d="M10.63,13.49c-0.24-0.24-0.64-0.24-0.88,0c-0.24,0.24-0.24,0.64,0,0.88l2.69,2.69l4.17-4.17
	c0.24-0.24,0.24-0.64,0-0.88c-0.24-0.24-0.64-0.24-0.88,0l-3.28,3.28L10.63,13.49z"/>
</svg>
