<?xml version="1.0" encoding="utf-8"?>
<!-- Generator: Adobe Illustrator 26.2.1, SVG Export Plug-In . SVG Version: 6.00 Build 0)  -->
<svg version="1.1" id="Capa_1" xmlns="http://www.w3.org/2000/svg" xmlns:xlink="http://www.w3.org/1999/xlink" x="0px" y="0px"
	 viewBox="0 0 14.06 14.06" style="enable-background:new 0 0 14.06 14.06;" xml:space="preserve">
<style type="text/css">
	.st0{fill:#4A4A49;}
	.st1{fill:#FFFFFF;}
	.st2{fill:none;stroke:#B2B2B2;stroke-width:0.5;stroke-miterlimit:10;}
	.st3{fill:#E7E7E7;}
	.st4{fill:none;stroke:#0096E7;stroke-width:2;stroke-miterlimit:10;}
	.st5{fill:#606060;}
	.st6{fill:#FF7012;}
	.st7{fill:#43BAFF;}
	.st8{fill:none;stroke:#FF7012;stroke-width:0.75;stroke-miterlimit:10;}
	.st9{fill:#4A4A49;stroke:#FFFFFF;stroke-linecap:round;stroke-linejoin:round;stroke-miterlimit:10;}
	.st10{fill:none;stroke:#FFFFFF;stroke-linecap:round;stroke-linejoin:round;stroke-miterlimit:10;}
	.st11{fill:none;stroke:#FFFFFF;stroke-linecap:round;stroke-miterlimit:10;}
	.st12{fill:none;stroke:#4A4A49;stroke-linecap:round;stroke-miterlimit:10;}
	.st13{fill:#0684F2;}
	.st14{fill:#FFCB0D;}
	.st15{fill:#00C356;}
	.st16{fill:none;}
	.st17{fill:#FF4E55;}
	.st18{fill:none;stroke:#FF4E55;stroke-width:2.24;stroke-linecap:round;stroke-linejoin:round;stroke-miterlimit:10;}
	.st19{clip-path:url(#SVGID_00000049941288183624681280000015668241096144759716_);}
	.st20{fill:#E52421;}
	.st21{fill:#FF8610;}
	.st22{fill:#FFC200;}
	.st23{clip-path:url(#SVGID_00000173135491975195507760000014412708952449941411_);}
	.st24{fill:#F9DCA4;}
	.st25{fill:#DEC492;}
	.st26{fill:#677079;}
	.st27{fill:#FFE8BE;}
	.st28{fill:#434955;}
	.st29{fill:#1D1D1D;}
	.st30{fill:none;stroke:#FF7012;stroke-width:0.75;stroke-linecap:round;stroke-linejoin:round;stroke-miterlimit:10;}
	.st31{fill:#FFA2B0;}
	.st32{fill:none;stroke:#FF7012;stroke-miterlimit:10;}
	.st33{fill:#FF894B;}
	.st34{fill:none;stroke:#FF7012;stroke-linecap:round;stroke-linejoin:round;stroke-miterlimit:10;}
	.st35{fill:#0669BF;}
	.st36{fill:#0669BF;stroke:#FFFFFF;stroke-linecap:round;stroke-linejoin:round;stroke-miterlimit:10;}
	.st37{fill:#F4F4F4;}
	.st38{fill:#0444BF;}
	.st39{fill:#F2F6FF;}
	.st40{fill:#878787;}
	.st41{fill:#B2B2B2;}
	.st42{fill:#FFF8F0;}
	.st43{fill:#FFF1E3;}
	.st44{fill:none;stroke:#4A4A49;stroke-linecap:round;stroke-linejoin:round;stroke-miterlimit:10;}
	.st45{fill:none;stroke:#4A4A49;stroke-miterlimit:10;}
	.st46{fill:none;stroke:#F4F4F4;stroke-linecap:round;stroke-linejoin:round;stroke-miterlimit:10;}
	.st47{fill:none;stroke:#E7B600;stroke-miterlimit:10;}
	.st48{fill:none;stroke:#0684F2;stroke-miterlimit:10;}
	.st49{fill:#FF7012;stroke:#FFFFFF;stroke-linecap:round;stroke-linejoin:round;stroke-miterlimit:10;}
	.st50{fill:none;stroke:#606060;stroke-miterlimit:10;}
	.st51{fill:none;stroke:#FFFFFF;stroke-width:0.8;stroke-miterlimit:10;}
	.st52{fill:none;stroke:#FFFFFF;stroke-width:2;stroke-miterlimit:10;}
	.st53{fill:#FFFFFF;stroke:#FF7012;stroke-width:2;stroke-linecap:round;stroke-linejoin:round;stroke-miterlimit:10;}
	.st54{fill:none;stroke:#FF7012;stroke-width:2;stroke-linecap:round;stroke-linejoin:round;stroke-miterlimit:10;}
	.st55{fill:none;stroke:#FFFFFF;stroke-miterlimit:10;}
	.st56{fill:none;stroke:#FFFFFF;stroke-width:1.25;stroke-linecap:round;stroke-linejoin:round;stroke-miterlimit:10;}
	.st57{fill:#4A4A49;stroke:#FFFFFF;stroke-miterlimit:10;}
	.st58{fill:#FF7012;stroke:#FFFFFF;stroke-miterlimit:10;}
	.st59{fill:none;stroke:#FF7012;stroke-linecap:round;stroke-miterlimit:10;}
	.st60{fill:none;stroke:#FFFFFF;stroke-width:0.5;stroke-miterlimit:10;}
	.st61{fill:#AFCA13;}
	.st62{fill:#AFCA0A;}
	.st63{clip-path:url(#SVGID_00000142139556232189494020000013053106658536083091_);}
	.st64{fill:#44C9FF;}
	.st65{clip-path:url(#SVGID_00000111891295165313634370000014275128905418560418_);}
	.st66{fill:#F2F2F2;}
	.st67{fill:#232323;}
	.st68{fill:#6ADDF7;}
	.st69{fill:#102C3B;}
	.st70{fill:#0096E7;}
	.st71{fill:#FFEA38;}
	.st72{fill:#494947;}
	.st73{opacity:0.5;fill:#FFFFFF;}
	.st74{fill:#303030;}
</style>
<g>
	<g>
		
			<ellipse transform="matrix(0.3827 -0.9239 0.9239 0.3827 -2.1551 10.8343)" class="st0" cx="7.03" cy="7.03" rx="7.03" ry="7.03"/>
	</g>
	<path class="st1" d="M9.03,9.65c-0.29,0.39-0.71,0.66-1.26,0.81v1.19c-0.1,0.03-0.21,0.06-0.32,0.07c-0.11,0.01-0.2,0.01-0.28,0.01
		c-0.07,0-0.16-0.01-0.27-0.01c-0.11-0.01-0.21-0.03-0.32-0.07v-1.06c-0.19,0-0.37-0.01-0.54-0.03c-0.16-0.02-0.33-0.04-0.48-0.08
		c-0.16-0.03-0.31-0.08-0.47-0.13c-0.15-0.05-0.32-0.12-0.5-0.19c0.03-0.24,0.07-0.49,0.14-0.73c0.06-0.25,0.14-0.51,0.24-0.79
		c0.32,0.13,0.6,0.23,0.85,0.3c0.25,0.06,0.5,0.1,0.73,0.1c0.34,0,0.59-0.06,0.77-0.17C7.51,8.76,7.6,8.59,7.6,8.35
		c0-0.21-0.08-0.37-0.24-0.48S7.01,7.66,6.78,7.57L6.25,7.35c-0.2-0.09-0.39-0.18-0.57-0.29C5.5,6.95,5.34,6.82,5.21,6.67
		C5.08,6.52,4.97,6.34,4.9,6.13c-0.08-0.2-0.12-0.45-0.12-0.73c0-0.59,0.16-1.06,0.48-1.41c0.32-0.35,0.76-0.58,1.32-0.68V2.41
		C6.69,2.38,6.8,2.35,6.9,2.34c0.11-0.01,0.2-0.02,0.27-0.02c0.07,0,0.17,0.01,0.28,0.02c0.11,0.01,0.22,0.03,0.32,0.07v0.87
		C8,3.31,8.24,3.35,8.48,3.41c0.24,0.06,0.49,0.14,0.76,0.23C9.19,4.09,9.05,4.57,8.82,5.07C8.6,4.97,8.37,4.89,8.15,4.82
		c-0.22-0.07-0.51-0.1-0.85-0.1c-0.09,0-0.17,0.01-0.26,0.02C6.96,4.75,6.88,4.77,6.81,4.81C6.74,4.84,6.68,4.89,6.64,4.96
		C6.59,5.02,6.57,5.11,6.57,5.21c0,0.19,0.07,0.34,0.21,0.44c0.14,0.1,0.29,0.18,0.45,0.24L7.79,6.1c0.23,0.09,0.44,0.18,0.64,0.29
		c0.2,0.11,0.38,0.24,0.53,0.4c0.15,0.16,0.28,0.36,0.37,0.59c0.09,0.23,0.14,0.52,0.14,0.86C9.47,8.79,9.32,9.26,9.03,9.65z"/>
</g>
</svg>
