<?xml version="1.0" encoding="UTF-8"?>
<svg xmlns="http://www.w3.org/2000/svg" version="1.1" xmlns:xlink="http://www.w3.org/1999/xlink" viewBox="0 0 364.4 255.9">
  <defs>
    <style>
      .cls-1 {
        fill: #fd71c8;
      }

      .cls-2 {
        fill: #fff;
      }

      .cls-3 {
        fill: url(#Degradado_sin_nombre_2);
      }
    </style>
    <linearGradient id="Degradado_sin_nombre_2" data-name="Degradado sin nombre 2" x1="-4039" y1="-2158.3" x2="-4038.4" y2="-2158.3" gradientTransform="translate(2271396.9 -689015.9) rotate(-45) scale(518.3)" gradientUnits="userSpaceOnUse">
      <stop offset="0" stop-color="#2982f8"/>
      <stop offset=".3" stop-color="#10bcdf"/>
      <stop offset=".6" stop-color="#05d7d3"/>
      <stop offset="1" stop-color="#00e2ce"/>
    </linearGradient>
  </defs>
  <!-- Generator: Adobe Illustrator 28.7.1, SVG Export Plug-In . SVG Version: 1.2.0 Build 142)  -->
  <g>
    <g id="Capa_1">
      <g>
        <sodipodi:namedview id="namedview1" bordercolor="#000000" borderopacity="0.25" pagecolor="#ffffff">
          <inkscape:page id="page1" x="0" y="0" width="1122.52" height="793.70135" bleed="0" margin="10.140747 347.40799 104.23333 323.40668"/>
        </sodipodi:namedview>
        <path id="path4" class="cls-3" d="M61.8,123.8c0,13.6,2.3,26.6,6.6,38.8h0c2.6,15.2,3,22,1,32.5h0c-1.4,7.5-5.8,12.3-5,19.4h0c.7,6.3,1.2,10,6.9,16.1h0c6.7,6.8,13,6.4,14.9,6.7h0c6.9,1.1,12-2.9,19.5-3.8h0c11.8-1.5,20.4-2.3,39.8,2.5h0c0,0,.2,0,.2,0h0c10.5,3.1,21.6,4.8,33.2,4.8h0c64.6,0,117.1-52.4,117.1-117.1h0c0-64.6-52.5-117-117.1-117h0c-64.7,0-117.1,52.4-117.1,117.1"/>
        <path id="path5" class="cls-1" d="M203,86c0-4.4-3.5-7.9-7.9-7.9s-7.9,3.5-7.9,7.9,3.5,7.9,7.9,7.9c4.4,0,7.9-3.6,7.9-7.9"/>
        <path id="path7" class="cls-2" d="M168.1,71.3c-4.1,0-7.5,3.1-7.9,7.1v71.9c.4,4,3.8,7.1,7.9,7.1s7.9-3.5,7.9-7.9v-70.4c0-4.3-3.6-7.8-7.9-7.8M194.9,96.8c-3.3,0-8,2-8,6.5v46.2c0,6.5,4.7,7.9,8,7.9s7.9-3.5,7.9-7.9v-44.8c0-4.4-3.6-7.9-7.9-7.9M243.5,95.6c-3.9,0-7.6.8-10.9,2.5-1.4.7-4.7.5-5.5,0-.8-.4-1.4-1.3-2.4-1.3h-8.9c-1.7,0-3.1,1.5-3,3.2.3,4.1.5,8.5.5,14.6v34.9c0,2.9.4,3,.4,3,1.2,3.1,4.7,5.1,8.2,4.9,4.2-.3,7.3-4.1,7.3-8.3v-27.5c0-1.4.2-2.7.5-3.6v-.2c1.3-4,5-8.1,10.6-8.1s9.7,4.5,9.7,13.2v26.6c.2,6.9,5,8.1,8.6,7.8,4.2-.3,7.3-4.1,7.3-8.3v-27.2c-.1-19.3-12.1-26.2-22.3-26.2M124.1,144.9c-5.7,0-10.5-3.7-12-9.3h0c-.2-1.1-.4-2.2-.4-3.4v-9.3c0-1.1.3-2.4.6-3.3,1.6-6,6.5-10.1,12.2-10.1,9.2,0,13.3,8.7,13.3,17.4,0,11.4-5.1,18.1-13.7,18.1M127.5,95.6c-4.4,0-8.3.9-11.9,2.6-4.4,2.3-5,.4-5.4-.2-.4-.5-.3-1.2-2.4-1.2h-7.5s-5.1-.3-4.8,3.1c0,0,.5,10.9.5,17.7v53.9c0,4.1,3,7.9,7.2,8.2,4.7.4,8.6-3.3,8.6-7.8v-12.9c0-1.9,2-3.3,3.7-2.5,3.1,1.4,6.6,2.2,10.4,2.2,13.4,0,27.8-10.1,27.8-32.3s-11-30.7-26.1-30.7"/>
      </g>
    </g>
  </g>
</svg>