<?xml version="1.0" encoding="utf-8"?>
<!-- Generator: Adobe Illustrator 24.0.2, SVG Export Plug-In . SVG Version: 6.00 Build 0)  -->
<svg version="1.1" xmlns="http://www.w3.org/2000/svg" xmlns:xlink="http://www.w3.org/1999/xlink" x="0px" y="0px"
	 viewBox="0 0 54 35" style="enable-background:new 0 0 54 35;" xml:space="preserve">
<style type="text/css">
	.st0{fill:#FFFFFF;}
	.st1{fill:#D3262B;}
	.st2{fill:#FF7523;}
	.st3{fill:#F4F4F4;}
	.st4{fill:#FFFFFF;stroke:#30CC44;stroke-miterlimit:10;}
	.st5{fill:#30CC44;}
	.st6{fill:#606060;}
	.st7{fill:#0684F2;}
	.st8{fill:#FAFAFA;stroke:#DADADA;stroke-width:0.25;stroke-miterlimit:10;}
	.st9{fill:none;stroke:#4A4A49;stroke-width:0.25;stroke-miterlimit:10;}
	.st10{fill:#E6EEFA;}
	.st11{fill:#FE2725;}
	.st12{fill:#EDEDED;}
	.st13{fill:#00C65A;}
	.st14{fill:#E9E9E6;}
	.st15{opacity:0.75;}
	.st16{fill:#FF8800;}
	.st17{opacity:0.5;fill:none;stroke:#B2B2B2;stroke-miterlimit:10;}
	.st18{fill:none;stroke:#0444BF;stroke-width:0.75;stroke-miterlimit:10;}
	.st19{fill:#F5F9FF;}
	.st20{fill:none;stroke:#B2B2B2;stroke-width:0.25;stroke-miterlimit:10;}
	.st21{fill:none;stroke:#0AAFF1;stroke-miterlimit:10;}
	.st22{fill:#CFFFE6;}
	.st23{fill:none;stroke:#4A4A49;stroke-width:0.5;stroke-miterlimit:10;}
	.st24{fill:#CFFFE6;stroke:#4A4A49;stroke-width:0.5;stroke-linecap:round;stroke-linejoin:round;stroke-miterlimit:10;}
	.st25{fill:#5D5D5D;}
	.st26{fill:none;stroke:#0444BF;stroke-width:0.5;stroke-miterlimit:10;}
	.st27{opacity:0.3;fill:#0684F2;}
	.st28{fill:none;stroke:#0AAFF1;stroke-width:0.75;stroke-miterlimit:10;}
	.st29{fill:none;stroke:#4A4A49;stroke-miterlimit:10;}
	.st30{fill:#C0CFF0;}
	.st31{fill:#D6E8FB;}
	.st32{clip-path:url(#SVGID_10_);}
	.st33{fill:none;stroke:#0684F2;stroke-width:0.5;stroke-linecap:round;stroke-linejoin:round;stroke-miterlimit:10;}
	.st34{fill:none;stroke:#0684F2;stroke-linecap:round;stroke-linejoin:round;stroke-miterlimit:10;}
	.st35{fill:#CFFFE6;stroke:#0684F2;stroke-linecap:round;stroke-linejoin:round;stroke-miterlimit:10;}
	.st36{fill:#E02107;}
	.st37{fill:#FFC715;}
	.st38{fill:#2B9FE0;}
	.st39{fill:#8FC912;}
	.st40{fill:#F2F0E6;}
	.st41{fill:#014B8E;}
	.st42{fill:#F57D31;}
	.st43{fill:#EB001B;}
	.st44{fill:#F79E1B;}
	.st45{fill:#FF5F00;}
	.st46{fill:#306FC5;}
	.st47{fill:#00529E;}
	.st48{fill:#244298;}
	.st49{fill:#FBBA00;}
	.st50{fill:none;stroke:#494949;stroke-width:0.5;stroke-miterlimit:10;}
	.st51{fill:none;stroke:#494949;stroke-width:0.5;stroke-linecap:round;stroke-linejoin:round;stroke-miterlimit:10;}
	.st52{fill:#4A4A49;}
	.st53{clip-path:url(#SVGID_12_);fill:#026847;}
	.st54{clip-path:url(#SVGID_12_);fill:#FFFFFF;}
	.st55{clip-path:url(#SVGID_12_);fill:#E52421;}
	.st56{clip-path:url(#SVGID_14_);fill:#006847;}
	.st57{clip-path:url(#SVGID_14_);fill:#ECE13C;}
	.st58{clip-path:url(#SVGID_14_);fill:#CF2011;}
	.st59{clip-path:url(#SVGID_16_);fill:#F8CD16;}
	.st60{clip-path:url(#SVGID_16_);fill:#00388F;}
	.st61{clip-path:url(#SVGID_16_);fill:#CA1126;}
	.st62{clip-path:url(#SVGID_18_);fill:#E52421;}
	.st63{clip-path:url(#SVGID_18_);fill:#FFFFFF;}
	.st64{fill:#00C356;}
	.st65{fill:#FFA2B0;}
	.st66{fill:none;stroke:#FFFFFF;stroke-linecap:round;stroke-linejoin:round;stroke-miterlimit:10;}
	.st67{fill:#0444BF;}
	.st68{fill:#F2F6FF;}
	.st69{fill:#E7E7E7;}
	.st70{fill:#878787;}
	.st71{fill:#B2B2B2;}
	.st72{fill:#FF4E55;}
	.st73{fill:#FF894B;}
	.st74{fill:#FF7012;}
	.st75{fill:#FFF8F0;}
	.st76{fill:#FFF1E3;}
	.st77{fill:#0669BF;}
	.st78{fill:#F7F4ED;}
	.st79{fill:#F5F1E5;}
	.st80{fill:#F5EEE1;}
	.st81{fill:#F4F4F4;stroke:#4A4A49;stroke-width:0.5;stroke-miterlimit:10;}
	.st82{fill:none;stroke:#FFFFFF;stroke-miterlimit:10;}
	.st83{fill:none;stroke:#B2B2B2;stroke-width:0.5;stroke-miterlimit:10;}
	.st84{opacity:0.5;}
	.st85{fill:none;stroke:#30CC44;stroke-width:3;stroke-miterlimit:10;}
	.st86{opacity:0.5;fill:#005873;}
	.st87{fill:none;stroke:#30CC44;stroke-width:0.75;stroke-miterlimit:10;}
	.st88{fill:none;stroke:#30CC44;stroke-width:2;stroke-linecap:round;stroke-miterlimit:10;}
	.st89{fill:#F4F4F4;stroke:#30CC44;stroke-miterlimit:10;}
	.st90{fill:#30CC44;stroke:#F4F4F4;stroke-miterlimit:10;}
	.st91{fill:none;stroke:#30CC44;stroke-width:2;stroke-miterlimit:10;}
	.st92{fill:none;stroke:#30CC44;stroke-width:2;stroke-linecap:round;stroke-linejoin:round;stroke-miterlimit:10;}
	.st93{fill:none;stroke:#30CC44;stroke-miterlimit:10;}
	.st94{fill:#F1F1EE;}
	.st95{fill:#C1C1BF;}
	.st96{fill:#F0EAE1;}
	.st97{fill:#00AED6;}
	.st98{fill:#E4FF6F;}
	.st99{opacity:0.5;fill:#00AED6;}
	.st100{fill:none;stroke:#00AED6;stroke-width:2.75;stroke-miterlimit:10;}
	.st101{fill:none;stroke:#00AED6;stroke-width:2.75;stroke-linecap:round;stroke-linejoin:round;stroke-miterlimit:10;}
	.st102{opacity:0.5;fill:none;stroke:#00AED6;stroke-width:1.75;stroke-miterlimit:10;}
	.st103{fill:#203F6C;}
	.st104{fill:#F4B300;}
	.st105{fill:#0A1837;}
	.st106{fill-rule:evenodd;clip-rule:evenodd;fill:#0A1837;}
	.st107{fill-rule:evenodd;clip-rule:evenodd;fill:#00AAC8;}
	.st108{fill-rule:evenodd;clip-rule:evenodd;fill:#CC007B;}
	.st109{fill:#355E9F;}
	.st110{clip-path:url(#SVGID_20_);}
	.st111{fill:#E52421;}
	.st112{fill:#FFC200;}
	.st113{clip-path:url(#SVGID_22_);}
	.st114{fill:#F9DCA4;}
	.st115{fill:#DEC492;}
	.st116{fill:#677079;}
	.st117{fill:#FFE8BE;}
	.st118{fill:#434955;}
	.st119{fill:#1D1D1D;}
	.st120{fill:#FF8610;}
	.st121{fill:#AFCA13;}
	.st122{fill:none;stroke:#FFFFFF;stroke-width:0.5;stroke-miterlimit:10;}
	.st123{clip-path:url(#SVGID_23_);fill:#FFFFFF;}
	.st124{clip-path:url(#SVGID_23_);fill:#E52421;}
	.st125{clip-path:url(#SVGID_23_);fill:#0035A9;}
	.st126{fill:#2EC8FF;}
	.st127{clip-path:url(#SVGID_25_);}
	.st128{fill:#AFCA0A;}
	.st129{fill:#0454CA;}
	.st130{clip-path:url(#SVGID_27_);}
</style>
<g id="base">
	<path class="st0" d="M50,35H4c-2.21,0-4-1.79-4-4V4c0-2.21,1.79-4,4-4h46c2.21,0,4,1.79,4,4v27C54,33.21,52.21,35,50,35z"/>
	<g>
		<g>
			<path class="st104" d="M20.57,17.03l-2.38-2.92h-3.78c-0.15-0.39-0.51-0.66-0.95-0.66c-0.56,0-1.02,0.46-1.02,1.02
				c0,0.57,0.46,1.02,1.02,1.02c0.45,0,0.83-0.3,0.96-0.71h3.39l1.76,2.25h-7.23c-0.17-0.32-0.5-0.55-0.89-0.55
				c-0.56,0-1.02,0.46-1.02,1.02s0.46,1.02,1.02,1.02c0.49,0,0.88-0.35,0.98-0.82h9.3l-1.24,2.47h-2.11
				c-0.18-0.31-0.49-0.52-0.87-0.52c-0.56,0-1.02,0.46-1.02,1.02c0,0.57,0.46,1.02,1.02,1.02c0.5,0,0.9-0.37,0.99-0.85h2.38
				l1.63-3.15h2.69l0.14-0.67H20.57z"/>
			<path class="st104" d="M13.46,9.08c0.45,0,0.82-0.37,0.82-0.82c0-0.45-0.37-0.82-0.82-0.82c-0.45,0-0.82,0.37-0.82,0.82
				C12.64,8.71,13.01,9.08,13.46,9.08z"/>
			<path class="st104" d="M13.46,19.86c-0.45,0-0.82,0.37-0.82,0.82c0,0.45,0.37,0.82,0.82,0.82c0.45,0,0.82-0.37,0.82-0.82
				C14.28,20.22,13.91,19.86,13.46,19.86z"/>
			<path class="st104" d="M13.46,25.92c-0.45,0-0.82,0.37-0.82,0.82c0,0.45,0.37,0.82,0.82,0.82c0.45,0,0.82-0.37,0.82-0.82
				C14.28,26.29,13.91,25.92,13.46,25.92z"/>
			<path class="st104" d="M15.48,12.31c0.57,0,1.02-0.46,1.02-1.02c0-0.57-0.46-1.02-1.02-1.02c-0.56,0-1.02,0.46-1.02,1.02
				C14.46,11.86,14.91,12.31,15.48,12.31z"/>
			<path class="st104" d="M15.48,22.75c-0.45,0-0.82,0.37-0.82,0.82c0,0.45,0.37,0.82,0.82,0.82c0.45,0,0.82-0.37,0.82-0.82
				C16.3,23.11,15.93,22.75,15.48,22.75z"/>
			<path class="st104" d="M17.5,9.28c0.57,0,1.02-0.46,1.02-1.02s-0.46-1.02-1.02-1.02c-0.56,0-1.02,0.46-1.02,1.02
				S16.94,9.28,17.5,9.28z"/>
			<path class="st104" d="M17.5,25.72c-0.56,0-1.02,0.46-1.02,1.02c0,0.57,0.46,1.02,1.02,1.02c0.57,0,1.02-0.46,1.02-1.02
				C18.52,26.17,18.07,25.72,17.5,25.72z"/>
			<path class="st104" d="M19.52,12.31c0.57,0,1.02-0.46,1.02-1.02c0-0.57-0.46-1.02-1.02-1.02c-0.56,0-1.02,0.46-1.02,1.02
				C18.5,11.86,18.96,12.31,19.52,12.31z"/>
			<path class="st104" d="M19.52,22.54c-0.56,0-1.02,0.46-1.02,1.02c0,0.57,0.46,1.02,1.02,1.02c0.57,0,1.02-0.46,1.02-1.02
				C20.54,23,20.09,22.54,19.52,22.54z"/>
			<path class="st104" d="M9.41,13.65c-0.45,0-0.82,0.37-0.82,0.82c0,0.45,0.37,0.82,0.82,0.82c0.45,0,0.82-0.37,0.82-0.82
				C10.23,14.02,9.87,13.65,9.41,13.65z"/>
			<path class="st104" d="M9.41,8.87c0.34,0,0.61-0.27,0.61-0.61c0-0.34-0.27-0.61-0.61-0.61c-0.34,0-0.61,0.28-0.61,0.61
				C8.8,8.6,9.08,8.87,9.41,8.87z"/>
			<path class="st104" d="M9.41,25.98c-0.34,0-0.61,0.27-0.61,0.61c0,0.34,0.27,0.61,0.61,0.61c0.34,0,0.61-0.27,0.61-0.61
				C10.03,26.26,9.75,25.98,9.41,25.98z"/>
			<path class="st104" d="M9.41,19.86c-0.45,0-0.82,0.37-0.82,0.82c0,0.45,0.37,0.82,0.82,0.82c0.45,0,0.82-0.37,0.82-0.82
				C10.23,20.22,9.87,19.86,9.41,19.86z"/>
			<path class="st104" d="M11.44,12.11c0.45,0,0.82-0.37,0.82-0.82c0-0.45-0.37-0.82-0.82-0.82c-0.45,0-0.82,0.37-0.82,0.82
				C10.62,11.74,10.98,12.11,11.44,12.11z"/>
			<path class="st104" d="M5.37,13.85c-0.34,0-0.61,0.27-0.61,0.61c0,0.34,0.27,0.61,0.61,0.61c0.34,0,0.61-0.28,0.61-0.61
				C5.99,14.13,5.71,13.85,5.37,13.85z"/>
			<path class="st104" d="M7.39,11.91c0.34,0,0.61-0.27,0.61-0.61c0-0.34-0.27-0.61-0.61-0.61c-0.34,0-0.61,0.28-0.61,0.61
				C6.78,11.63,7.05,11.91,7.39,11.91z"/>
			<path class="st104" d="M5.37,20.06c-0.34,0-0.61,0.27-0.61,0.61c0,0.34,0.27,0.61,0.61,0.61c0.34,0,0.61-0.28,0.61-0.61
				C5.99,20.34,5.71,20.06,5.37,20.06z"/>
			<path class="st104" d="M7.39,23.07c-0.27,0-0.49,0.22-0.49,0.49c0,0.27,0.22,0.49,0.49,0.49c0.27,0,0.49-0.22,0.49-0.49
				C7.88,23.29,7.66,23.07,7.39,23.07z"/>
			<path class="st104" d="M11.44,22.95c-0.34,0-0.61,0.27-0.61,0.61c0,0.34,0.27,0.61,0.61,0.61c0.34,0,0.61-0.28,0.61-0.61
				C12.05,23.22,11.78,22.95,11.44,22.95z"/>
			<path class="st104" d="M7.39,16.68c-0.45,0-0.82,0.37-0.82,0.82c0,0.45,0.37,0.82,0.82,0.82s0.82-0.37,0.82-0.82
				C8.21,17.05,7.85,16.68,7.39,16.68z"/>
			<path class="st104" d="M2.34,14.14c-0.18,0-0.33,0.15-0.33,0.33c0,0.18,0.15,0.33,0.33,0.33c0.18,0,0.33-0.15,0.33-0.33
				C2.67,14.29,2.52,14.14,2.34,14.14z"/>
			<path class="st104" d="M2.34,20.35c-0.18,0-0.33,0.15-0.33,0.33c0,0.18,0.15,0.33,0.33,0.33c0.18,0,0.33-0.15,0.33-0.33
				C2.67,20.5,2.52,20.35,2.34,20.35z"/>
			<path class="st104" d="M4.36,11.62c0.18,0,0.33-0.15,0.33-0.33c0-0.18-0.15-0.33-0.33-0.33c-0.18,0-0.33,0.15-0.33,0.33
				C4.03,11.47,4.18,11.62,4.36,11.62z"/>
			<path class="st104" d="M4.98,17.5c0-0.34-0.27-0.61-0.61-0.61c-0.34,0-0.61,0.27-0.61,0.61c0,0.34,0.27,0.61,0.61,0.61
				C4.7,18.11,4.98,17.84,4.98,17.5z"/>
			<path class="st104" d="M1.33,17.17C1.15,17.17,1,17.32,1,17.5c0,0.18,0.15,0.33,0.33,0.33c0.18,0,0.33-0.15,0.33-0.33
				C1.66,17.32,1.51,17.17,1.33,17.17z"/>
			<circle class="st104" cx="4.36" cy="23.56" r="0.33"/>
		</g>
		<g>
			<path class="st109" d="M30.48,22.65h-2.43c-0.72,0-1.36-0.27-1.8-0.7l-0.8,4.55c-0.06,0.28-0.34,0.53-0.63,0.53
				c-0.28,0-0.49-0.25-0.44-0.53l1.95-11.07c0.28-1.65,1.84-2.98,3.49-2.98h2.45c0.8,0,1.48,0.32,1.93,0.87
				c0.45,0.57,0.63,1.31,0.49,2.1l-0.76,4.25C33.66,21.32,32.11,22.65,30.48,22.65 M33.64,15.43c0.19-1.06-0.53-1.91-1.57-1.91
				h-2.43c-1.06,0-2.05,0.85-2.24,1.91l-0.76,4.25c-0.19,1.06,0.51,1.91,1.57,1.91h2.43c1.04,0,2.05-0.85,2.24-1.91L33.64,15.43z"/>
			<path class="st109" d="M34.82,22.65c-0.28,0-0.47-0.23-0.44-0.51c0.06-0.28,0.32-0.51,0.61-0.51h4.8c1.02,0,2.01-0.82,2.18-1.84
				c0.17-1-0.51-1.84-1.54-1.84h-2.65c-1.52,0-2.54-1.23-2.27-2.75c0.27-1.52,1.73-2.75,3.24-2.75h4.45c0.28,0,0.45,0.21,0.42,0.49
				c-0.06,0.28-0.3,0.51-0.59,0.51h-4.45c-0.97,0-1.9,0.78-2.07,1.74c-0.17,0.95,0.49,1.74,1.46,1.74h2.65
				c0.76,0,1.42,0.28,1.88,0.83c0.45,0.53,0.61,1.25,0.47,2.01c-0.28,1.57-1.78,2.86-3.35,2.86H34.82z"/>
			<path class="st109" d="M46.23,22.65c-1.65,0-2.77-1.35-2.48-2.99l0.76-4.23c0.28-1.65,1.86-2.98,3.51-2.98h2.46
				c1.65,0,2.77,1.33,2.48,2.98l-0.4,2.18c-0.04,0.28-0.3,0.51-0.59,0.51h-6.94l-0.28,1.54c-0.19,1.08,0.55,1.97,1.65,1.97h4.8
				c0.27,0,0.45,0.23,0.4,0.51c-0.04,0.28-0.3,0.49-0.57,0.49L46.23,22.65z M47.84,13.46c-1.1,0-2.14,0.89-2.33,1.97l-0.3,1.67h6.44
				l0.3-1.67c0.19-1.08-0.55-1.97-1.65-1.97H47.84z"/>
			<path class="st109" d="M27.78,11.35c-0.32,0-0.54-0.26-0.48-0.58c0.06-0.32,0.37-0.58,0.69-0.58h0.83l0.04-0.24
				c0.04-0.21-0.11-0.38-0.32-0.38h-0.81c-0.05,0-0.09-0.04-0.08-0.1c0.01-0.06,0.06-0.1,0.11-0.1h0.81c0.32,0,0.54,0.26,0.48,0.58
				l-0.23,1.31c-0.01,0.06-0.06,0.1-0.11,0.1H27.78z M27.95,10.38c-0.21,0-0.42,0.17-0.46,0.39c-0.04,0.21,0.11,0.38,0.32,0.38h0.83
				l0.14-0.77H27.95z"/>
			<path class="st109" d="M30.57,11.25c-0.01,0.06-0.06,0.1-0.12,0.1l-0.89,0c-0.15,0-0.29-0.06-0.38-0.17
				c-0.09-0.11-0.13-0.26-0.1-0.41l0.15-0.82c0.03-0.15,0.11-0.3,0.24-0.41c0.13-0.11,0.28-0.17,0.44-0.17h0.89
				c0.06,0,0.09,0.04,0.08,0.1c-0.01,0.06-0.06,0.1-0.12,0.1h-0.89c-0.21,0-0.42,0.17-0.45,0.38l-0.15,0.82
				c-0.04,0.21,0.11,0.38,0.32,0.38h0.89C30.55,11.15,30.58,11.2,30.57,11.25"/>
			<path class="st109" d="M32.6,9.94l-0.23,1.3c-0.01,0.06-0.06,0.1-0.12,0.1c-0.06,0-0.1-0.05-0.09-0.1l0.23-1.3
				c0.04-0.21-0.1-0.37-0.31-0.37h-0.47c-0.21,0-0.4,0.17-0.44,0.37l-0.23,1.3c-0.01,0.06-0.06,0.1-0.12,0.1
				c-0.05,0-0.1-0.05-0.09-0.1l0.46-2.63c0.01-0.06,0.07-0.1,0.12-0.1c0.06,0,0.1,0.05,0.08,0.1L31.26,9.5
				c0.11-0.08,0.25-0.14,0.39-0.14h0.47C32.44,9.36,32.65,9.62,32.6,9.94"/>
		</g>
	</g>
</g>
<g id="guías">
</g>
</svg>
