<svg xmlns="http://www.w3.org/2000/svg" width="28.901" height="17.655" viewBox="0 0 28.901 17.655">
  <g id="Públicar_-_Invisible" data-name="Públicar - Invisible" transform="translate(-819.411 -583.428)">
    <path id="Trazado_6148" data-name="Trazado 6148" d="M835.323,585.206H835.1a16.6,16.6,0,0,0-4.187.568l2.2,1.546a5.53,5.53,0,0,1,2.026-.409h.147a5.553,5.553,0,0,1,5.479,5.553c0,.076,0,.151,0,.227l4.927,3.459a23.792,23.792,0,0,0,3.975-3.686C845.768,587.962,840.773,585.243,835.323,585.206Z" transform="translate(-1.348 -0.208)" fill="#b2b2b2"/>
    <path id="Trazado_6149" data-name="Trazado 6149" d="M838.91,594.577l-2.159-1.517-4.626-3.249-2.157-1.516-2.739-1.923-4.194-2.945-1.15,1.638,3.31,2.324a22.766,22.766,0,0,0-5.783,4.865c3.894,4.5,8.888,7.22,14.339,7.257h.225a16.837,16.837,0,0,0,6.522-1.375l4.193,2.946,1.151-1.639-3.31-2.324Zm-4.974,3.232h-.147a5.559,5.559,0,0,1-4.974-7.876l2.159,1.517A3,3,0,0,0,835.6,594.7l2.157,1.515A5.52,5.52,0,0,1,833.936,597.809Z" transform="translate(0 0)" fill="#b2b2b2"/>
  </g>
</svg>
