<svg xmlns="http://www.w3.org/2000/svg" xmlns:xlink="http://www.w3.org/1999/xlink" width="20.05" height="17.403" viewBox="0 0 20.05 17.403">
  <defs>
    <clipPath id="clip-path">
      <rect id="Rectángulo_11411" data-name="Rectángulo 11411" width="20.05" height="17.403" transform="translate(0 0)" fill="#ff7012"/>
    </clipPath>
  </defs>
  <g id="Semestre_barra" data-name="Semestre barra" transform="translate(0 0)">
    <g id="Grupo_4009" data-name="Grupo 4009" clip-path="url(#clip-path)">
      <path id="Trazado_6463" data-name="Trazado 6463" d="M20.05,16.652a3.068,3.068,0,0,1-.284.482.8.8,0,0,1-.629.267c-1.279,0-2.559.006-3.838,0a.914.914,0,0,1-.919-.964c-.008-.319,0-.639,0-.959q0-3.867,0-7.733a.943.943,0,0,1,.685-1.015,1.564,1.564,0,0,1,.387-.037c1.123,0,2.246.018,3.367-.009a1.106,1.106,0,0,1,1.232.728Z" fill="#ff7012"/>
      <path id="Trazado_6464" data-name="Trazado 6464" d="M7.593,13.276c0-1.031,0-2.061,0-3.092A.934.934,0,0,1,8.62,9.15q1.8-.006,3.6,0A.945.945,0,0,1,13.26,10.2q0,3.083,0,6.165a.94.94,0,0,1-1.043,1.04q-1.8,0-3.6,0a.929.929,0,0,1-1.023-1.033c0-1.031,0-2.061,0-3.092" fill="#ff7012"/>
      <path id="Trazado_6465" data-name="Trazado 6465" d="M1.386,7.559A27.629,27.629,0,0,0,11.6,5a27.969,27.969,0,0,0,4.038-2.224c.259-.174.264-.228.046-.441-.238-.232-.48-.462-.714-.7-.29-.292-.227-.525.176-.625q2.031-.5,4.064-.991c.372-.09.566.089.484.463q-.456,2.081-.931,4.158c-.084.369-.321.435-.592.174-.3-.286-.582-.581-.873-.871-.185-.183-.249-.192-.457-.049A31.346,31.346,0,0,1,9.6,7.541,26.246,26.246,0,0,1,3.564,8.974c-.907.1-1.82.135-2.732.168a.754.754,0,0,1-.807-.6.783.783,0,0,1,.7-.978c.221-.015.443,0,.665,0" fill="#ff7012"/>
      <path id="Trazado_6466" data-name="Trazado 6466" d="M6.463,14.4q0,.989,0,1.977A.927.927,0,0,1,5.45,17.4q-1.821,0-3.641,0A.923.923,0,0,1,.8,16.411q-.01-2.026,0-4.052a.931.931,0,0,1,1.015-.992q1.821,0,3.641,0a.935.935,0,0,1,1.008,1.017q0,1.008,0,2.016" fill="#ff7012"/>
    </g>
  </g>
</svg>
