<svg id="Grupo_4116" data-name="Grupo 4116" xmlns="http://www.w3.org/2000/svg" xmlns:xlink="http://www.w3.org/1999/xlink" width="47" height="47" viewBox="0 0 47 47">
  <defs>
    <clipPath id="clip-path">
      <rect id="Rect치ngulo_11380" data-name="Rect치ngulo 11380" width="31.089" height="29.027" fill="#16c7ce"/>
    </clipPath>
  </defs>
  <rect id="Rect치ngulo_11360" data-name="Rect치ngulo 11360" width="47" height="47" rx="9" fill="rgba(22,199,206,0.2)"/>
  <g id="Grupo_3958" data-name="Grupo 3958" transform="translate(8 9)">
    <g id="Grupo_3957" data-name="Grupo 3957" transform="translate(0 0)" clip-path="url(#clip-path)">
      <path id="Trazado_6424" data-name="Trazado 6424" d="M0,10.386c.592-.673,1.189-1.341,1.775-2.019Q5.29,4.307,8.8.243A.463.463,0,0,1,9.576.182c.775.663,1.545,1.331,2.352,2.028-.711.327-1.384.637-2.057.943q-2.024.922-4.049,1.841a1.3,1.3,0,0,0-.692,1.834q1.054,2.33,2.12,4.655c.041.091.078.182.128.3a3.147,3.147,0,0,0-2.074,3.6c-.513-.441-.962-.826-1.409-1.212q-1.8-1.558-3.6-3.118c-.106-.092-.2-.2-.292-.3v-.364" transform="translate(0 0)" fill="#16c7ce"/>
      <path id="Trazado_6425" data-name="Trazado 6425" d="M29.461,26.249a4.2,4.2,0,0,0,4.691,6.485c.011.014.02.021.02.029,0,1.446.065,2.9-.016,4.336a2.339,2.339,0,0,1-2.42,2.063q-6.527,0-13.053,0H13.736a2.441,2.441,0,0,1-2.609-2.62q0-5.8,0-11.6a3.086,3.086,0,0,1,.024-.423A2.044,2.044,0,0,1,13.2,22.672c1.143-.022,2.287-.011,3.43,0a2.251,2.251,0,0,1,1.562.773c.754.734,1.515,1.462,2.256,2.209a1.9,1.9,0,0,0,1.475.611c2.387-.032,4.776-.013,7.163-.013Zm-6.8,10.181h8.045c.49,0,.692-.129.69-.44s-.176-.419-.666-.419H14.611c-.1,0-.225-.033-.3.013a.865.865,0,0,0-.358.343.34.34,0,0,0,.246.452,1.257,1.257,0,0,0,.386.049q4.038,0,8.075,0m-6.169-3.853c-.677,0-1.355,0-2.032,0-.337,0-.522.155-.53.413s.186.443.533.444q2.017.006,4.035,0c.349,0,.55-.166.549-.431s-.2-.423-.552-.426c-.668,0-1.335,0-2,0" transform="translate(-4.977 -10.137)" fill="#16c7ce"/>
      <path id="Trazado_6426" data-name="Trazado 6426" d="M26.226,17.9h8.579c.091,0,.182,0,.274,0,.3-.014.463-.159.472-.406a.437.437,0,0,0-.44-.447,1.94,1.94,0,0,0-.212,0q-4.34,0-8.681,0a.7.7,0,0,0-.708.4c-.369-.406-.7-.794-1.054-1.149-.279-.276-.6-.5-.9-.768a.45.45,0,0,1-.146-.289q-.012-3.521-.006-7.042c0-.391.16-.531.6-.532q2.959,0,5.918,0h3.43c0,.272,0,.511,0,.751,0,.789,0,1.578,0,2.367a1.17,1.17,0,0,0,1.217,1.227q1.427.013,2.853,0c.223,0,.3.058.3.289q-.013,2.7,0,5.4c0,.2-.065.256-.259.317-.468.146-.916.355-1.376.528a1.533,1.533,0,0,1-.508.138c-2.7.009-5.4,0-8.1.015a1.13,1.13,0,0,1-.956-.4,2.787,2.787,0,0,0-.342-.3l.048-.1m4.327-4.25h4.337c.467,0,.666-.131.661-.431s-.215-.427-.675-.427q-4.323,0-8.644,0c-.13,0-.3-.019-.381.051a.624.624,0,0,0-.25.418c.011.133.185.274.318.366.077.054.216.022.327.022h4.307m.019,2.125h4.307c.111,0,.25.031.327-.022.135-.094.312-.235.323-.369s-.138-.308-.26-.416c-.075-.066-.231-.05-.35-.05q-4.353,0-8.705,0a1.217,1.217,0,0,0-.359.041.341.341,0,0,0-.261.443.822.822,0,0,0,.343.354c.081.051.217.019.328.019h4.308m-1.7-4.251c.931,0,1.862,0,2.793,0,.349,0,.55-.168.545-.43s-.208-.419-.557-.427h-.061q-2.7,0-5.4,0a.626.626,0,0,0-.351.051.589.589,0,0,0-.24.371.585.585,0,0,0,.222.385c.076.065.232.048.351.048.9,0,1.8,0,2.7,0" transform="translate(-10.472 -3.427)" fill="#16c7ce"/>
      <path id="Trazado_6427" data-name="Trazado 6427" d="M24.923,3.544h-.4q-3.14,0-6.281,0a1.3,1.3,0,0,0-1.4,1,1.778,1.778,0,0,0-.035.421q0,3.277,0,6.554v.319c-1.228,0-2.429,0-3.628-.007a.33.33,0,0,1-.241-.16q-1.166-2.528-2.313-5.065c-.145-.322-.045-.508.332-.681l6.057-2.765L22.819.516c.51-.232.656-.177.891.337q.541,1.184,1.079,2.368c.041.089.075.18.134.323" transform="translate(-4.723 -0.172)" fill="#16c7ce"/>
      <path id="Trazado_6428" data-name="Trazado 6428" d="M44.363,31.1a3.287,3.287,0,1,1,3.306,3.273A3.27,3.27,0,0,1,44.363,31.1m2.51.749c-.286-.3-.532-.563-.791-.817a.424.424,0,0,0-.643-.055c-.2.186-.185.429.044.665.317.325.642.644.963.965.347.346.522.349.864.008q1.1-1.1,2.207-2.207a3.817,3.817,0,0,0,.376-.392.405.405,0,0,0-.038-.576.4.4,0,0,0-.573-.007c-.07.057-.131.125-.2.19l-2.214,2.226" transform="translate(-19.848 -12.437)" fill="#16c7ce"/>
      <path id="Trazado_6429" data-name="Trazado 6429" d="M46.1,11.437c-.907,0-1.836,0-2.764,0-.213,0-.36-.108-.362-.323-.009-.946,0-1.891,0-2.809l3.13,3.133" transform="translate(-19.222 -3.715)" fill="#16c7ce"/>
    </g>
  </g>
</svg>
