<?xml version="1.0" encoding="UTF-8"?>
<svg xmlns="http://www.w3.org/2000/svg" version="1.1" viewBox="0 0 364.4 255.9">
  <defs>
    <style>
      .cls-1 {
        fill: #e21836;
      }

      .cls-2 {
        fill: #00447c;
      }

      .cls-3 {
        fill: #fefefe;
      }

      .cls-4 {
        fill: #007b84;
      }
    </style>
  </defs>
  <!-- Generator: Adobe Illustrator 28.7.1, SVG Export Plug-In . SVG Version: 1.2.0 Build 142)  -->
  <g>
    <g id="Capa_1">
      <g>
        <path class="cls-1" d="M92.2,35.7h77c10.8,0,17.4,8.8,14.9,19.6l-35.9,154c-2.5,10.8-13.3,19.5-24.1,19.5H47.2c-10.7,0-17.4-8.8-14.9-19.5L68.1,55.3c2.5-10.8,13.3-19.6,24-19.6"/>
        <path class="cls-2" d="M162.8,35.7h88.6c10.8,0,5.9,8.8,3.4,19.6l-35.9,154c-2.5,10.8-1.7,19.5-12.5,19.5h-88.6c-10.8,0-17.4-8.8-14.9-19.5l35.9-154c2.5-10.8,13.3-19.6,24-19.6"/>
        <path class="cls-4" d="M247.9,35.7h77c10.8,0,17.5,8.8,14.9,19.6l-35.9,154c-2.5,10.8-13.3,19.5-24.1,19.5h-77c-10.8,0-17.5-8.8-14.9-19.5l35.9-154c2.5-10.8,13.3-19.6,24-19.6"/>
        <path class="cls-3" d="M112.3,85.1c-7.9,0-10.3,0-11-.2-.3,1.4-5.6,26-5.6,26-1.2,5-2,8.5-4.8,10.8-1.6,1.3-3.5,2-5.7,2-3.5,0-5.6-1.7-5.9-5.1v-1.1c0,0,1-6.7,1-6.7,0,0,5.6-22.5,6.6-25.4,0-.2,0-.3,0-.3-10.9,0-12.9,0-13-.2,0,.2-.3,1.6-.3,1.6l-5.7,25.3-.5,2.1-1,7c0,2.1.4,3.8,1.2,5.2,2.6,4.6,10.1,5.2,14.3,5.2s10.5-1.2,14-3.3c6-3.5,7.5-9,8.9-13.9l.6-2.5s5.8-23.3,6.8-26.4c0-.2,0-.3.1-.3ZM131.9,103.9c-1.4,0-3.9.3-6.2,1.5-.8.4-1.6.9-2.4,1.4l.7-2.7-.4-.5c-4.9,1-5.9,1.1-10.4,1.7l-.4.2c-.5,4.3-1,7.6-2.9,16-.7,3.1-1.5,6.3-2.3,9.4l.2.4c4.6-.2,6-.2,10-.2l.3-.4c.5-2.6.6-3.2,1.7-8.5.5-2.5,1.6-8,2.2-9.9,1-.5,2-.9,2.9-.9,2.2,0,2,2,1.9,2.7,0,1.3-.9,5.6-1.7,9.2l-.6,2.4c-.4,1.7-.8,3.4-1.2,5.2l.2.3c4.5-.2,5.9-.2,9.8-.2l.5-.4c.7-4.1.9-5.1,2.1-11l.6-2.7c1.2-5.3,1.8-8,.9-10.2-1-2.5-3.3-3.1-5.4-3.1ZM153.9,109.5c-2.4.5-3.9.8-5.5,1-1.5.2-3,.5-5.3.8l-.2.2h-.2c-.2,1.9-.4,3.4-.7,5.1-.3,1.8-.7,3.9-1.4,6.9-.5,2.3-.8,3.1-1.1,3.9-.3.8-.6,1.6-1.2,3.8v.2c.1,0,.3.2.3.2,2.2-.1,3.6-.2,5.1-.2,1.5,0,3,0,5.3,0l.2-.2.2-.2c.3-2,.4-2.6.6-3.5.2-1.1.6-2.5,1.4-6.4.4-1.8.9-3.7,1.3-5.5.4-1.9.9-3.7,1.3-5.5v-.2c0,0-.2-.2-.2-.2ZM154,102c-2.2-1.3-6-.9-8.6.9-2.6,1.7-2.9,4.2-.7,5.5,2.1,1.3,6,.9,8.6-.9,2.6-1.8,2.9-4.2.7-5.5ZM167.2,131.9c4.4,0,9-1.2,12.4-4.8,2.6-2.9,3.8-7.3,4.2-9.1,1.4-6,.3-8.7-1-10.4-2-2.6-5.6-3.4-9.3-3.4s-7.5.2-11.7,4c-3,2.8-4.3,6.5-5.2,10.1-.8,3.6-1.8,10.2,4.2,12.7,1.9.8,4.5,1,6.3,1ZM166.8,118.5c1-4.5,2.2-8.3,5.3-8.3s2.6,2.8,1.5,7.3c-.2,1-1.1,4.7-2.3,6.3-.8,1.2-1.8,1.9-2.9,1.9s-2.2,0-2.3-2.9c0-1.4.3-2.8.6-4.4ZM194.9,131.3l.3-.4c.5-2.6.6-3.2,1.7-8.5.5-2.5,1.7-8,2.2-9.9,1-.5,2-.9,2.9-.9,2.2,0,2,2,1.9,2.7,0,1.3-.9,5.6-1.7,9.2l-.5,2.4c-.4,1.7-.8,3.4-1.2,5.2l.2.3c4.5-.2,5.9-.2,9.8-.2l.5-.4c.7-4.1.9-5.1,2.1-11l.6-2.7c1.2-5.3,1.8-8,.9-10.2-1-2.5-3.3-3.1-5.4-3.1s-4,.3-6.2,1.5c-.8.4-1.6.9-2.4,1.4l.7-2.7-.4-.5c-4.8,1-6,1.1-10.4,1.7l-.3.2c-.5,4.3-1,7.6-2.9,16-.7,3.1-1.5,6.3-2.3,9.4l.2.4c4.6-.2,6-.2,10-.2ZM228.2,131.5c.3-1.4,2-9.7,2-9.7,0,0,1.4-6.1,1.5-6.3,0,0,.5-.6.9-.9h.7c6.3,0,13.4,0,19-4.1,3.8-2.8,6.4-7,7.6-12,.3-1.2.5-2.7.5-4.2s-.4-3.9-1.5-5.3c-2.8-4-8.5-4.1-15.1-4.1,0,0-3.2,0-3.2,0-8.4.1-11.7,0-13.1,0-.1.6-.3,1.7-.3,1.7,0,0-3,13.9-3,13.9,0,0-7.2,29.6-7.5,31,7.3,0,10.3,0,11.6,0ZM233.8,106.7s3.2-13.9,3.2-13.8v-.7c.1,0,.1-.5.1-.5h1.3c0,.1,6.6.7,6.7.7,2.6,1,3.7,3.6,2.9,7-.7,3.1-2.7,5.7-5.3,6.9-2.1,1.1-4.7,1.2-7.4,1.2h-1.7v-.7ZM253.6,118.7c-.8,3.6-1.8,10.2,4.2,12.5,1.9.8,3.6,1.1,5.4,1,1.8,0,3.5-1,5.1-2.4-.1.5-.3,1.1-.4,1.6l.3.4c4.3-.2,5.7-.2,10.3-.1l.4-.3c.7-4,1.3-7.9,3.1-15.6.9-3.7,1.7-7.3,2.6-11v-.4c-5,.9-6.3,1.1-10.9,1.7l-.4.3c0,.4,0,.7-.1,1.1-.7-1.2-1.8-2.2-3.4-2.8-2.1-.8-6.9.2-11.1,4-2.9,2.7-4.3,6.4-5.1,10ZM263.8,118.9c1-4.4,2.2-8.2,5.3-8.2s3,1.8,2.8,4.9c-.2.8-.3,1.6-.6,2.5-.3,1.3-.6,2.6-1,3.9-.3.9-.7,1.7-1.1,2.3-.8,1.1-2.7,1.8-3.8,1.8s-2.2,0-2.3-2.8c0-1.4.3-2.8.6-4.4ZM316.8,104.3l-.4-.4c-4.8,1-5.6,1.1-10,1.7l-.3.3c0,0,0,.1,0,.2h0c-3.3,7.5-3.2,5.8-5.8,11.8,0-.3,0-.4,0-.7l-.7-12.9-.4-.4c-5,1-5.1,1.1-9.8,1.7l-.4.3c0,.2,0,.3,0,.5h0c.6,3,.4,2.4,1,7,.3,2.3.6,4.6.9,6.9.5,3.8.7,5.6,1.3,11.4-3.1,5.2-3.9,7.1-6.9,11.6h0s-2.1,3.4-2.1,3.4c-.2.4-.5.6-.8.7-.3.2-.8.2-1.4.2h-1.2l-1.7,5.8h6c3.5,0,5.7-1.6,6.9-3.8l3.8-6.4h0l.4-.5c2.5-5.4,21.8-38.5,21.8-38.5ZM253.6,180.5h-2.5l9.4-31.1h3.1l1-3.2v3.6c0,2.2,1.7,4.2,6.3,3.8h5.3l1.8-6h-2c-1.1,0-1.7-.3-1.6-.9v-3.6h-9.8c-3.1,0-12.6.3-14.5.8-2.3.6-4.7,2.3-4.7,2.3l1-3.2h-9.1l-1.9,6.4-9.5,31.6h-1.8l-1.8,5.9h18.1l-.6,2h8.9l.6-2h2.5l2-6.4ZM246.2,155.7c-1.5.4-4.2,1.6-4.2,1.6l2.4-7.9h7.2l-1.7,5.8s-2.2.1-3.7.5ZM246.3,167.1s-2.3.3-3.8.6c-1.5.4-4.2,1.9-4.2,1.9l2.5-8.3h7.3l-1.8,5.8ZM242.3,180.6h-7.3l2.1-7h7.2l-2.1,7ZM259.8,161.3h10.5l-1.5,4.9h-10.6l-1.6,5.3h9.3l-7,9.9c-.5.7-.9,1-1.4,1.2-.5.2-1.1.5-1.9.5h-2.6l-1.8,5.8h6.7c3.5,0,5.6-1.6,7.1-3.7l4.8-6.6,1,6.7c.2,1.3,1.1,2,1.7,2.3.7.3,1.4.9,2.4,1,1.1,0,1.8,0,2.3,0h3.3l2-6.5h-1.3c-.7,0-2-.1-2.3-.4-.2-.3-.2-.7-.3-1.4l-1-6.7h-4.3l1.9-2.2h10.6l1.6-5.3h-9.8l1.5-4.9h9.8l1.8-6h-29.1l-1.8,6ZM171.4,181.9l2.4-8.1h10l1.8-6h-10.1l1.5-5h9.8l1.8-5.9h-24.6l-1.8,5.9h5.6l-1.5,5h-5.6l-1.9,6.1h5.6l-3.3,10.8c-.4,1.4.2,2,.6,2.6.4.6.8,1.1,1.8,1.3,1,.2,1.7.4,2.6.4h11.3l2-6.7-5,.7c-1,0-3.7-.1-3.4-1ZM172.5,143l-2.5,4.6c-.5,1-1,1.6-1.5,1.9-.4.2-1.2.3-2.3.3h-1.3l-1.8,5.9h4.4c2.1,0,3.7-.8,4.5-1.2.8-.4,1.1-.2,1.7-.8l1.5-1.3h13.8l1.8-6.1h-10.1l1.8-3.3h-10ZM192.8,182.1c-.2-.3,0-.9.3-2.2l3.8-12.5h13.4c2,0,3.4,0,4.3-.1,1-.1,2.1-.5,3.2-1.1,1.2-.7,1.8-1.4,2.3-2.2.6-.8,1.5-2.5,2.3-5.2l4.7-15.8h-13.9c0,0-4.3.7-6.2,1.4-1.9.8-4.6,2.9-4.6,2.9l1.3-4.3h-8.6l-12,39.8c-.4,1.5-.7,2.7-.8,3.3,0,.7.9,1.4,1.5,2,.7.5,1.8.5,2.8.5,1.1,0,2.6.1,4.7.1h6.6l2-6.8-5.9.6c-.6,0-1.1-.3-1.3-.6ZM199.3,159h14.1l-.9,2.8c-.1,0-.4-.1-1.9,0h-12.2l.9-2.8ZM202.1,149.6h14.2l-1,3.4s-6.7,0-7.8.1c-4.7.8-7.5,3.3-7.5,3.3l2.1-6.8ZM212.8,171.2c-.1.4-.3.7-.6.9-.3.2-.7.2-1.4.2h-2v-3.4c.1,0-8.2,0-8.2,0l-.3,16.7c0,1.2.1,1.9,1,2.5.9.7,3.6.8,7.2.8h5.2l1.9-6.2-4.5.2h-1.5c-.2,0-.4,0-.6-.3-.2-.2-.5,0-.5-1.3v-4.3s4.8-.2,4.8-.2c2.6,0,3.7-.8,4.6-1.6.9-.8,1.2-1.6,1.5-2.8l.8-3.8h-6.6l-.8,2.7Z"/>
      </g>
    </g>
  </g>
</svg>