<?xml version="1.0" encoding="UTF-8"?>
<svg xmlns="http://www.w3.org/2000/svg" version="1.1" viewBox="0 0 364.4 255.9">
  <defs>
    <style>
      .cls-1 {
        fill: #6f0375;
      }

      .cls-2 {
        fill: #00d0b4;
      }
    </style>
  </defs>
  <!-- Generator: Adobe Illustrator 28.7.1, SVG Export Plug-In . SVG Version: 1.2.0 Build 142)  -->
  <g>
    <g id="Capa_1">
      <g>
        <path class="cls-1" d="M254.9,170c-10.1.8-20.2,1.6-30.3,2.5-6.2.6-12.4,1.5-18.8,2.3.7-4.5,1.3-8.7,2-13.3.9.6,1.3.9,1.8,1.3,6.2,4.4,12.2,3.8,17.3-1.8,3.9-4.4,6-9.7,7.6-15.2,2.6-8.7,4.4-17.6,1.9-26.7-2.1-7.9-9.8-9.9-15.8-4.2-1.2,1.2-2.4,2.3-3.5,3.3-.3-.9-.2-2.3-.9-2.9-2.9-2.8-7.6-1.4-8.4,2.5-2.2,11.1-4.3,22.3-6.6,33.4-.3,1.4-1.4,2.7-2.5,3.7-.7.7-2,.8-3,1.1-.4-1.1-1.1-2.2-1-3.3.5-3.9,1.1-7.9,1.9-11.7,1.3-6.8,2.9-13.5,4.2-20.3.5-2.5-.5-4-3.1-4.6-3.7-.9-4.3-.6-6.7,3.6-6.4-3.8-11-3.1-16.3,2.3-4.5,4.6-7.2,10.2-9.3,16.2-2.9,8.2-4.5,16.6-2.4,25.2.9,3.8,2.9,6.7,7,7.9,4.3,1.3,7.9,0,10.8-3.1,1.3-1.4,2.3-3.1,3.6-4.7.8,3.1,2.7,5.5,5.8,5.3,2.8-.2,5.5-1.5,8.2-2.3-.5,2.3-1.1,4.7-1.4,7.2-.2,2.2-1.3,2.8-3.3,3.1-11.3,1.7-22.6,3.5-33.9,5.4-3.6.6-7.1,1.2-11.1,1.9,1.6-5.8,3.1-11.1,4.6-16.5,4-14.5,8.1-28.9,12-43.4,1-3.8-.6-5.3-4.4-4.4-4.5,1.1-7.3,3.9-8.8,8.3-3.1,8.8-6.3,17.5-9.8,26.1-1,2.4-3.1,4.6-5.1,6.4-.9.9-3.2,1.3-4.2.7-1-.6-1.5-2.7-1.4-4,.2-2.6.9-5.2,1.6-7.8,1.4-5.3,3.2-10.6,4.4-16,.8-3.5-2.1-6.3-6.1-6.5-2.6-.1-3.4,1.2-3.6,5.3,0,2-.5,4-1.1,5.9-.9,2.9-2.2,5.7-3,8.6-1.5,5.5-3,11-3.9,16.7-.7,4.1.2,8.3,4.1,10.7,3.9,2.5,7.8,1.4,11.3-1.2,2-1.5,3.8-3.2,5.9-5-2.1,6.3-3.9,12.3-6,18.1-.3.9-1.4,1.5-2.3,2-5,2.7-10.3,5-15,8.2-10.6,7.2-18.1,16.8-20.7,29.6-1.2,5.7-.1,10.8,4.6,14.5,4.9,3.8,10.2,3.2,15.4.7,5-2.4,8.6-6.6,12-10.9,6.8-8.8,10.8-19.1,14.2-29.5.7-2,1.6-3,3.7-3.4,11.7-2.3,23.3-4.8,34.9-7.1,3.8-.8,7.7-1.3,11.8-2,0,1.4-.1,2.4.2,3.2.7,1.4,1.4,3.4,2.6,3.8,1.2.4,3.2-.4,4.3-1.4,1.2-1.1,2-2.9,2.3-4.6.4-1.8,1.3-2.4,2.9-2.6,10.6-1.4,21.2-2.7,31.8-4.1,6.3-.8,12.6-1.6,18.9-2.7,3.2-.6,4.2-3.4,3-6.4-1-2.3-2.8-3.3-5-3.1ZM210.9,152.6c1.9-7.3,3.7-14.6,6.1-21.7.8-2.5,2.7-4.8,4.6-6.7,2.2-2.3,4.5-1.5,5.3,1.6.4,1.6.5,3.3.6,4.2-.3,7.5-2.3,13.8-5.2,19.8-1.7,3.5-4.3,6.3-8.8,5.9-1.8-.2-3.1-.9-2.5-3ZM189.4,130.3c-2.4,8.1-5,16.1-7.7,24.1-.3,1-1.1,1.9-1.8,2.7-1.9,2.1-4.7,1.8-5.9-.7-.9-2-1.3-4.3-1.7-5.9,1.1-8.1,2.7-15.1,8.4-20.4,1.4-1.3,3.3-2.3,5.2-3,2.3-.9,4.3.9,3.6,3.2ZM117.4,226.9c-1.3,1.5-2.9,2.9-4.6,3.9-1,.6-3,1-3.8.4-.9-.7-1.5-2.7-1.2-3.9.7-2.7,1.7-5.5,3.1-7.9,4.6-8,11.2-13.8,20.2-17.9-3.6,9.6-7.6,18.1-13.8,25.3ZM249,142.7c.3-1.7,1.2-2.4,3.1-2.8,10.6-2.2,18.8-10.8,20.7-21.3,1.2-6.7-2.7-11.5-9.4-11.7-3.7-.2-6.9,1-9.6,3.5-10.7,9.8-14.8,22.5-16,36.4.2,2.3.4,4.5.7,6.7,1.3,7.6,7.2,11.4,14.6,9.5,6.3-1.6,11.2-5.4,15.6-10,2.9-3.1,3.3-4.5,1.6-8.4-1.4-3.2-2.7-3.3-5.3-.7-2.4,2.4-5,4.6-7.8,6.5-2,1.4-4.7,2.4-7,.6-2.4-1.8-1.8-4.6-1.5-7.2,0-.4.3-.7.3-1.1ZM258,118.7c1-1.5,2.8-2.9,4.4-1.6.9.8,1.1,3.3.6,4.6-1.8,4.9-5.9,7.5-10.7,8.9-.3-.2-.7-.5-1-.7,2.2-3.7,4.3-7.6,6.7-11.2Z"/>
        <path class="cls-2" d="M195,19.1c-21.6,0-39.1,17.5-39.1,39.1s4,19.7,10.5,26.6l-.9,16.6c0,1.5,1.6,2.4,2.8,1.6l12.3-8.5c4.4,1.8,9.3,2.7,14.3,2.7,21.6,0,39.1-17.5,39.1-39.1s-17.5-39.1-39.1-39.1ZM197.9,73.6c-1,1.7-2.4,3-4.1,3.9-1.7.9-3.7,1.3-6.1,1.3-3.7,0-6.7-1.1-8.9-3.3-2.2-2.2-3.4-5.1-3.5-8.8,0,0,0-.8.5-1.4.4-.5,1.1-.7,1.9-.8,1,0,1.7.2,2.2.7.4.4.5.8.5,1.1.2,1.6.6,2.9,1.2,3.9.6.9,1.4,1.6,2.5,2.2,1.1.6,2.4.9,3.8.9,2,0,3.6-.5,4.7-1.4,1.1-.9,1.6-2.1,1.6-3.5s-.2-1.6-.6-2.2c-.4-.6-.9-1.1-1.7-1.5-.9-.4-2.8-1.1-5.7-1.9-2.8-.8-4.7-1.6-5.9-2.4-1.2-.8-2.2-1.9-2.9-3.2-.7-1.3-1-2.8-1-4.4,0-2.9,1-5.3,2.9-7.2,1.9-1.9,4.6-2.8,7.8-2.8s4.2.4,5.9,1.3c1.7.9,3,2.1,4,3.8.9,1.6,1.4,3.5,1.5,5.7,0,0,0,.9-.5,1.5-.3.3-.8.7-1.8.7-1,0-1.7-.2-2.2-.7-.5-.5-.6-1.1-.6-1.2-.2-1.9-.8-3.4-1.8-4.3-1-.9-2.4-1.4-4.3-1.4s-3.4.4-4.3,1.2c-.9.8-1.4,1.7-1.4,3s.3,2,1,2.6c.5.5,1.8,1.2,5.2,2.1,2.9.8,4.8,1.4,6,2h0c1.8.9,3.3,2.1,4.2,3.7,1,1.5,1.4,3.3,1.4,5.4s-.5,3.9-1.5,5.6ZM221.1,48.5l-15.1,27.5c-.5.9-1.4,1.4-2.4,1.4s-.9-.1-1.3-.3c-1.3-.7-1.8-2.4-1.1-3.7l15.1-27.5c.7-1.3,2.4-1.8,3.7-1.1h0c1.3.7,1.8,2.4,1.1,3.7Z"/>
      </g>
    </g>
  </g>
</svg>