<?xml version="1.0" encoding="utf-8"?>
<!-- Generator: Adobe Illustrator 26.2.1, SVG Export Plug-In . SVG Version: 6.00 Build 0)  -->
<svg version="1.1" id="Capa_1" xmlns="http://www.w3.org/2000/svg" xmlns:xlink="http://www.w3.org/1999/xlink" x="0px" y="0px"
	 viewBox="0 0 20 20" style="enable-background:new 0 0 20 20;" xml:space="preserve">
<style type="text/css">
	.st0{fill:#0684F2;}
	.st1{fill:#4A4A49;}
	.st2{fill:#FFFFFF;}
	.st3{fill-rule:evenodd;clip-rule:evenodd;fill:#4A4A49;}
	.st4{fill:#71CF81;}
	.st5{fill-rule:evenodd;clip-rule:evenodd;fill:#FFFFFF;}
	.st6{fill:#00C356;}
	.st7{fill:#FF0303;}
	.st8{fill:#5A5A60;}
	.st9{fill:#FF7012;}
	.st10{fill-rule:evenodd;clip-rule:evenodd;fill:#FF7012;}
	.st11{fill:#FF9A3E;}
	.st12{fill:none;stroke:#606060;stroke-width:1.25;stroke-linecap:round;stroke-miterlimit:10;}
	.st13{fill:#606060;}
	.st14{fill:none;stroke:#FFFFFF;stroke-width:1.25;stroke-linecap:round;stroke-miterlimit:10;}
	.st15{fill:#8CC63E;}
	.st16{fill:none;stroke:#FFFFFF;stroke-width:2;stroke-linecap:round;stroke-miterlimit:10;}
	.st17{fill:none;}
	.st18{fill:none;stroke:#FFFFFF;stroke-width:3;stroke-linecap:round;stroke-linejoin:round;}
	.st19{fill:#0684F2;stroke:#FFFFFF;stroke-width:1.3;stroke-linecap:round;stroke-miterlimit:10;}
	.st20{fill:#EEBEA8;}
	.st21{fill:none;stroke:#FF67FE;stroke-width:2;stroke-miterlimit:22.9256;}
	.st22{fill:none;stroke:#FFCF00;stroke-width:2;stroke-linecap:round;stroke-linejoin:round;stroke-miterlimit:22.9256;}
	.st23{fill:none;stroke:#FFCF00;stroke-width:2;stroke-miterlimit:22.9256;}
	.st24{fill:#FF67FE;}
	.st25{fill-rule:evenodd;clip-rule:evenodd;fill:#454FFF;}
</style>
<path id="Rectángulo_12907" class="st0" d="M3,0h14c1.66,0,3,1.34,3,3v14c0,1.66-1.34,3-3,3H3c-1.66,0-3-1.34-3-3V3
	C0,1.34,1.34,0,3,0z"/>
<path id="Trazado_6020" class="st2" d="M11.12,4.46l1.04,2.11c0.18,0.37,0.53,0.63,0.94,0.69l2.33,0.34
	c0.68,0.1,1.15,0.73,1.06,1.41c-0.04,0.27-0.17,0.52-0.36,0.71l-1.68,1.64c-0.29,0.29-0.43,0.7-0.36,1.1l0.4,2.32
	c0.12,0.68-0.34,1.33-1.02,1.44c-0.27,0.05-0.55,0-0.79-0.12L10.58,15c-0.36-0.19-0.8-0.19-1.16,0l-2.08,1.1
	c-0.61,0.32-1.37,0.08-1.69-0.53c-0.13-0.24-0.17-0.52-0.12-0.79l0.4-2.32c0.07-0.4-0.07-0.81-0.36-1.1L3.88,9.72
	c-0.49-0.48-0.5-1.27-0.02-1.76c0.19-0.2,0.44-0.32,0.71-0.36L6.9,7.26C7.31,7.2,7.66,6.94,7.84,6.57l1.04-2.12
	c0.3-0.62,1.05-0.88,1.67-0.58C10.8,4.01,11,4.21,11.12,4.46z"/>
</svg>
