<?xml version="1.0" encoding="utf-8"?>
<!-- Generator: Adobe Illustrator 26.2.1, SVG Export Plug-In . SVG Version: 6.00 Build 0)  -->
<svg version="1.1" id="Capa_1" xmlns="http://www.w3.org/2000/svg" xmlns:xlink="http://www.w3.org/1999/xlink" x="0px" y="0px"
	 viewBox="0 0 20 20" style="enable-background:new 0 0 20 20;" xml:space="preserve">
<style type="text/css">
	.st0{fill:#0684F2;}
	.st1{fill:#4A4A49;}
	.st2{fill:#FFFFFF;}
	.st3{fill-rule:evenodd;clip-rule:evenodd;fill:#4A4A49;}
	.st4{fill:#71CF81;}
	.st5{fill-rule:evenodd;clip-rule:evenodd;fill:#FFFFFF;}
	.st6{fill:#00C356;}
	.st7{fill:#FF0303;}
	.st8{fill:#5A5A60;}
	.st9{fill:#FF7012;}
	.st10{fill-rule:evenodd;clip-rule:evenodd;fill:#FF7012;}
	.st11{fill:#FF9A3E;}
	.st12{fill:none;stroke:#606060;stroke-width:1.25;stroke-linecap:round;stroke-miterlimit:10;}
	.st13{fill:#606060;}
	.st14{fill:none;stroke:#FFFFFF;stroke-width:1.25;stroke-linecap:round;stroke-miterlimit:10;}
	.st15{fill:#8CC63E;}
	.st16{fill:none;stroke:#FFFFFF;stroke-width:2;stroke-linecap:round;stroke-miterlimit:10;}
	.st17{fill:none;}
	.st18{fill:none;stroke:#FFFFFF;stroke-width:3;stroke-linecap:round;stroke-linejoin:round;}
	.st19{fill:#0684F2;stroke:#FFFFFF;stroke-width:1.3;stroke-linecap:round;stroke-miterlimit:10;}
	.st20{fill:#EEBEA8;}
	.st21{fill:none;stroke:#FF67FE;stroke-width:2;stroke-miterlimit:22.9256;}
	.st22{fill:none;stroke:#FFCF00;stroke-width:2;stroke-linecap:round;stroke-linejoin:round;stroke-miterlimit:22.9256;}
	.st23{fill:none;stroke:#FFCF00;stroke-width:2;stroke-miterlimit:22.9256;}
	.st24{fill:#FF67FE;}
	.st25{fill-rule:evenodd;clip-rule:evenodd;fill:#454FFF;}
</style>
<g>
	<path class="st9" d="M17.12,1.56h-0.61v1.03c0,1.1-0.9,2-2,2c-1.1,0-2-0.9-2-2V1.56H7.47v1.03c0,1.1-0.9,2-2,2c-1.1,0-2-0.9-2-2
		V1.56h-0.6C1.29,1.56,0,2.85,0,4.44v1.43v11.25C0,18.71,1.29,20,2.88,20h14.24h0c0.4,0,0.78-0.08,1.12-0.23
		c1.03-0.44,1.76-1.46,1.76-2.65V5.87V4.44C20,2.85,18.71,1.56,17.12,1.56z"/>
	<path class="st2" d="M1.25,17.12c0,0.9,0.73,1.63,1.63,1.63h14.24c0.9,0,1.63-0.73,1.63-1.63V7.79H1.25V17.12z"/>
	<path id="Rectángulo_10281_00000090252211569818766500000017188644025840868494_" class="st9" d="M14.52,0L14.52,0
		c0.55,0,1,0.45,1,1v1.59c0,0.55-0.45,1-1,1l0,0c-0.55,0-1-0.45-1-1V1C13.52,0.45,13.97,0,14.52,0z"/>
	<path id="Rectángulo_10282_00000172412370565667667080000014826856450824774048_" class="st9" d="M5.48,0L5.48,0
		c0.55,0,1,0.45,1,1v1.59c0,0.55-0.45,1-1,1l0,0c-0.55,0-1-0.45-1-1V1C4.48,0.45,4.93,0,5.48,0z"/>
	<g>
		<g>
			<path class="st9" d="M6.08,10.73H3.83c-0.34,0-0.62-0.28-0.62-0.62s0.28-0.62,0.62-0.62h2.25c0.34,0,0.62,0.28,0.62,0.62
				S6.43,10.73,6.08,10.73z"/>
			<path class="st9" d="M11.13,10.73H8.88c-0.34,0-0.62-0.28-0.62-0.62s0.28-0.62,0.62-0.62h2.25c0.34,0,0.62,0.28,0.62,0.62
				S11.47,10.73,11.13,10.73z"/>
			<path class="st9" d="M16.17,10.73h-2.25c-0.34,0-0.62-0.28-0.62-0.62s0.28-0.62,0.62-0.62h2.25c0.34,0,0.62,0.28,0.62,0.62
				S16.51,10.73,16.17,10.73z"/>
		</g>
		<g>
			<path class="st9" d="M6.08,13.91H3.83c-0.34,0-0.62-0.28-0.62-0.62s0.28-0.62,0.62-0.62h2.25c0.34,0,0.62,0.28,0.62,0.62
				S6.43,13.91,6.08,13.91z"/>
			<path class="st9" d="M11.13,13.91H8.88c-0.34,0-0.62-0.28-0.62-0.62s0.28-0.62,0.62-0.62h2.25c0.34,0,0.62,0.28,0.62,0.62
				S11.47,13.91,11.13,13.91z"/>
			<path class="st9" d="M16.17,13.91h-2.25c-0.34,0-0.62-0.28-0.62-0.62s0.28-0.62,0.62-0.62h2.25c0.34,0,0.62,0.28,0.62,0.62
				S16.51,13.91,16.17,13.91z"/>
		</g>
		<path class="st9" d="M6.08,17.1H3.83c-0.34,0-0.62-0.28-0.62-0.62s0.28-0.63,0.62-0.63h2.25c0.34,0,0.62,0.28,0.62,0.63
			S6.43,17.1,6.08,17.1z"/>
		<path class="st9" d="M11.13,17.1H8.88c-0.34,0-0.62-0.28-0.62-0.62s0.28-0.63,0.62-0.63h2.25c0.34,0,0.62,0.28,0.62,0.63
			S11.47,17.1,11.13,17.1z"/>
	</g>
</g>
</svg>
