<?xml version="1.0" encoding="UTF-8"?>
<svg id="Capa_1" data-name="Capa 1" xmlns="http://www.w3.org/2000/svg" version="1.1" viewBox="0 0 350 49.5">
  <defs>
    <style>
      .cls-1 {
        fill: #afca0a;
      }

      .cls-1, .cls-2 {
        stroke-width: 0px;
      }

      .cls-2 {
        fill: #575756;
      }
    </style>
  </defs>
  <g>
    <path class="cls-1" d="M24.8,0C11.1,0,0,11.1,0,24.8s11.1,24.8,24.8,24.8,24.8-11.1,24.8-24.8c0-13.7-11.1-24.8-24.8-24.8ZM24.8,44.6c-10.9,0-19.8-8.9-19.8-19.8S13.8,5,24.8,5s19.8,8.9,19.8,19.8-8.9,19.8-19.8,19.8Z"/>
    <path class="cls-1" d="M39.6,24.8c0,8.2-6.7,14.9-14.9,14.9s-14.9-6.7-14.9-14.9,6.7-14.9,14.9-14.9c8.2,0,14.9,6.6,14.9,14.9Z"/>
  </g>
  <g>
    <path class="cls-2" d="M135.6,23.9v5h14.8c0,3.2-1.3,5.8-3.8,7.7-2.5,2-5.6,2.9-9.3,2.9s-8.6-1.3-11.2-3.8c-2.7-2.6-4-6.2-4-11s1.3-8.3,3.9-10.9c2.6-2.6,6.3-4,11-4s7.1,1.1,9,2.5c2.1,1.6,4.4,3.7,4.5,7.9h5c-.4-6.8-3.8-10.2-7.3-12.4-3-1.9-6.7-2.9-11.2-2.9s-10.8,1.8-14.4,5.4c-.6.6-1.1,1.2-1.6,1.9-.6-1.8-1.8-3.3-3.4-4.4-2.6-1.9-6.4-2.8-11.2-2.8s-9.1,1-12.1,3c-.8.5-1.5,1.1-2,1.7-.7-1.2-1.6-2.2-2.9-3-.9-.6-2.1-1-3.5-1.3-1.4-.3-3.4-.4-6.1-.4h-17.7v39.6h17.9c3.2,0,5.6-.2,7.3-.8,1.7-.5,3.1-1.3,4.3-2.5.3-.2.5-.5.7-.8.3.3.7.6,1.1.9,2.8,2.1,6.8,3.2,12,3.2s10-1.1,13.1-3.2c1.3-.9,2.4-2,3.1-3.2.4.5.8.9,1.3,1.4,3.6,3.4,8.4,5,14.5,5s9.1-1.3,12.5-4c3.8-3,5.7-7.2,5.7-12.5s-.1-2.2-.3-4.2h-19.5ZM98,10.9c1.8-1.2,4.5-1.8,8-1.8s5.4.6,7.2,1.7c1.8,1.2,2.8,2.8,3,5h2.6c-1,2.4-1.6,5.2-1.7,8.3-1.8-.7-4-1.3-6.7-1.7-1-.2-2.3-.4-4-.7-4.9-.8-7.8-1.4-8.6-1.8-.9-.4-1.6-1-2-1.6-.4-.6-.6-1.4-.6-2.3,0-2.2.9-4,2.8-5.2ZM66.9,9.3h11.5c3.6,0,6.1.4,7.4,1.3,1.3.9,1.9,2.4,1.9,4.6s-.7,3.8-2.2,4.7c-1.5,1-3.9,1.4-7.4,1.4h-11.2s0-12.1,0-12.1ZM86.9,38.4c-1.4,1.1-3.7,1.6-7,1.6h-13v-14.1h11.9c3.8,0,6.4.5,7.9,1.6,1.5,1.1,2.3,3,2.3,5.6s-.7,4.2-2.1,5.3ZM114.4,38.4c-2.1,1.3-4.8,2-8.4,2s-6.3-.7-8.4-2.1c-1.9-1.4-3-3.3-3.2-5.8-.2-2.4-.9-4.3-2.2-5.8-1.5-1.7-3.6-2.8-6.4-3.2,2.1-.5,3.8-1.4,5-2.6,0,0,0,.1,0,.2.9,1.4,2.2,2.5,4,3.5,1.7.8,4.8,1.6,9.5,2.3h.5c.7.2,1.6.3,2.8.5,3.6.6,5.7,1,6.4,1.3,1.1.5,1.9,1.1,2.5,1.8.5.7.8,1.6.8,2.6,0,2.3-1,4.1-3.1,5.4Z"/>
    <rect class="cls-2" x="167.8" y="4.9" width="5.1" height="39.7"/>
    <path class="cls-2" d="M202.1,18.5c-.7-1-1.8-1.8-3.2-2.5-1.4-.6-2.9-.9-4.6-.9-3.9,0-6.8,1.6-8.9,4.8v-4.1h-4.2v28.9h4.7v-15.8c0-3.7.7-6.2,2.2-7.6,1.5-1.3,3.2-2,5.2-2s2.4.3,3.3.9c.9.6,1.6,1.4,1.9,2.4.4,1,.6,2.5.6,4.5v17.6h4.7v-17.8c0-2.2,0-3.9-.3-4.7-.3-1.4-.8-2.6-1.5-3.6Z"/>
    <path class="cls-2" d="M228.1,28.8c-1.3-.6-3.6-1.3-7-2.2-2.3-.7-3.7-1.1-4.2-1.2-.8-.4-1.4-.8-1.8-1.3-.4-.5-.6-1.1-.6-1.7,0-1,.5-1.8,1.4-2.6.9-.7,2.5-1.1,4.6-1.1s3.2.4,4.2,1.2c1,.8,1.6,2,1.8,3.5l4.6-.6c-.3-1.9-.8-3.4-1.6-4.5-.8-1.1-2-2-3.7-2.6-1.6-.6-3.6-1-5.7-1s-2.8.2-4.1.6c-1.3.4-2.3.9-3,1.4-1,.7-1.8,1.6-2.3,2.7-.6,1.1-.9,2.3-.9,3.6s.4,2.7,1,3.9c.7,1.2,1.7,2.1,3,2.7,1.3.7,3.7,1.5,7.2,2.4,2.6.7,4.1,1.2,4.8,1.6.9.7,1.4,1.5,1.4,2.6s-.5,2.3-1.6,3.2c-1,.9-2.6,1.4-4.8,1.4s-3.8-.5-5-1.5c-1.2-1-1.9-2.5-2.2-4.5l-4.7.8c.5,3,1.7,5.4,3.6,6.9,1.9,1.5,4.6,2.3,8.3,2.3s4.1-.4,5.9-1.2c1.7-.8,3.1-1.9,4-3.3.9-1.5,1.4-3,1.4-4.6s-.4-3-1.1-4.2c-.7-1.1-1.7-2-3.1-2.6Z"/>
    <path class="cls-2" d="M297.2,30c0,3.7-.2,5.2-.4,5.8-.4,1.2-1.1,2.2-2.1,3-1.1.8-2.4,1.1-3.9,1.1s-2.9-.4-4-1.2c-1.1-.8-1.8-1.8-2.2-3.1-.3-1-.4-2.9-.4-5.6v-15h-4.7v15.3c0,3.7.4,6.4,1.2,8.2.8,1.9,2.1,3.4,3.8,4.5,1.7,1.1,3.8,1.6,6.2,1.6s4.5-.5,6.2-1.6c1.7-1,2.9-2.5,3.8-4.4.8-1.9,1.2-4.5,1.2-8v-15.5h-4.8v15h0Z"/>
    <polygon class="cls-2" points="243.4 5.8 238.7 5.8 238.7 15.9 235.3 15.9 235.3 19.6 238.7 19.6 238.7 44.6 243.4 44.6 243.4 19.6 248.2 19.6 248.2 15.9 243.4 15.9 243.4 5.8"/>
    <polygon class="cls-2" points="270.2 5.8 265.5 5.8 265.5 15.9 262.1 15.9 262.1 19.6 265.5 19.6 265.5 44.6 270.2 44.6 270.2 19.6 275 19.6 275 15.9 270.2 15.9 270.2 5.8"/>
    <polygon class="cls-2" points="314.9 5.8 310.2 5.8 310.2 15.9 306.8 15.9 306.8 19.6 310.2 19.6 310.2 44.6 314.9 44.6 314.9 19.6 319.7 19.6 319.7 15.9 314.9 15.9 314.9 5.8"/>
    <rect class="cls-2" x="252.8" y="15.9" width="4.7" height="28.8"/>
    <path class="cls-2" d="M255.1,5.8c-1.9,0-3.5,1.6-3.5,3.5s1.6,3.5,3.5,3.5,3.5-1.6,3.5-3.5c0-1.9-1.6-3.5-3.5-3.5Z"/>
    <path class="cls-2" d="M349.9,31.1c0-.4,0-.9,0-1.3,0-1-.1-1.9-.3-2.9-1.3-6.8-7.1-11.9-14-11.9s-14.3,6.6-14.3,14.8,6.4,14.8,14.3,14.8,10.9-3.7,13.1-9l-4.1-.7c-1.7,3.3-5.1,5.5-9,5.5s-9.6-4.1-10.2-9.4h24.4ZM325.9,27c1.2-4.5,5.2-7.7,9.9-7.7s8.7,3.3,9.9,7.7h-19.7Z"/>
  </g>
</svg>